<?xml version="1.0" encoding="utf-8"?>
<!-- Generator: Adobe Illustrator 25.2.3, SVG Export Plug-In . SVG Version: 6.00 Build 0)  -->
<svg version="1.1" id="Layer" xmlns="http://www.w3.org/2000/svg" xmlns:xlink="http://www.w3.org/1999/xlink" x="0px" y="0px"
	 viewBox="0 0 2500 1024" style="enable-background:new 0 0 2500 1024;" xml:space="preserve">
<style type="text/css">
	.st0{fill-rule:evenodd;clip-rule:evenodd;fill:#08C6A4;}
	.st1{fill-rule:evenodd;clip-rule:evenodd;fill:#FFFFFF;}
	.st2{fill-rule:evenodd;clip-rule:evenodd;fill:#333333;}
	.st3{fill-rule:evenodd;clip-rule:evenodd;fill:#F1BA05;}
	.st4{fill-rule:evenodd;clip-rule:evenodd;fill:#555555;}
</style>
<path class="st0" d="M1355.3,258.8c0-132.7-107.5-240.2-240.2-240.2c-132.7,0-240.2,107.6-240.2,240.2c0,150.1,0,342.6,0,492.7
	c0,132.7,107.5,240.2,240.2,240.2c132.7,0,240.2-107.6,240.2-240.2C1355.3,601.4,1355.3,408.9,1355.3,258.8L1355.3,258.8z"/>
<path class="st1" d="M1183.3,624.9c-0.9-3.9-1.3-7.9-1.3-12c0-31.3,25.4-56.7,56.7-56.7c6.8,0,13.2,1.2,19.2,3.4
	c14.4-48.7,59.6-84.3,112.9-84.3c37.7,0,71.2,17.7,92.8,45.3c7.8-2.7,16.2-4.2,25-4.2c42.3,0,76.6,34.3,76.6,76.6
	c0,11.4-2.5,22.2-7,31.9H1183.3L1183.3,624.9z"/>
<path class="st1" d="M64.3,540.5c14.1-33.8,45.3-57.4,81.5-57.4c10.2,0,20.1,1.9,29.2,5.3c25.3-35.4,64.6-58.1,108.7-58.1
	c47.9,0,90.2,26.8,114.9,67.5c11.1-9.2,25-14.7,40-14.7c31.8,0,58.5,24.6,64.9,57.4H64.3L64.3,540.5z"/>
<polygon class="st0" points="476,18.6 691.6,18.6 691.6,548.3 778.1,548.3 778.1,768.9 691.6,768.9 691.6,991.7 471,991.7 
	471,768.9 205.1,768.9 476,18.6 "/>
<polygon class="st0" points="1723,18.6 1938.6,18.6 1938.6,548.3 2025.1,548.3 2025.1,768.9 1938.6,768.9 1938.6,991.7 1718,991.7 
	1718,768.9 1452.1,768.9 1723,18.6 "/>
<polygon class="st2" points="2134.1,774.6 2044.2,774.6 2044.2,954.8 2134.1,954.8 2134.1,774.6 "/>
<polygon class="st2" points="2204.1,881.2 2127.4,881.2 2127.4,954.8 2204.1,954.8 2204.1,881.2 "/>
<polygon class="st2" points="2248.8,645.9 2172.1,645.9 2172.1,954.8 2248.8,954.8 2248.8,645.9 "/>
<polygon class="st2" points="2319.5,784.6 2242.8,784.6 2242.8,954.8 2319.5,954.8 2319.5,784.6 "/>
<polygon class="st2" points="2388.8,852.1 2312.1,852.1 2312.1,954.8 2388.8,954.8 2388.8,852.1 "/>
<polygon class="st2" points="2019.4,852.1 1956.7,852.1 1956.7,954.8 2019.4,954.8 2019.4,852.1 "/>
<polygon class="st2" points="2435.9,954.8 1817.5,954.8 1817.5,991.7 2435.9,991.7 2435.9,954.8 "/>
<polygon class="st2" points="2112.9,756.2 2054.8,756.2 2054.8,793.1 2112.9,793.1 2112.9,756.2 "/>
<polygon class="st2" points="228.7,865.5 156.9,865.5 156.9,971.9 228.7,971.9 228.7,865.5 "/>
<polygon class="st2" points="284.6,932.3 223.4,932.3 223.4,971.9 284.6,971.9 284.6,932.3 "/>
<polygon class="st2" points="320.4,805.9 259.1,805.9 259.1,971.9 320.4,971.9 320.4,805.9 "/>
<polygon class="st2" points="376.9,880.4 315.6,880.4 315.6,971.9 376.9,971.9 376.9,880.4 "/>
<polygon class="st2" points="432.3,916.7 371,916.7 371,971.9 432.3,971.9 432.3,916.7 "/>
<polygon class="st2" points="137,916.7 86.9,916.7 86.9,971.9 137,971.9 137,916.7 "/>
<polygon class="st2" points="874.9,971.9 64.1,971.9 64.1,991.7 874.9,991.7 874.9,971.9 "/>
<polygon class="st2" points="211.8,845.4 165.4,845.4 165.4,885 211.8,885 211.8,845.4 "/>
<polygon class="st2" points="1482.8,830.1 1381.7,830.1 1381.7,972 1482.8,972 1482.8,830.1 "/>
<polygon class="st2" points="1561.6,916.2 1475.3,916.2 1475.3,972 1561.6,972 1561.6,916.2 "/>
<polygon class="st2" points="1611.9,738.2 1525.6,738.2 1525.6,972 1611.9,972 1611.9,738.2 "/>
<polygon class="st2" points="1691.4,843.2 1605.1,843.2 1605.1,972 1691.4,972 1691.4,843.2 "/>
<polygon class="st2" points="1769.4,894.2 1683.1,894.2 1683.1,972 1769.4,972 1769.4,894.2 "/>
<polygon class="st2" points="1353.7,894.2 1283.1,894.2 1283.1,972 1353.7,972 1353.7,894.2 "/>
<polygon class="st2" points="1827.4,972 875.1,972 875.1,991.8 1827.4,991.8 1827.4,972 "/>
<polygon class="st2" points="1465,802.1 1399.6,802.1 1399.6,830.1 1465,830.1 1465,802.1 "/>
<polygon class="st3" points="1413,843.2 1389.3,843.2 1389.3,852.1 1413,852.1 1413,843.2 "/>
<polygon class="st3" points="1413,861.8 1389.3,861.8 1389.3,870.7 1413,870.7 1413,861.8 "/>
<polygon class="st3" points="1413,880.4 1389.3,880.4 1389.3,889.3 1413,889.3 1413,880.4 "/>
<polygon class="st3" points="1413,899 1389.3,899 1389.3,908 1413,908 1413,899 "/>
<polygon class="st3" points="1413,917.7 1389.3,917.7 1389.3,926.6 1413,926.6 1413,917.7 "/>
<polygon class="st3" points="1413,936.3 1389.3,936.3 1389.3,945.2 1413,945.2 1413,936.3 "/>
<polygon class="st3" points="1444.2,843.2 1420.4,843.2 1420.4,852.1 1444.2,852.1 1444.2,843.2 "/>
<polygon class="st3" points="1444.2,861.8 1420.4,861.8 1420.4,870.7 1444.2,870.7 1444.2,861.8 "/>
<polygon class="st3" points="1444.2,880.4 1420.4,880.4 1420.4,889.3 1444.2,889.3 1444.2,880.4 "/>
<polygon class="st3" points="1444.2,899 1420.4,899 1420.4,908 1444.2,908 1444.2,899 "/>
<polygon class="st3" points="1444.2,917.7 1420.4,917.7 1420.4,926.6 1444.2,926.6 1444.2,917.7 "/>
<polygon class="st3" points="1444.2,936.3 1420.4,936.3 1420.4,945.2 1444.2,945.2 1444.2,936.3 "/>
<path class="st1" d="M786.7,268.6l-73.6-161.1c0,0,7.4,0,15.4,0c12.2,0,23.8,5.3,31.7,14.6l124.8,146.5h54.2
	c54.8,2.2,89,14.4,108.2,33.8c3.7,3.7,4.8,9.3,2.8,14.1c-2,4.8-6.8,8-12,8H884.9L760.1,471c-7.9,9.3-19.5,14.6-31.7,14.6
	c-7.9,0-15.4,0-15.4,0l73.6-161.1h-68.4c-44.2,0-87.1-14.6-122-41.6c-2.7-2.1-3.8-5.7-2.7-8.9c1.1-3.2,4.1-5.4,7.6-5.4H786.7
	L786.7,268.6z M583,194.9c12.6,0,24.5,5.7,32.4,15.5c17.4,21.6,47.6,58.2,47.6,58.2h-61.8l-31.5-73.7H583L583,194.9z"/>
<polygon class="st3" points="176.5,874.5 166.2,874.5 166.2,882.1 176.5,882.1 176.5,874.5 "/>
<polygon class="st3" points="176.5,890.5 166.2,890.5 166.2,898.1 176.5,898.1 176.5,890.5 "/>
<polygon class="st3" points="176.5,906.5 166.2,906.5 166.2,914.1 176.5,914.1 176.5,906.5 "/>
<polygon class="st3" points="176.5,922.5 166.2,922.5 166.2,930.1 176.5,930.1 176.5,922.5 "/>
<polygon class="st3" points="176.5,938.5 166.2,938.5 166.2,946.1 176.5,946.1 176.5,938.5 "/>
<polygon class="st3" points="176.5,954.5 166.2,954.5 166.2,962.1 176.5,962.1 176.5,954.5 "/>
<polygon class="st3" points="194.9,874.5 184.5,874.5 184.5,882.1 194.9,882.1 194.9,874.5 "/>
<polygon class="st3" points="194.9,890.5 184.5,890.5 184.5,898.1 194.9,898.1 194.9,890.5 "/>
<polygon class="st3" points="194.9,906.5 184.5,906.5 184.5,914.1 194.9,914.1 194.9,906.5 "/>
<polygon class="st3" points="194.9,922.5 184.5,922.5 184.5,930.1 194.9,930.1 194.9,922.5 "/>
<polygon class="st3" points="194.9,938.5 184.5,938.5 184.5,946.1 194.9,946.1 194.9,938.5 "/>
<polygon class="st3" points="194.9,954.5 184.5,954.5 184.5,962.1 194.9,962.1 194.9,954.5 "/>
<polygon class="st3" points="213.3,874.5 203,874.5 203,882.1 213.3,882.1 213.3,874.5 "/>
<polygon class="st3" points="213.3,890.5 203,890.5 203,898.1 213.3,898.1 213.3,890.5 "/>
<polygon class="st3" points="213.3,906.5 203,906.5 203,914.1 213.3,914.1 213.3,906.5 "/>
<polygon class="st3" points="213.3,922.5 203,922.5 203,930.1 213.3,930.1 213.3,922.5 "/>
<polygon class="st3" points="213.3,938.5 203,938.5 203,946.1 213.3,946.1 213.3,938.5 "/>
<polygon class="st3" points="213.3,954.5 203,954.5 203,962.1 213.3,962.1 213.3,954.5 "/>
<polygon class="st3" points="307.4,968.9 307.4,956.7 299.8,956.7 299.8,968.9 307.4,968.9 "/>
<polygon class="st3" points="291.6,968.9 291.6,956.7 284,956.7 284,968.9 291.6,968.9 "/>
<polygon class="st3" points="275.7,968.9 275.7,956.7 268.1,956.7 268.1,968.9 275.7,968.9 "/>
<polygon class="st3" points="307.4,923.2 307.4,911 299.8,911 299.8,923.2 307.4,923.2 "/>
<polygon class="st3" points="291.6,923.2 291.6,911 284,911 284,923.2 291.6,923.2 "/>
<polygon class="st3" points="275.7,923.2 275.7,911 268.1,911 268.1,923.2 275.7,923.2 "/>
<polygon class="st3" points="307.4,876.8 307.4,864.6 299.8,864.6 299.8,876.8 307.4,876.8 "/>
<polygon class="st3" points="291.6,876.8 291.6,864.6 284,864.6 284,876.8 291.6,876.8 "/>
<polygon class="st3" points="275.7,876.8 275.7,864.6 268.1,864.6 268.1,876.8 275.7,876.8 "/>
<polygon class="st3" points="307.4,953.6 307.4,941.5 299.8,941.5 299.8,953.6 307.4,953.6 "/>
<polygon class="st3" points="291.6,953.6 291.6,941.5 284,941.5 284,953.6 291.6,953.6 "/>
<polygon class="st3" points="275.7,953.6 275.7,941.5 268.1,941.5 268.1,953.6 275.7,953.6 "/>
<polygon class="st3" points="307.4,907.9 307.4,895.8 299.8,895.8 299.8,907.9 307.4,907.9 "/>
<polygon class="st3" points="291.6,907.9 291.6,895.8 284,895.8 284,907.9 291.6,907.9 "/>
<polygon class="st3" points="275.7,907.9 275.7,895.8 268.1,895.8 268.1,907.9 275.7,907.9 "/>
<polygon class="st3" points="307.4,861.5 307.4,849.3 299.8,849.3 299.8,861.5 307.4,861.5 "/>
<polygon class="st3" points="291.6,861.5 291.6,849.3 284,849.3 284,861.5 291.6,861.5 "/>
<polygon class="st3" points="275.7,861.5 275.7,849.3 268.1,849.3 268.1,861.5 275.7,861.5 "/>
<polygon class="st3" points="307.4,938 307.4,925.9 299.8,925.9 299.8,938 307.4,938 "/>
<polygon class="st3" points="291.6,938 291.6,925.9 284,925.9 284,938 291.6,938 "/>
<polygon class="st3" points="275.7,938 275.7,925.9 268.1,925.9 268.1,938 275.7,938 "/>
<polygon class="st3" points="307.4,892.3 307.4,880.2 299.8,880.2 299.8,892.3 307.4,892.3 "/>
<polygon class="st3" points="291.6,892.3 291.6,880.2 284,880.2 284,892.3 291.6,892.3 "/>
<polygon class="st3" points="275.7,892.3 275.7,880.2 268.1,880.2 268.1,892.3 275.7,892.3 "/>
<polygon class="st3" points="307.4,845.9 307.4,833.8 299.8,833.8 299.8,845.9 307.4,845.9 "/>
<polygon class="st3" points="291.6,845.9 291.6,833.8 284,833.8 284,845.9 291.6,845.9 "/>
<polygon class="st3" points="275.7,845.9 275.7,833.8 268.1,833.8 268.1,845.9 275.7,845.9 "/>
<polygon class="st3" points="1583.9,753.8 1535.3,753.8 1535.3,766.9 1583.9,766.9 1583.9,753.8 "/>
<polygon class="st3" points="1583.9,781.1 1535.3,781.1 1535.3,794.2 1583.9,794.2 1583.9,781.1 "/>
<polygon class="st3" points="1583.9,808.5 1535.3,808.5 1535.3,821.5 1583.9,821.5 1583.9,808.5 "/>
<polygon class="st3" points="1583.9,835.8 1535.3,835.8 1535.3,848.8 1583.9,848.8 1583.9,835.8 "/>
<polygon class="st3" points="1583.9,863.1 1535.3,863.1 1535.3,876.1 1583.9,876.1 1583.9,863.1 "/>
<polygon class="st3" points="1583.9,890.4 1535.3,890.4 1535.3,903.5 1583.9,903.5 1583.9,890.4 "/>
<polygon class="st3" points="1629.2,867.1 1618.9,867.1 1618.9,880.2 1629.2,880.2 1629.2,867.1 "/>
<polygon class="st3" points="1629.2,894.4 1618.9,894.4 1618.9,907.5 1629.2,907.5 1629.2,894.4 "/>
<polygon class="st3" points="1629.2,921.7 1618.9,921.7 1618.9,934.8 1629.2,934.8 1629.2,921.7 "/>
<polygon class="st3" points="1629.2,949.1 1618.9,949.1 1618.9,962.1 1629.2,962.1 1629.2,949.1 "/>
<polygon class="st3" points="1647.7,867.1 1637.3,867.1 1637.3,880.2 1647.7,880.2 1647.7,867.1 "/>
<polygon class="st3" points="1647.7,894.4 1637.3,894.4 1637.3,907.5 1647.7,907.5 1647.7,894.4 "/>
<polygon class="st3" points="1647.7,921.7 1637.3,921.7 1637.3,934.8 1647.7,934.8 1647.7,921.7 "/>
<polygon class="st3" points="1647.7,949.1 1637.3,949.1 1637.3,962.1 1647.7,962.1 1647.7,949.1 "/>
<polygon class="st3" points="1666.1,867.1 1655.8,867.1 1655.8,880.2 1666.1,880.2 1666.1,867.1 "/>
<polygon class="st3" points="1666.1,894.4 1655.8,894.4 1655.8,907.5 1666.1,907.5 1666.1,894.4 "/>
<polygon class="st3" points="1666.1,921.7 1655.8,921.7 1655.8,934.8 1666.1,934.8 1666.1,921.7 "/>
<polygon class="st3" points="1666.1,949.1 1655.8,949.1 1655.8,962.1 1666.1,962.1 1666.1,949.1 "/>
<polygon class="st3" points="2072.1,784.6 2050.9,784.6 2050.9,796.4 2072.1,796.4 2072.1,784.6 "/>
<polygon class="st3" points="2072.1,809.2 2050.9,809.2 2050.9,821 2072.1,821 2072.1,809.2 "/>
<polygon class="st3" points="2072.1,833.9 2050.9,833.9 2050.9,845.6 2072.1,845.6 2072.1,833.9 "/>
<polygon class="st3" points="2072.1,858.5 2050.9,858.5 2050.9,870.3 2072.1,870.3 2072.1,858.5 "/>
<polygon class="st3" points="2072.1,883.1 2050.9,883.1 2050.9,894.9 2072.1,894.9 2072.1,883.1 "/>
<polygon class="st3" points="2072.1,907.7 2050.9,907.7 2050.9,919.5 2072.1,919.5 2072.1,907.7 "/>
<polygon class="st3" points="2099.7,784.6 2078.6,784.6 2078.6,796.4 2099.7,796.4 2099.7,784.6 "/>
<polygon class="st3" points="2099.7,809.2 2078.6,809.2 2078.6,821 2099.7,821 2099.7,809.2 "/>
<polygon class="st3" points="2099.7,833.9 2078.6,833.9 2078.6,845.6 2099.7,845.6 2099.7,833.9 "/>
<polygon class="st3" points="2099.7,858.5 2078.6,858.5 2078.6,870.3 2099.7,870.3 2099.7,858.5 "/>
<polygon class="st3" points="2099.7,883.1 2078.6,883.1 2078.6,894.9 2099.7,894.9 2099.7,883.1 "/>
<polygon class="st3" points="2099.7,907.7 2078.6,907.7 2078.6,919.5 2099.7,919.5 2099.7,907.7 "/>
<polygon class="st3" points="2127.4,784.6 2106.3,784.6 2106.3,796.4 2127.4,796.4 2127.4,784.6 "/>
<polygon class="st3" points="2127.4,809.2 2106.3,809.2 2106.3,821 2127.4,821 2127.4,809.2 "/>
<polygon class="st3" points="2127.4,833.9 2106.3,833.9 2106.3,845.6 2127.4,845.6 2127.4,833.9 "/>
<polygon class="st3" points="2127.4,858.5 2106.3,858.5 2106.3,870.3 2127.4,870.3 2127.4,858.5 "/>
<polygon class="st3" points="2127.4,883.1 2106.3,883.1 2106.3,894.9 2127.4,894.9 2127.4,883.1 "/>
<polygon class="st3" points="2127.4,907.7 2106.3,907.7 2106.3,919.5 2127.4,919.5 2127.4,907.7 "/>
<polygon class="st3" points="2196.5,658 2180.4,658 2180.4,667 2196.5,667 2196.5,658 "/>
<polygon class="st3" points="2196.5,676.8 2180.4,676.8 2180.4,685.7 2196.5,685.7 2196.5,676.8 "/>
<polygon class="st3" points="2196.5,695.5 2180.4,695.5 2180.4,704.5 2196.5,704.5 2196.5,695.5 "/>
<polygon class="st3" points="2196.5,714.3 2180.4,714.3 2180.4,723.3 2196.5,723.3 2196.5,714.3 "/>
<polygon class="st3" points="2196.5,733 2180.4,733 2180.4,742 2196.5,742 2196.5,733 "/>
<polygon class="st3" points="2196.5,751.8 2180.4,751.8 2180.4,760.8 2196.5,760.8 2196.5,751.8 "/>
<polygon class="st3" points="2196.5,767.4 2180.4,767.4 2180.4,776.4 2196.5,776.4 2196.5,767.4 "/>
<polygon class="st3" points="2196.5,786.2 2180.4,786.2 2180.4,795.2 2196.5,795.2 2196.5,786.2 "/>
<polygon class="st3" points="2196.5,804.9 2180.4,804.9 2180.4,813.9 2196.5,813.9 2196.5,804.9 "/>
<polygon class="st3" points="2196.5,823.7 2180.4,823.7 2180.4,832.7 2196.5,832.7 2196.5,823.7 "/>
<polygon class="st3" points="2196.5,842.5 2180.4,842.5 2180.4,851.5 2196.5,851.5 2196.5,842.5 "/>
<polygon class="st3" points="2196.5,861.2 2180.4,861.2 2180.4,870.2 2196.5,870.2 2196.5,861.2 "/>
<polygon class="st4" points="376.4,294.4 661.1,314 361.5,335.9 "/>
</svg>
