<?xml version="1.0" encoding="utf-8"?>
<!-- Generator: Adobe Illustrator 25.2.3, SVG Export Plug-In . SVG Version: 6.00 Build 0)  -->
<svg version="1.1" xmlns="http://www.w3.org/2000/svg" xmlns:xlink="http://www.w3.org/1999/xlink" x="0px" y="0px"
	 viewBox="0 0 937.179 587.053" enable-background="new 0 0 937.179 587.053" xml:space="preserve">
<g id="bg">
</g>
<g id="c3">
</g>
<g id="c2">
</g>
<g id="c1">
</g>
<g id="bubble">
	<g>
		
			<linearGradient id="SVGID_1_" gradientUnits="userSpaceOnUse" x1="102.9575" y1="33.9062" x2="940.1265" y2="758.1007" gradientTransform="matrix(0.9956 -0.0932 0.0932 0.9956 -17.7027 32.8917)">
			<stop  offset="0" style="stop-color:#FEFEFE"/>
			<stop  offset="1" style="stop-color:#FFFFFF"/>
		</linearGradient>
		<path fill="url(#SVGID_1_)" d="M554.279,586.346c-57.047,5.343-112.919-19.875-146.798-65.987
			c-20.384,11.786-42.671,18.88-66.313,21.094c-45.8,4.289-91.306-11.018-125.287-42.052c-12.077,4.113-24.676,6.803-37.486,8.002
			c-89.59,8.39-169.304-57.671-177.694-147.261c-6.645-70.956,34.518-138.992,100.265-166.085
			c24.357-52.768,75.159-88.811,133-94.228c4.992-0.468,10.179-0.7,15.451-0.692c23.593-55.198,75-92.803,134.852-98.408
			c55.792-5.225,109.234,17.854,143.713,61.864c18.401-9.412,38.24-15.167,59.023-17.113
			c70.572-6.609,136.207,32.113,164.575,96.662c5.857-1.632,11.772-2.735,17.625-3.283c55.517-5.199,104.915,35.735,110.115,91.252
			c0.289,3.085,0.408,6.288,0.368,9.919c31.975,15.334,53.736,46.399,57.046,81.743c5.199,55.517-35.74,104.912-91.257,110.111
			c-9.378,0.878-18.815,0.438-28.097-1.308c-26.758,44.065-72.997,73.114-124.312,77.919c-4.875,0.457-9.888,0.694-14.935,0.707
			C651.323,552.805,605.209,581.576,554.279,586.346z"/>
		
			<linearGradient id="SVGID_2_" gradientUnits="userSpaceOnUse" x1="140.2218" y1="25.5468" x2="885.1677" y2="770.4927" gradientTransform="matrix(0.9956 -0.0932 0.0932 0.9956 -17.7027 32.8917)">
			<stop  offset="0" style="stop-color:#F7FFFF"/>
			<stop  offset="1" style="stop-color:#F2F7F7"/>
		</linearGradient>
		<path fill="url(#SVGID_2_)" d="M875.329,242.749c0.13-4.038,0.096-8.109-0.29-12.235c-4.986-53.24-52.19-92.359-105.433-87.373
			c-7.11,0.666-13.942,2.135-20.477,4.221c-25.901-62.851-90.515-104.268-161.725-97.599c-21.932,2.054-42.4,8.479-60.633,18.325
			C494.716,25.28,441.818-0.34,384.671,5.012c-61.073,5.72-110.783,45.309-132.402,98.453c-5.91-0.107-11.878,0.079-17.902,0.644
			c-59.077,5.533-107.52,42.76-130.194,93.288C40.437,222.86-1.745,287.936,4.98,359.741
			c8.182,87.37,85.643,151.564,173.013,143.382c13.596-1.273,26.629-4.228,38.918-8.633c32.08,30.258,76.499,47.117,123.856,42.682
			c24.904-2.332,47.913-10.31,67.912-22.524c31.67,45.394,86.154,72.947,145.199,67.417c52.601-4.926,96.771-34.982,121.835-77.174
			c5.599,0.069,11.253-0.141,16.953-0.675c53.132-4.976,97.653-35.596,122.579-78.461c9.551,2.099,19.573,2.81,29.831,1.849
			c53.243-4.986,92.363-52.189,87.376-105.43C929.071,286.073,906.251,256.516,875.329,242.749z"/>
	</g>
	
		<radialGradient id="Gradient_globe_1_" cx="451.5521" cy="1070.9028" r="210.1096" fx="658.866" fy="1105.0645" gradientTransform="matrix(0.6123 0.6151 0.6049 -0.6076 -473.4983 642.194)" gradientUnits="userSpaceOnUse">
		<stop  offset="0" style="stop-color:#36C5A5"/>
		<stop  offset="0.1725" style="stop-color:#36C5A5"/>
		<stop  offset="0.2807" style="stop-color:#33B49E"/>
		<stop  offset="0.4941" style="stop-color:#2C898B"/>
		<stop  offset="0.7898" style="stop-color:#21436C"/>
		<stop  offset="0.8474" style="stop-color:#1F3566"/>
	</radialGradient>
	<ellipse id="Gradient_globe" fill="url(#Gradient_globe_1_)" cx="450.722" cy="269.263" rx="159.764" ry="160.486"/>
	
		<linearGradient id="Trail_shadow_1_" gradientUnits="userSpaceOnUse" x1="535.6721" y1="1111.2853" x2="419.6724" y2="995.2857" gradientTransform="matrix(1 0 0 1 0 -704)">
		<stop  offset="0.0695" style="stop-color:#3EB49A"/>
		<stop  offset="0.3318" style="stop-color:#278D97"/>
		<stop  offset="0.8799" style="stop-color:#283478"/>
	</linearGradient>
	<path id="Trail_shadow" fill="url(#Trail_shadow_1_)" d="M474.266,212.81c123.395,117.864-6.148,199.02-94.126,201.369
		c27.969,10.264,41.132,8.438,66.763,8.438c41.911,0,80.012-16.179,108.501-42.709C580.689,329.63,590.128,252.91,474.266,212.81z"
		/>
	<path id="White_trail" fill="#FFFFFF" d="M476.085,220.291c123.395,117.864-6.841,180.667-59.489,193.366
		c-14.894,4.175-29.009,4.001-39.227-0.348c21.475,10.786,45.721,16.875,71.352,16.875c41.911,0,80.012-16.179,108.501-42.709
		C582.594,337.024,592.033,260.303,476.085,220.291z"/>
	<path id="Plane_shadow" fill="#1F3566" d="M451.319,166.882c-0.087,0-0.087,0-0.173,0.087l-7.101,8.177
		c0.087,0,0.173,0.087,0.26,0.087c0.606,0.261,0.953,0.609,0.866,0.87c-0.087,0.261-0.606,0.261-1.212,0
		c-0.087-0.087-0.26-0.087-0.346-0.174c-0.087-0.087-0.173,0-0.26,0l-4.156,4.871c-0.087,0.087-0.087,0.261,0.087,0.261
		c0.087,0,0.087,0.087,0.173,0.087c0.606,0.261,0.953,0.609,0.866,0.87c-0.087,0.261-0.606,0.261-1.212,0
		c-0.173-0.087-0.346-0.174-0.52-0.261c-0.087-0.087-0.173-0.087-0.26,0l-2.338,2.697c0,0,0,0,0,0.087l-0.953,2.175
		c-0.087,0.087,0,0.261,0.087,0.261c0.087,0,0.26,0.087,0.346,0.087c0.606,0.261,0.953,0.609,0.866,0.87s-0.606,0.261-1.212,0
		c-0.087-0.087-0.26-0.087-0.346-0.174c-0.087-0.087-0.26,0-0.26,0.087l-2.078,4.784c0,0.087,0,0.174,0.087,0.261l12.729,5.567
		c0.953,0.435,1.818,0.957,2.684,1.479l3.723,2.697c0.433,0.348,1.126,0.348,1.559,0l9.439-6.176c0.087,0,0.087,0,0.173,0
		l1.905,0.783c0.087,0.087,0.173,0.174,0.087,0.261l-6.581,8.872c-0.087,0.087-0.087,0.174,0,0.261l3.55,2.697
		c0.433,0.348,0.173,1.044-0.433,0.957l-4.416-0.783c-0.087,0-0.173,0.087-0.173,0.174l-1.992,10.873
		c0,0.087-0.173,0.174-0.26,0.174l-1.905-0.783c-0.087,0-0.087-0.087-0.087-0.174l-1.818-11.134
		c-0.087-0.609-0.52-1.044-1.126-1.131l-4.503-0.957c-1.039-0.174-1.992-0.522-2.944-0.957l-12.729-5.567
		c-0.087,0-0.173,0-0.26,0.087l-2.078,4.784c-0.087,0.087,0,0.261,0.087,0.261c0.087,0,0.26,0.087,0.346,0.087
		c0.606,0.261,0.953,0.609,0.866,0.87s-0.606,0.261-1.212,0c-0.087-0.087-0.26-0.087-0.346-0.174c-0.087-0.087-0.26,0-0.26,0.087
		l-0.953,2.175c0,0,0,0,0,0.087l-0.433,3.566c0,0.087,0.087,0.174,0.173,0.174c0.173,0,0.346,0.087,0.52,0.174
		c0.606,0.261,0.953,0.609,0.866,0.87c-0.087,0.261-0.606,0.261-1.212,0c-0.087,0-0.087-0.087-0.173-0.087
		c-0.087-0.087-0.26,0-0.26,0.174l-0.693,6.35c0,0.087,0.087,0.174,0.173,0.174c0.087,0,0.26,0.087,0.346,0.087
		c0.606,0.261,0.953,0.609,0.866,0.87c-0.087,0.261-0.606,0.261-1.212,0c-0.087,0-0.173-0.087-0.26-0.087l-1.212,10.786
		c0,0.087,0,0.087,0.087,0.174l0.173,0.174c0.173,0.174-0.087,0.435-0.26,0.261l-2.511-1.653c-0.087,0-0.087-0.087-0.087-0.174
		l-1.645-23.225c0-0.087-0.087-0.087-0.087-0.174l-5.022-2.175c-0.693-0.348-1.039-1.218-0.779-1.914l0.606-1.305
		c0.346-0.696,1.212-1.044,1.905-0.783l2.771,1.218c0.087,0.087,0.26,0,0.26-0.174l-0.346-5.828c0-0.087,0-0.087-0.087-0.174
		l-1.472-1.131l0,0l-10.911-4.784l0,0c-0.173-0.087-3.464-1.74-5.542-4.175c-2.165-2.523-1.645-3.305-1.645-3.305
		s0.173-0.957,3.464-1.044c3.204-0.087,6.668,1.218,6.841,1.305l0,0l10.824,4.784l0,0l1.818,0.348c0.087,0,0.087,0,0.173,0
		l4.503-3.74c0.087-0.087,0.087-0.261,0-0.348l-2.771-1.218c-0.693-0.348-1.039-1.218-0.779-1.914l0.606-1.305
		c0.346-0.696,1.212-1.044,1.905-0.783l5.022,2.175c0.087,0,0.173,0,0.173,0l18.098-14.526c0.087,0,0.087-0.087,0.173,0l2.944,0.696
		C451.666,166.708,451.666,166.969,451.319,166.882L451.319,166.882z"/>
	<path id="Plane" fill="#FFFFFF" d="M453.744,172.536c-0.087,0-0.087,0-0.173,0.087l-7.101,8.177c0.087,0,0.173,0.087,0.26,0.087
		c0.606,0.261,0.953,0.609,0.866,0.87s-0.606,0.261-1.212,0c-0.087-0.087-0.26-0.087-0.346-0.174c-0.087-0.087-0.173,0-0.26,0
		l-4.156,4.871c-0.087,0.087-0.087,0.261,0.087,0.261c0.087,0,0.087,0.087,0.173,0.087c0.606,0.261,0.953,0.609,0.866,0.87
		s-0.606,0.261-1.212,0c-0.173-0.087-0.346-0.174-0.52-0.261c-0.087-0.087-0.173-0.087-0.26,0l-2.338,2.697c0,0,0,0,0,0.087
		l-0.953,2.175c-0.087,0.087,0,0.261,0.087,0.261c0.087,0,0.26,0.087,0.346,0.087c0.606,0.261,0.953,0.609,0.866,0.87
		s-0.606,0.261-1.212,0c-0.087-0.087-0.26-0.087-0.346-0.174c-0.087-0.087-0.26,0-0.26,0.087l-2.078,4.784
		c0,0.087,0,0.174,0.087,0.261l12.729,5.567c0.953,0.435,1.818,0.957,2.684,1.479l3.723,2.697c0.433,0.348,1.126,0.348,1.559,0
		l9.439-6.176c0.087,0,0.087,0,0.173,0l1.905,0.783c0.087,0.087,0.173,0.174,0.087,0.261l-6.581,8.872
		c-0.087,0.087-0.087,0.174,0,0.261l3.55,2.697c0.433,0.348,0.173,1.044-0.433,0.957l-4.416-0.783c-0.087,0-0.173,0.087-0.173,0.174
		l-1.992,10.873c0,0.087-0.173,0.174-0.26,0.174l-1.905-0.783c-0.087,0-0.087-0.087-0.087-0.174l-1.818-11.134
		c-0.087-0.609-0.52-1.044-1.126-1.131l-4.503-0.957c-1.039-0.174-1.992-0.522-2.944-0.957l-12.729-5.567
		c-0.087,0-0.173,0-0.26,0.087l-2.078,4.784c-0.087,0.087,0,0.261,0.087,0.261s0.26,0.087,0.346,0.087
		c0.606,0.261,0.953,0.609,0.866,0.87c-0.087,0.261-0.606,0.261-1.212,0c-0.087-0.087-0.26-0.087-0.346-0.174
		c-0.087-0.087-0.26,0-0.26,0.087l-0.953,2.175c0,0,0,0,0,0.087l-0.433,3.566c0,0.087,0.087,0.174,0.173,0.174
		c0.173,0,0.346,0.087,0.52,0.174c0.606,0.261,0.953,0.609,0.866,0.87c-0.087,0.261-0.606,0.261-1.212,0
		c-0.087,0-0.087-0.087-0.173-0.087c-0.087-0.087-0.26,0-0.26,0.174l-0.693,6.35c0,0.087,0.087,0.174,0.173,0.174
		s0.26,0.087,0.346,0.087c0.606,0.261,0.953,0.609,0.866,0.87c-0.087,0.261-0.606,0.261-1.212,0c-0.087,0-0.173-0.087-0.26-0.087
		l-1.212,10.786c0,0.087,0,0.087,0.087,0.174l0.173,0.174c0.173,0.174-0.087,0.435-0.26,0.261l-2.511-1.653
		c-0.087,0-0.087-0.087-0.087-0.174l-1.645-23.225c0-0.087-0.087-0.087-0.087-0.174l-5.022-2.175
		c-0.693-0.348-1.039-1.218-0.779-1.914l0.606-1.305c0.346-0.696,1.212-1.044,1.905-0.783l2.771,1.218
		c0.087,0.087,0.26,0,0.26-0.174l-0.346-5.828c0-0.087,0-0.087-0.087-0.174l-1.472-1.131l0,0l-10.824-4.784l0,0
		c-0.173-0.087-3.464-1.74-5.542-4.175c-2.165-2.523-1.645-3.305-1.645-3.305s0.173-0.957,3.464-1.044
		c3.204-0.087,6.668,1.218,6.841,1.305l0,0l10.824,4.784l0,0l1.818,0.348c0.087,0,0.087,0,0.173,0l4.503-3.74
		c0.087-0.087,0.087-0.261,0-0.348l-2.771-1.218c-0.693-0.348-1.039-1.218-0.779-1.914l0.606-1.305
		c0.346-0.696,1.212-1.044,1.905-0.783l5.022,2.175c0.087,0,0.173,0,0.173,0l18.098-14.613c0.087,0,0.087-0.087,0.173,0l2.944,0.696
		c0.173,0.087,0.173,0.348-0.087,0.348H453.744z"/>
</g>
<g id="icon">
</g>
</svg>
