<?xml version="1.0" encoding="utf-8"?>
<!-- Generator: Adobe Illustrator 25.2.3, SVG Export Plug-In . SVG Version: 6.00 Build 0)  -->
<svg version="1.1" xmlns="http://www.w3.org/2000/svg" xmlns:xlink="http://www.w3.org/1999/xlink" x="0px" y="0px"
	 viewBox="0 0 660.8 428.2" style="enable-background:new 0 0 660.8 428.2;" xml:space="preserve">
<style type="text/css">
	.st0{fill:#FDDBBB;}
	.st1{fill:#F5F5F5;}
	.st2{fill:#414042;}
	.st3{fill:#6D6E71;}
	.st4{fill:#F1F2F2;}
	.st5{fill:#4F423A;}
	.st6{fill:#F2F2F2;}
	.st7{fill:#FFC64A;}
	.st8{fill:#E39D03;}
	.st9{fill:#E6E6E6;}
	.st10{fill:#EB7D86;}
	.st11{fill:#533E29;}
	.st12{fill:none;}
	.st13{fill:#B9D3C5;}
</style>
<g id="Layer_2">
</g>
<g id="Layer_1">
	<g>
		<g>
			<g>
				<g>
					<g>
						<g>
							<g>
								<g>
									<g>
										<path class="st0" d="M437.9,278.8c0,0-13.1-2.8-8.8-12.6c4.3-9.7,13.7-0.1,13.7-0.1L437.9,278.8z"/>
									</g>
								</g>
							</g>
						</g>
					</g>
				</g>
				<g>
					<g>
						<g>
							<g>
								<g>
									<g>
										<g>
											<polygon class="st1" points="446,267.4 443,265.7 437.8,279.3 440.9,281 											"/>
										</g>
									</g>
								</g>
							</g>
						</g>
					</g>
				</g>
				<g>
					<g>
						<g>
							<g>
								<g>
									<g>
										<g>
											<path class="st2" d="M525.3,240.5c0,0-12.8,73.7-85.9,40.8l5.5-15.7c0,0,47.7,28.6,67.8-27.7L525.3,240.5z"/>
										</g>
									</g>
								</g>
							</g>
						</g>
					</g>
				</g>
				<g>
					<g>
						<g>
							<g>
								<g>
									<g>
										<g>
											<path class="st3" d="M453,284.1c-0.7-0.4-1-1.3-0.6-2.1c0.4-0.7,1.3-1,2.1-0.6c0.7,0.4,1,1.3,0.6,2.1
												C454.7,284.3,453.7,284.5,453,284.1z"/>
										</g>
									</g>
								</g>
							</g>
						</g>
					</g>
				</g>
				<g>
					<g>
						<g>
							<g>
								<g>
									<g>
										<g>
											<path class="st3" d="M448,282.4c-0.7-0.4-1-1.3-0.6-2.1c0.4-0.7,1.3-1,2.1-0.6c0.7,0.4,1,1.3,0.6,2.1
												C449.6,282.5,448.7,282.8,448,282.4z"/>
										</g>
									</g>
								</g>
							</g>
						</g>
					</g>
				</g>
				<g>
					<g>
						<g>
							<g>
								<g>
									<g>
										<g>
											<path class="st3" d="M443.1,280.7c-0.7-0.4-1-1.3-0.6-2.1c0.4-0.7,1.3-1,2.1-0.6c0.7,0.4,1,1.3,0.6,2.1
												C444.7,280.9,443.8,281.1,443.1,280.7z"/>
										</g>
									</g>
								</g>
							</g>
						</g>
					</g>
				</g>
			</g>
		</g>
		<g>
			<g>
				<g>
					<g>
						<g>
							<g>
								<ellipse class="st4" cx="561.3" cy="412.6" rx="81.9" ry="15.6"/>
							</g>
						</g>
					</g>
				</g>
				<g>
					<g>
						<g>
							<g>
								<g>
									<g>
										<g>
											<g>
												<g>
													<g>
														<g>
															<g>
																<g>
																	<path class="st0" d="M636,245.2c0,0,20.8-106.8-44.7-121.2c-83.5-18.3-78,109.8-78,109.8L636,245.2z"/>
																</g>
															</g>
														</g>
													</g>
												</g>
											</g>
										</g>
										<g>
											<g>
												<g>
													<g>
														<g>
															<g>
																<g>
																	<g>
																		<g>
																			<g>
																				<path class="st2" d="M507.7,324.9l4.3,42.3l6.3,33.4c0,0-13.9-7.9-19.2,2.9c-7.4,15.3,28.9,4.9,28.9,4.9
																					l-6.2-42.8l0.9-26.7c0,0,32.1,9.8,79.9,8.5l0.8,21.2l7.7,39.4c0,0-8.9-12.7-18.7-1.6
																					c-13.2,14.8,27.4,5.6,27.4,5.6l-5.2-44l3.1-26.9C617.7,340.8,576.7,324.3,507.7,324.9z"/>
																			</g>
																		</g>
																	</g>
																</g>
															</g>
														</g>
													</g>
													<g>
														<g>
															<g>
																<g>
																	<g>
																		<g>
																			<g>
																				<path class="st2" d="M598.7,237.3l-43.8,45.9l-32-53.9l-11-1.1l-4.2,96.7c0,0,10.9,5.6,32.7,9.7
																					c9.1,1.9,23.1,3.5,23.1,3.5c14.3,1.4,33.8,2.6,54.2,2.8l21.6-98.7L598.7,237.3z"/>
																			</g>
																		</g>
																	</g>
																</g>
															</g>
														</g>
													</g>
													<g>
														<g>
															<g>
																<g>
																	<g>
																		<g>
																			<g>
																				<g>
																					<g>
																						<polygon class="st1" points="522.9,229.2 554.9,283.2 598.7,237.3 																						"/>
																					</g>
																				</g>
																			</g>
																		</g>
																	</g>
																</g>
															</g>
															<g>
																<g>
																	<g>
																		<g>
																			<g>
																				<g>
																					<g>
																						<polygon class="st3" points="522.9,229.2 520.2,250.6 532,254.3 528.6,270.5 554.9,283.2 
																																													"/>
																					</g>
																				</g>
																			</g>
																		</g>
																	</g>
																</g>
															</g>
															<g>
																<g>
																	<g>
																		<g>
																			<g>
																				<g>
																					<g>
																						<polygon class="st3" points="554.9,283.2 582.6,273 582.9,261.1 596.1,257.8 598.7,237.3 
																																													"/>
																					</g>
																				</g>
																			</g>
																		</g>
																	</g>
																</g>
															</g>
															<g>
																<g>
																	<g>
																		<g>
																			<g>
																				<g>
																					<g>
																						<polygon class="st2" points="548.2,242.5 552.8,236.9 563.1,237.6 566.2,245.2 561.5,249.6 564.8,272.8 
																							554.9,283.2 546.4,268.8 552.4,248.9 																						"/>
																					</g>
																				</g>
																			</g>
																		</g>
																	</g>
																</g>
															</g>
														</g>
													</g>
													<g>
														<g>
															<g>
																<g>
																	<g>
																		<g>
																			<g>
																				<path class="st3" d="M557.2,293.5c-0.6,1.8-2.6,2.8-4.4,2.3c-1.8-0.6-2.8-2.6-2.3-4.4c0.6-1.8,2.6-2.8,4.4-2.3
																					C556.8,289.7,557.8,291.6,557.2,293.5z"/>
																			</g>
																		</g>
																	</g>
																</g>
															</g>
														</g>
													</g>
													<g>
														<g>
															<g>
																<g>
																	<g>
																		<g>
																			<g>
																				<path class="st3" d="M556.1,309.4c-0.6,1.8-2.6,2.8-4.4,2.3c-1.8-0.6-2.8-2.6-2.2-4.4c0.6-1.8,2.6-2.8,4.4-2.3
																					C555.7,305.6,556.7,307.6,556.1,309.4z"/>
																			</g>
																		</g>
																	</g>
																</g>
															</g>
														</g>
													</g>
												</g>
											</g>
										</g>
										<g>
											<g>
												<g>
													<g>
														<g>
															<g>
																<g>
																	<g>
																		<g>
																			<path class="st5" d="M512.3,83.5c0,0-22.5,77.4,101.9,74.2l0.2,25.5c0,0,11.7-11.3,13.4,1.1
																				c1.9,14.2-11.2,9.1-11.2,9.1s8.6,35.4,20,48.5c1.9-1.9,54.2-119.7-1.3-118.5c0,0-0.6-26.3-35.7-34
																				C550.7,78.6,540.5,121.5,512.3,83.5z"/>
																		</g>
																	</g>
																</g>
															</g>
														</g>
													</g>
												</g>
											</g>
										</g>
									</g>
								</g>
							</g>
						</g>
					</g>
				</g>
				<g>
					<g>
						<path class="st5" d="M584,184.5c-0.7,4.8,0.8,8.9,3.3,9.3c2.5,0.3,5-3.2,5.7-8c0.7-4.8-0.8-8.9-3.3-9.3
							C587.2,176.1,584.7,179.7,584,184.5z"/>
					</g>
				</g>
				<g>
					<g>
						<path class="st5" d="M529.3,176.4c-0.7,4.8,0.8,8.9,3.3,9.3c2.5,0.3,5-3.2,5.7-8c0.7-4.8-0.8-8.9-3.3-9.3
							C532.5,168,530,171.6,529.3,176.4z"/>
					</g>
				</g>
			</g>
		</g>
		<g>
			<g>
				<g>
					<g>
						<g>
							<g>
								<g>
									<g>
										<g>
											<g>
												<g>
													<path class="st0" d="M622.5,334.6c0,0-10.9,9.3-16,0c-5.1-9.4,9.2-11.1,9.2-11.1L622.5,334.6z"/>
												</g>
											</g>
										</g>
									</g>
								</g>
							</g>
							<g>
								<g>
									<g>
										<g>
											<polygon class="st1" points="617,321.8 613.9,323.2 622,335.4 624.6,333.2 											"/>
										</g>
									</g>
								</g>
							</g>
						</g>
					</g>
				</g>
				<g>
					<g>
						<g>
							<g>
								<g>
									<g>
										<g>
											<path class="st2" d="M638.8,244.3c0,0,54,47.8-14.2,90.9l-9.6-13.5c0,0,50.7-23.5,20-61.9L638.8,244.3z"/>
										</g>
									</g>
								</g>
							</g>
						</g>
					</g>
				</g>
				<g>
					<g>
						<g>
							<g>
								<g>
									<g>
										<g>
											<path class="st3" d="M634.7,325.8c-0.8,0.4-1.7,0-2-0.7c-0.4-0.8,0-1.7,0.7-2c0.8-0.4,1.7,0,2,0.7
												C635.8,324.5,635.5,325.4,634.7,325.8z"/>
										</g>
									</g>
								</g>
							</g>
						</g>
					</g>
				</g>
				<g>
					<g>
						<g>
							<g>
								<g>
									<g>
										<g>
											<path class="st3" d="M630.4,328.9c-0.8,0.4-1.7,0-2-0.7c-0.4-0.8,0-1.7,0.7-2c0.8-0.4,1.7,0,2,0.7
												C631.5,327.6,631.1,328.5,630.4,328.9z"/>
										</g>
									</g>
								</g>
							</g>
						</g>
					</g>
				</g>
				<g>
					<g>
						<g>
							<g>
								<g>
									<g>
										<g>
											<path class="st3" d="M626.2,331.9c-0.8,0.4-1.7,0-2-0.7c-0.4-0.8,0-1.7,0.7-2c0.8-0.4,1.7,0,2,0.7
												C627.3,330.7,626.9,331.6,626.2,331.9z"/>
										</g>
									</g>
								</g>
							</g>
						</g>
					</g>
				</g>
			</g>
		</g>
	</g>
	<g>
		<path class="st6" d="M449.1,267.8c-2.6-1.2-4.2-2.1-4.2-2.1l-0.3,0.9l-1.5-0.9l-0.2,0.5c-1.1-1.1-9.7-9-13.7,0.1
			c-0.6,1.2-0.8,2.4-0.9,3.4c1.5,0.1,3,0.2,4.5,0.2c3,0,6-0.2,8.9-0.6l0,0v0C444.2,268.9,446.7,268.4,449.1,267.8z"/>
		<g>
			<g>
				
					<ellipse transform="matrix(0.7979 -0.6027 0.6027 0.7979 -34.1666 301.0986)" class="st7" cx="432" cy="201.5" rx="66.4" ry="66.4"/>
			</g>
		</g>
		<g>
			<g>
				<path class="st8" d="M377.9,201.5c0-29.9,24.2-54.1,54.1-54.1c29.9,0,54.1,24.2,54.1,54.1c0,29.9-24.2,54.1-54.1,54.1
					C402.1,255.6,377.9,231.4,377.9,201.5z"/>
			</g>
		</g>
		<path class="st9" d="M432,149.3c29.5,0,53.5,23.7,54.1,53.1c0-0.3,0-0.6,0-1c0-29.9-24.2-54.1-54.1-54.1
			c-29.9,0-54.1,24.2-54.1,54.1c0,0.3,0,0.6,0,1C378.5,173,402.5,149.3,432,149.3z"/>
		<g>
			<g>
				<g>
					<path class="st9" d="M415.6,227.4c-2.7-2.4-4.1-6.2-4.1-11.4v-2.2h14.9v1.6c0,2.5,0.5,4.2,1.4,5.1c0.9,0.9,2.2,1.4,3.7,1.4
						c1.6,0,2.8-0.5,3.7-1.6c0.9-1,1.3-2.3,1.3-3.8c0-1.9-0.6-3.4-1.8-4.5c-1.2-1.1-2.7-2.1-4.5-2.9c-1.8-0.8-3.7-1.6-5.8-2.4
						c-2.1-0.8-4-1.8-5.8-3.1c-1.8-1.3-3.3-3-4.5-5.1c-1.2-2.1-1.8-4.8-1.8-8.2c0-10.3,5-16.3,15.1-17.9v-4.8h7.6v4.8
						c5.5,0.6,9.5,2.2,12,5c2.5,2.8,3.7,7,3.7,12.7h-14.4v-1.2c0-1.7-0.4-3.1-1.1-4.3c-0.7-1.2-1.8-1.9-3.3-1.9
						c-1.7,0-2.9,0.5-3.6,1.6c-0.8,1.1-1.2,2.2-1.2,3.5c0,1.9,0.6,3.4,1.9,4.5c1.2,1.1,2.8,2.1,4.7,2.9c1.9,0.8,3.9,1.6,6,2.3
						c2.1,0.7,4.2,1.8,6,3.1c1.9,1.3,3.4,3.1,4.7,5.2c1.2,2.1,1.9,5,1.9,8.6c0,5.6-1.5,9.8-4.4,12.5c-2.9,2.7-7.2,4.4-12.9,5v7.4
						h-7.6v-7.4C422.3,231.3,418.3,229.8,415.6,227.4z"/>
				</g>
			</g>
		</g>
		<g>
			<g>
				<g>
					<path class="st7" d="M415.6,225.5c-2.7-2.4-4.1-6.2-4.1-11.4v-2.2h14.9v1.6c0,2.5,0.5,4.2,1.4,5.1c0.9,0.9,2.2,1.4,3.7,1.4
						c1.6,0,2.8-0.5,3.7-1.6c0.9-1,1.3-2.3,1.3-3.8c0-1.9-0.6-3.4-1.8-4.5c-1.2-1.1-2.7-2.1-4.5-2.9c-1.8-0.8-3.7-1.6-5.8-2.4
						c-2.1-0.8-4-1.8-5.8-3.1c-1.8-1.3-3.3-3-4.5-5.1c-1.2-2.1-1.8-4.8-1.8-8.2c0-10.3,5-16.3,15.1-17.9v-4.8h7.6v4.8
						c5.5,0.6,9.5,2.2,12,5c2.5,2.8,3.7,7,3.7,12.7h-14.4v-1.2c0-1.7-0.4-3.1-1.1-4.3c-0.7-1.2-1.8-1.9-3.3-1.9
						c-1.7,0-2.9,0.5-3.6,1.6c-0.8,1.1-1.2,2.2-1.2,3.5c0,1.9,0.6,3.4,1.9,4.5c1.2,1.1,2.8,2.1,4.7,2.9c1.9,0.8,3.9,1.6,6,2.3
						c2.1,0.7,4.2,1.8,6,3.1c1.9,1.3,3.4,3.1,4.7,5.2c1.2,2.1,1.9,5,1.9,8.6c0,5.6-1.5,9.8-4.4,12.5c-2.9,2.7-7.2,4.4-12.9,5v7.4
						h-7.6v-7.4C422.3,229.4,418.3,227.9,415.6,225.5z"/>
				</g>
			</g>
		</g>
	</g>
	<g>
		<g>
			<g>
				<g>
					<ellipse class="st4" cx="140.1" cy="412.6" rx="81.9" ry="15.6"/>
				</g>
			</g>
		</g>
	</g>
	<g>
		<g>
			<path class="st10" d="M577.4,206.1c0,0-22.5-5.7-37.2-4.3c0,0-5.3,18.2,16.4,21.3C578,226.2,577.4,206.1,577.4,206.1z"/>
		</g>
	</g>
	<g>
		<g>
			<g>
				<g>
					<path class="st0" d="M183.8,252.1l10.7-4.9c11.8,52.3,59.2,25.2,74.8,9.3c0.5-0.5,4-3.6,5.4-2c0.7,0.8,0.5,1.7,0,2.6
						c0.9-0.4,1.8-0.5,2.5,0.2c0.6,0.7,0.5,1.6,0.2,2.4c0.8-0.3,1.6-0.4,2.2,0.3c0.7,0.8,0.5,1.7,0,2.6c0.9-0.4,1.8-0.5,2.5,0.2
						c1.4,1.5-0.1,3.2-1.4,4.5C246.1,300,196.5,310.9,183.8,252.1z"/>
				</g>
			</g>
			<path class="st1" d="M194.5,247.2l-10.7,4.9c2.2,10.2,5.5,18.4,9.6,24.8l9.6-9.8C199.4,262.4,196.5,255.9,194.5,247.2z"/>
			<g>
				<path class="st9" d="M194.5,247.2l-10.7,4.9c3.2,14.7,8.6,25,15.6,31.7l-4-33.1C195.1,249.6,194.8,248.4,194.5,247.2z"/>
			</g>
			<g>
				<g>
					<path class="st0" d="M194.5,244.6c0,0-1.1-158.2-113.6-105.7c0,0-33.8,24.7-21.4,111C150.5,266.7,194.5,244.6,194.5,244.6z"/>
				</g>
				<g>
					<path class="st11" d="M83.2,200.4l1.4-25.4c59.6-1.2,103.4-15.1,103.4-15.1c-10.7-53.7-59.2-56.7-83.4-52.3
						c-30.7,4.9-43.4,25.3-46.3,32.4c-2.3-3-2.6-6.7-2.6-6.7c-4.3,5.3-2,9.8-2,9.8c-6,0.1-8,5.8-8,5.8c2-0.6,3.8-0.5,5.4-0.2
						c-31.3,14.4,8.6,101.1,8.6,101.1c13.1-8,22.9-40.5,22.9-40.5s-14,5.2-12.2-5.9C72,192.5,83.2,200.4,83.2,200.4z"/>
				</g>
				<g>
					<g>
						<path class="st0" d="M41,166.1c-0.1,0-0.2,0-0.2,0S40.9,166.1,41,166.1z"/>
					</g>
					<g>
						<path class="st0" d="M0.6,211.3c-4.8-32.5,19.5-49.3,19.5-49.3s21.6-15.3,29.2-2.9c0,0,1.8,2.5-0.9,2.4
							c-2.7-0.1-6.1-4.2-9.8-2c0,0,3.7-1.1,3.8,1.9c0.1,1.4-2.8,1.5-3.6,1.5c-0.1,0-0.2,0-0.2,0s0.1,0,0.2,0c0.7,0,3.3,0.2,3.4,1.9
							c0.2,2.4-2,2.5-2.7,2.4c-0.1,0-0.2,0-0.2,0s0.1,0,0.2,0c0.6,0.1,2.4,0.5,1.8,2.8c-0.7,2.4-4.4,0.7-4.4,0.7s-8.5-0.2-12.5,4.7
							c-31.4,40.5,13.9,70.7,35.1,74.6l2.5,17.1C35.5,261.3,5.4,243.7,0.6,211.3z"/>
					</g>
					<g>
						<path class="st0" d="M41.8,170.3c-0.1,0-0.2,0-0.2,0S41.6,170.3,41.8,170.3z"/>
					</g>
				</g>
			</g>
			<g>
				<path class="st11" d="M71.9,333.3l4,37.4L73.1,412c0,0,40,12.6,29.1-4.3c-10-15.6-22.6-2.6-22.6-2.6l7.6-35.9l0.9-25.5
					c0,0,49.1,6.3,91.6-3l-0.2,26.5l-6.1,44.4c0,0,40.7,13.3,29.7-5.1c-8.5-13.3-22.1-2.8-22.1-2.8l9.6-36.5l3.8-38.3L71.9,333.3z"
					/>
			</g>
			<g>
				<g>
					<g>
						<path class="st1" d="M194.5,244.6l-0.2,84c0,0-50.8,11.4-122.4,4.7l-12.3-83.3C59.6,249.9,142.1,262.8,194.5,244.6z"/>
					</g>
				</g>
			</g>
			<g>
				<g>
					<g>
						<polygon class="st9" points="164.7,257.9 167.2,262.5 163.8,268.1 167.3,316.9 154.1,327.8 142.7,316.3 156.9,268.7 
							152.8,263 154.9,259.1 						"/>
					</g>
				</g>
			</g>
			<g>
				<g>
					<g>
						<polygon class="st11" points="164.7,257.9 167.2,262.5 163.8,268.1 170.3,316 157,327 145.6,315.5 156.9,268.7 152.8,263 
							154.9,259.1 						"/>
					</g>
				</g>
			</g>
			<g>
				<g>
					<path class="st12" d="M38.9,162.8c-0.1,0-0.2,0-0.2,0S38.8,162.8,38.9,162.8z"/>
				</g>
				<g>
					<path class="st12" d="M39.7,167.1c-0.1,0-0.2,0-0.2,0S39.6,167.1,39.7,167.1z"/>
				</g>
				<g>
					<path class="st1" d="M59.6,249.9c-4.8-0.9-10.9-3.1-17-6.5l-1.8,16.5c7,3.2,14.3,5.6,21.3,7.1L59.6,249.9z"/>
				</g>
			</g>
		</g>
	</g>
	<g>
		<path class="st9" d="M282,265.8c0.7-1,1.1-2.1,0.2-3.1c-0.6-0.7-1.6-0.6-2.5-0.2c0.5-0.9,0.6-1.8,0-2.6c-0.6-0.7-1.4-0.6-2.2-0.3
			c0.4-0.8,0.5-1.7-0.2-2.4c-0.6-0.7-1.6-0.6-2.5-0.2c0.5-0.9,0.6-1.8,0-2.6c-1.4-1.6-4.9,1.5-5.4,2c-1.3,1.3-2.9,2.7-4.6,4.2
			c3.9,3.5,9.1,5.5,14.8,5.4C280.3,266,281.2,265.9,282,265.8z"/>
		<g>
			<g>
				
					<ellipse transform="matrix(0.9998 -1.808390e-02 1.808390e-02 0.9998 -4.3461 5.0833)" class="st7" cx="278.9" cy="242.9" rx="21.4" ry="21.4"/>
			</g>
		</g>
		<g>
			<g>
				<path class="st8" d="M261.5,243.4c-0.3-9.6,7.3-17.7,16.9-17.9c9.6-0.3,17.7,7.3,17.9,16.9c0.3,9.6-7.3,17.7-16.9,17.9
					C269.8,260.6,261.7,253,261.5,243.4z"/>
			</g>
		</g>
		<path class="st9" d="M278.4,226c9.5-0.3,17.5,7.1,17.9,16.6c0-0.1,0-0.2,0-0.3c-0.3-9.6-8.3-17.2-17.9-16.9
			c-9.6,0.3-17.2,8.3-16.9,17.9c0,0.1,0,0.2,0,0.3C261.4,234.2,268.9,226.3,278.4,226z"/>
		<g>
			<g>
				<g>
					<path class="st9" d="M273.9,251.4c-0.9-0.7-1.4-2-1.4-3.7l0-0.7l4.8-0.1l0,0.5c0,0.8,0.2,1.3,0.5,1.6c0.3,0.3,0.7,0.4,1.2,0.4
						c0.5,0,0.9-0.2,1.2-0.5c0.3-0.3,0.4-0.8,0.4-1.2c0-0.6-0.2-1.1-0.6-1.4c-0.4-0.3-0.9-0.6-1.5-0.9c-0.6-0.2-1.2-0.5-1.9-0.7
						c-0.7-0.2-1.3-0.6-1.9-1c-0.6-0.4-1.1-0.9-1.5-1.6c-0.4-0.7-0.6-1.5-0.7-2.6c-0.1-3.3,1.5-5.3,4.7-5.9l0-1.5l2.5-0.1l0,1.5
						c1.8,0.1,3.1,0.6,3.9,1.5c0.8,0.9,1.3,2.2,1.3,4.1l-4.6,0.1l0-0.4c0-0.5-0.1-1-0.4-1.4c-0.2-0.4-0.6-0.6-1.1-0.6
						c-0.5,0-0.9,0.2-1.2,0.6c-0.2,0.4-0.4,0.7-0.3,1.1c0,0.6,0.2,1.1,0.6,1.4c0.4,0.3,0.9,0.6,1.5,0.9c0.6,0.2,1.3,0.5,2,0.7
						c0.7,0.2,1.4,0.5,2,0.9c0.6,0.4,1.1,1,1.6,1.6c0.4,0.7,0.6,1.6,0.7,2.8c0.1,1.8-0.4,3.2-1.3,4.1c-0.9,0.9-2.3,1.5-4.1,1.7
						l0.1,2.4l-2.5,0.1l-0.1-2.4C276.1,252.5,274.8,252.1,273.9,251.4z"/>
				</g>
			</g>
		</g>
		<g>
			<g>
				<g>
					<path class="st7" d="M273.9,250.7c-0.9-0.7-1.4-2-1.4-3.7l0-0.7l4.8-0.1l0,0.5c0,0.8,0.2,1.3,0.5,1.6c0.3,0.3,0.7,0.4,1.2,0.4
						c0.5,0,0.9-0.2,1.2-0.5c0.3-0.3,0.4-0.8,0.4-1.2c0-0.6-0.2-1.1-0.6-1.4c-0.4-0.3-0.9-0.6-1.5-0.9c-0.6-0.2-1.2-0.5-1.9-0.7
						c-0.7-0.2-1.3-0.6-1.9-1c-0.6-0.4-1.1-0.9-1.5-1.6c-0.4-0.7-0.6-1.5-0.7-2.6c-0.1-3.3,1.5-5.3,4.7-5.9l0-1.5l2.5-0.1l0,1.5
						c1.8,0.1,3.1,0.6,3.9,1.5c0.8,0.9,1.3,2.2,1.3,4.1l-4.6,0.1l0-0.4c0-0.5-0.1-1-0.4-1.4c-0.2-0.4-0.6-0.6-1.1-0.6
						c-0.5,0-0.9,0.2-1.2,0.6c-0.2,0.4-0.4,0.7-0.3,1.1c0,0.6,0.2,1.1,0.6,1.4c0.4,0.3,0.9,0.6,1.5,0.9c0.6,0.2,1.3,0.5,2,0.7
						c0.7,0.2,1.4,0.5,2,0.9c0.6,0.4,1.1,1,1.6,1.6c0.4,0.7,0.6,1.6,0.7,2.8c0.1,1.8-0.4,3.2-1.3,4.1c-0.9,0.9-2.3,1.5-4.1,1.7
						l0.1,2.4l-2.5,0.1l-0.1-2.4C276,251.9,274.7,251.5,273.9,250.7z"/>
				</g>
			</g>
		</g>
	</g>
	<g>
		<polygon class="st13" points="273.9,213.8 269.7,197.2 275.3,196.1 276.1,213.5 		"/>
	</g>
	<g>
		<polygon class="st13" points="281.8,213.4 284.8,200.2 288.4,202.2 283.4,213.8 		"/>
	</g>
	<g>
		<polygon class="st13" points="268.2,215.6 260.5,203.4 257.5,207.5 266.7,216.8 		"/>
	</g>
	<g>
		<polygon class="st13" points="413.5,125.1 401.9,79.1 417.4,76 419.7,124 		"/>
	</g>
	<g>
		<polygon class="st13" points="436.6,124.8 444.8,88.5 454.9,94 440.9,125.9 		"/>
	</g>
	<g>
		<polygon class="st13" points="399,131.1 377.6,97.4 369.3,108.5 394.8,134.3 		"/>
	</g>
	<g>
		<g>
			<path class="st11" d="M165.5,195.5c0.7,4.8,3.3,8.3,5.8,7.9c2.5-0.4,3.9-4.5,3.1-9.3c-0.7-4.8-3.3-8.3-5.8-7.9
				C166.2,186.6,164.8,190.8,165.5,195.5z"/>
		</g>
	</g>
	<g>
		<g>
			<path class="st11" d="M110.8,203.3c0.7,4.8,3.3,8.3,5.8,7.9c2.5-0.4,3.9-4.5,3.1-9.3c-0.7-4.8-3.3-8.3-5.8-7.9
				C111.5,194.4,110.1,198.6,110.8,203.3z"/>
		</g>
	</g>
	<g>
		<g>
			<path class="st10" d="M128,241.2c0,0,23.2,0.6,37.3-4c0,0,0.9-20.7-20.7-17.2C123.6,223.5,128,241.2,128,241.2z"/>
		</g>
	</g>
	<g>
		<path class="st13" d="M54.2,12.6c3.9-6.2,10-10.1,18.6-11.8c7.9-1.6,14.7-0.6,20.3,2.9c5.6,3.5,9.1,8.7,10.5,15.6
			c0.8,4.2,0.7,7.8-0.5,10.7c-1.2,3-4,7.5-8.3,13.6c-3.1,4.5-5,8.1-5.7,10.9c-0.4,1.8-0.5,4.2-0.2,7c0.3,2.7-1.6,5.1-4.2,5.7l-0.1,0
			c-3.1,0.6-6-1.6-6.3-4.7c-0.3-3.2-0.3-5.9,0.2-8.3c0.7-3.7,2.9-8.3,6.6-13.7l3.9-5.7c1.2-1.6,2.1-3.3,2.7-4.9
			c1.1-2.9,1.4-5.7,0.9-8.5c-0.8-3.9-2.6-7-5.6-9.4c-2.9-2.4-7.1-3-12.6-1.9c-6.7,1.3-10.9,4.7-12.5,10.2c-0.6,2.1-0.8,4.6-0.7,7.7
			c0.2,2.7-1.6,5-4.2,5.6l-0.2,0c-3.2,0.6-6.2-1.7-6.4-4.9C50,22.6,51.3,17.2,54.2,12.6z M85.9,77.1l1.4-0.3
			c2.9-0.6,5.7,1.3,6.2,4.2l0.4,2c0.6,2.9-1.3,5.7-4.2,6.2l-1.4,0.3c-2.9,0.6-5.7-1.3-6.2-4.2l-0.4-2C81.2,80.5,83.1,77.7,85.9,77.1
			z"/>
	</g>
	<g>
		<path class="st13" d="M143.8,18.8c4.8-3.7,10.7-4.9,17.7-3.8c6.5,1.1,11.5,3.8,14.8,8.1c3.3,4.3,4.5,9.4,3.6,15.1
			c-0.6,3.5-1.7,6.2-3.5,8.1c-1.8,1.9-5.2,4.6-10.3,8.1c-3.7,2.5-6.2,4.8-7.5,6.7c-0.9,1.3-1.6,3-2.2,5.2c-0.6,2.2-2.7,3.6-5,3.2
			l0,0c-2.6-0.4-4.3-3-3.6-5.5c0.7-2.5,1.5-4.6,2.5-6.3c1.6-2.7,4.6-5.6,9-8.7l4.6-3.2c1.4-0.9,2.6-1.9,3.5-3c1.7-1.9,2.7-4,3.1-6.3
			c0.5-3.2,0-6.2-1.6-8.8c-1.6-2.7-4.6-4.4-9.1-5.1c-5.6-0.9-9.8,0.5-12.6,4.2c-1.1,1.4-2,3.4-2.8,5.9c-0.6,2.1-2.7,3.3-4.8,3
			l-0.1,0c-2.7-0.4-4.4-3.2-3.5-5.8C137.7,25.2,140.2,21.5,143.8,18.8z M149.7,77.7l1,0.2c2.4,0.4,4.1,2.7,3.7,5.1l-0.2,1.5
			c-0.4,2.4-2.7,4.1-5.1,3.7l-1-0.2c-2.4-0.4-4.1-2.7-3.7-5.1l0.2-1.5C145,79,147.3,77.4,149.7,77.7z"/>
	</g>
</g>
</svg>
