<?xml version="1.0" encoding="utf-8"?>
<!-- Generator: Adobe Illustrator 25.2.3, SVG Export Plug-In . SVG Version: 6.00 Build 0)  -->
<svg version="1.1" xmlns="http://www.w3.org/2000/svg" xmlns:xlink="http://www.w3.org/1999/xlink" x="0px" y="0px"
	 viewBox="0 0 800 683.3" style="enable-background:new 0 0 800 683.3;" xml:space="preserve">
<style type="text/css">
	.st0{fill:#08C6A4;}
	.st1{fill:#05826C;}
	.st2{fill:#4D4D4D;}
	.st3{fill:#3A3A3A;}
	.st4{fill:#2C2C2C;}
	.st5{fill:#DDEAE3;}
	.st6{fill:#F6F6F6;}
	.st7{fill:#FDDCBE;}
	.st8{fill:#4A2B0E;}
	.st9{fill:#F5F5F5;}
</style>
<g id="Layer_2">
</g>
<g id="Layer_1">
	<g>
		<polygon class="st0" points="800,472.3 800,440.8 459.4,211.3 0,329.8 0,423.2 203.7,655 		"/>
		<polygon class="st1" points="203.7,655 0,423.2 0,449.9 201.8,679.3 800,492.5 800,472.3 		"/>
	</g>
	<g>
		<polygon class="st2" points="191.1,460 254.6,524.2 580.1,407.5 521.3,366 		"/>
		<path class="st3" d="M191.1,460c0,0-12.8,11.9-0.8,18.8c5.8,3.3,8-4.8,8-4.8l54.2,56.8l326.4-117.4l1.1-5.8L254.6,524.2L191.1,460
			z"/>
	</g>
	<g>
		<g>
			<polygon class="st3" points="359.4,352.9 360.4,355.8 243.6,394.2 188.1,361.2 262.2,234.1 267.3,232.1 191.9,359.8 243.2,389.5 
							"/>
			<g>
				<polygon class="st4" points="355.1,212.3 267.3,232.1 191.9,359.8 295.2,326 				"/>
				<polygon class="st2" points="295.2,326 191.9,359.8 243.2,389.5 359.4,352.9 				"/>
			</g>
		</g>
		<polygon class="st2" points="86.7,51.6 136.4,350.3 457.9,251.9 440.3,4.2 		"/>
		<polygon class="st5" points="119,77.3 153.4,310.8 432.9,229.2 415.6,34.8 		"/>
		<polygon class="st3" points="136.4,350.3 124.2,342.4 72.8,46.5 424.5,0 440.3,4.2 86.7,51.6 		"/>
		<g>
			<path class="st3" d="M172.8,112.1c0,0-0.1,0.1-0.1,0.2L172.8,112.1z"/>
			<path class="st3" d="M207.3,131.3C207.3,131.3,207.3,131.4,207.3,131.3C207.3,131.4,207.3,131.3,207.3,131.3
				C207.3,131.3,207.3,131.3,207.3,131.3z"/>
			<path class="st3" d="M206.7,122.1C206.7,122.1,206.7,122.1,206.7,122.1c0.1,0,0.1,0,0.2-0.1C206.8,122,206.8,122,206.7,122.1z"/>
			<path class="st3" d="M176.5,117.5c0,0.3-0.3,0.7-0.2,0.8c0.3-0.5,0.4-1.4,0.3-1.7c0-0.1,0-0.1,0-0.2c-0.1,0.3-0.2,0.5-0.3,0.7
				C176.4,117.3,176.3,117.9,176.5,117.5z"/>
			<path class="st3" d="M176.7,116.3c0,0,0,0.1,0,0.1C176.7,116.4,176.7,116.3,176.7,116.3z"/>
			<path class="st3" d="M176.2,117.4c0.1-0.1,0.1-0.1,0.2-0.3C176.4,117,176.4,117.1,176.2,117.4z"/>
			<path class="st3" d="M179.9,119.5c0,0-0.1,0-0.1,0C179.8,119.5,179.8,119.5,179.9,119.5z"/>
			<path class="st3" d="M229.6,143.5c1-0.5,0.2,1.5,1.7,0.2l0.6-0.6c-0.1,0.3-0.5,0.8-0.6,1.1c0.4-0.4,0.5,0.2,0.9-0.4
				c-0.2,0.3-0.3,0.3-0.4,0.5c0.1,0.3,1-0.5,1-0.1l-0.3,0.2c0,1.8,0.5,3.5,2.4,2.8c0.4-0.1-0.6,0.9-0.5,0.9c1.7-0.5,1.1,2.1,3.3,0.9
				c0.9,0,2.8-1.8,2.8-1.8c-1.9-0.5-2.4-2.3-2.9-4.4c-0.6-0.2-1.4-0.4-1.6-1.1c-1.9-1.3-2.5-4.3-5-4.9c-0.1,0.3-0.5,0.7-0.7,0.7
				l0.1-0.2l-0.5,0.4c-0.2,0,0.4-0.7,0.5-0.7c-0.8-0.6-1.6-0.8-2.3-1.5c-0.6,0.8-0.4-0.2-1,0.6c0.1-0.2,0.1-0.2,0.3-0.3
				c-0.8,0.1-0.8,0.1-0.7-1.3c-1.3-1.6-3-2.3-4.6-3.3c0,0,0,0-0.1-0.1c0,0,0,0,0,0c-0.2-0.1-0.5-0.3-0.7-0.4c0-0.1,0.1-0.1,0.3-0.1
				c0,0.1,0.3,0.4,0.4,0.5c0-0.5,0-0.9-0.5-1.7c0.2,0.2,0.5,0.4,0.5,0.6c0.2-0.2,0.2-0.5-0.2-1.1c-0.4,0,0.3,0.3,0.2,0.4
				c-0.6-0.2-0.9-0.9-0.6-0.9l0.1,0.1c0.1-0.2-0.2-0.4,0-0.6c0.4,0.1,0.1,0.2,0.5,0.4c0.9,0.6,0.9,0,1,0.1c-0.2-0.2-0.3-0.4-0.5-0.5
				c-0.1-0.3,0.6,0.3,0.6,0.2l-1.4-1.7c0.1,0.2,0.9,0.5,1.1,0.9c0.1-0.4-0.8-1.4-1.2-2c0.2,0,0.1-0.6,0.1-0.7
				c0.5,0.3-0.1,0.1,0.2,0.4l0.7,0.3c-0.1,0.3,0.8,0.6,1.1,1c-0.2-0.4,0.5-0.5,0.8-0.6c-1.1-0.7-0.2-0.7-1.1-1.4
				c0.1-0.4,0.8,0.5,1.1,0.5c-0.1-0.6,0.4-0.6,0.5-1c0,0,0.1,0.1,0.2,0.2c-0.1-0.5,0.5-0.6,0-1.5c0.2,0.2,0.3,0.3,0.4,0.5
				c0.5,0-1.1-1-0.3-0.8l0.4,0.4c-0.2-0.5,0.7,0,0.2-0.8c0.2,0.2,0.3,0.3,0.4,0.4c0-0.4,0.3-0.5-0.2-1.2c0.3,0.2,0.5,0.5,0.6,0.7
				c0.5,0.1-0.6-0.9-0.1-0.8c0.1,0,0.5,0.2,0.5,0.3c-0.3-0.4-0.1-0.7-0.1-0.9c0.3,0.2,0.4,0.2,0.8,0.4c0.8-0.9,1.8-1.7,1.9-3.3
				c1,0.6,0.3,0.7,1,1.1c-0.7-0.7-0.1-0.3-0.1-0.8l0.1,0.1c0-0.3,0.5,0.1,0.4-0.2l-0.2-0.2c-0.4-0.6,1.2,0.5,0.3-0.4l0.6,0.4
				c-0.7-0.9,0.5,0-0.1-0.8l0.1,0.1c0.6,0.1-0.5-1.3,0.3-0.8c0-0.3,0.1-0.7-0.6-1.3c0.3,0.2,0.7,0.5,0.9,0.8c0.3-1,1.1-1.6,1-3.1
				l0.3,0.4c-0.2-1.1,1.5,0.1,0.6-1.6l-0.4-0.7c0.3,0.2,0.6,0.6,0.9,0.8c-0.2-0.5,0.3-0.4-0.1-1c0.2,0.2,0.2,0.4,0.4,0.5
				c0.3,0-0.2-1.1,0.1-1.1l0.2,0.3c1.8,0.4,3.8,0.2,3.4-1.8c0-0.4,0.8,0.7,0.8,0.6c-0.2-1.7,2.3-0.9,1.3-3.2
				c0.1-0.9-1.7-2.8-1.7-2.7c-0.4,1.7-2.1,1.9-4.2,1.8c-0.3,0.5-0.6,1.2-1.3,1.3c-0.9,0.8-2,1.1-3.3,1.7c-0.9,0.6-0.6-0.1-2.5,1.7
				c-0.4,0.4-0.7,0.8-0.9,1.4c0.3,0.1,0.6,0.5,0.7,0.7l-0.2-0.2l0.4,0.5c-0.1,0.2-0.6-0.4-0.6-0.6c-0.6,0.7-0.9,1.4-1.6,2
				c0.7,0.7-0.3,0.4,0.4,1.1c-0.2-0.1-0.2-0.2-0.3-0.3c-0.1,0.8-0.1,0.9-1.4,0.4c-2.2,1.2-3.4,3.5-5.3,5.2c-1.5,1.9-2.8,5.2-3.7,6.6
				c0.9,1.3,0.1,1.2,0.8,2.4l-0.3-0.3c0.3,0.7-0.4,0.3-1.1,0.2c0.2,0.2,0.2,0.2,0.2,0.3c-0.5-0.1-1-0.3-1.4-0.5
				c-1,1.2-1.2,0.3-2.1,1.3l0.2-0.4c-0.6,0.4-0.4-0.3-0.6-1c-0.2,0.5-0.2,0.1-0.6,0.9c-0.5,0.6,0.3-1.3-0.1-1
				c0.1-0.3-0.2,0.5-0.1,0.2c-1,0.7,0.3-0.4,0-1.5c-1.3-0.2-2.2,0.3-2.9-0.7c0.1,0-0.2,0.6-0.3,0.6c0.6-1.3-0.5,0.2-0.4-0.4
				c0.2-0.3,0.3-0.3,0.4-0.4c-0.1-0.7-0.9-0.2-0.9-0.9c-0.7,0.3-0.5-1-1.1-0.5c0.3-0.5,0-0.5,0.1-0.8c-1.1,1.3-0.4-0.9-1.3-0.1
				l0.2-0.3c-1.1-0.5-2-1.4-3.4-1.3c-0.7-0.2-0.6-1.9-1.6-1.6c-0.2,0.1-0.3,0.5-0.5,0.6c-0.1-0.1,0.3-0.5,0.3-0.7
				c-0.7,0.4-0.7-0.5-1.1-0.7c-0.2,0.2-0.3,0.2-0.5,0.6c0.1-1.3-1.3-0.2-1.3-1.2c-0.5,1.4-0.7,0.6-1,0.8c-0.1-0.1,0.1-0.5,0.3-0.7
				c-0.4,0-0.6-0.1-0.9-0.7c-0.3,0-0.7,0.7-0.8,0.4c0.3-1-0.5-0.3-0.5-0.7c-0.3,0.8-1,1.3-1,0.8l0.6-1.1c-1.1,0.3-1.5-1.5-3.1-0.5
				l0.3-0.7c-1.3,0.3-1.7-0.9-3.2-0.1c-0.1-0.5-0.3-0.9-0.6-1c-0.6,0.4-0.7,0.3-1.3,1.1c-0.1,0,0-0.6,0.1-0.8
				c-0.3-0.4-0.3-1.5-1.1-0.5l0.2-0.6c-0.6,0.4-1.3,0.9-1.4,0.1c-0.3,0.5-0.8,0.5-0.9,1.2c-0.2,0.1,0.3-1-0.1-0.5l0.5-0.8
				c-0.7-0.6-1.6-0.4-2.6-0.2c0.1-1.1-0.8-0.2-1.1-0.9c-0.5,0.5-0.7-0.5-1.3,0.7l0.2-0.6c-0.3-0.2-0.8-0.4-1.2-0.8
				c-0.3-0.2-0.5,0.6-0.8,0.9l0.1-0.6c-0.3,0.3-0.6,1.2-0.9,1.8c-0.1-0.5-0.2,0-0.3-0.5c0.3-0.3,0.6-0.9,0.9-1.7
				c-0.3-0.3-0.9,1.1-0.9,0.1c-0.2-0.3-0.5-0.1-0.6,0.7c0.1-0.3-0.1-0.5,0.1-0.8c-0.2,0-0.4,0-0.5,0.4c0,0,0.1,0.1,0.1,0.1
				c-0.2,0.6-0.4,0.6-0.5,1.5c0.1-0.2,0.2-0.4,0.3-0.3c-0.2,0.6-0.5,0.8-0.5,0.2c0-0.7,0.4-1,0.3-1.5l-0.6,1.4
				c0.1-0.1,0.2,0.3,0.1,0.8l0.2-0.4l-0.1,0.7c0.4-0.2,0.4,0.5,0.9,0l0-0.7c0.2,0,0.6-0.9,0.6,0c-0.1,0.2-0.1,0.6-0.2,1
				c0.1-0.1,0.2-0.4,0.2-0.2l-0.3,1.1c0.4-1.5,0.6-0.4,0.8-0.7l-0.1,0.2c0.2,0.5,0.1-0.6,0.3-0.6c0.1,0.2-0.2,1.2-0.2,1.7
				c0.3,0,1-0.7,1.1,0.3c0.3-0.1,0.7-0.4,1.1-0.9c0.2,0.1-0.4,1.2,0,0.7c-0.2,0.4-0.3,0.8-0.4,1.2c0.2-0.4,0.4,0.2,0.5-0.9
				c0.3,0.3,0.6,0.5,1,0.5c-0.1,0-0.4,0.7-0.5,1.1c0.4-0.6,0.8-0.9,1-0.6c0.3-0.7,0.2-0.7,0.5-1.4c0.1-0.1,0.3-0.4,0.3-0.3
				c-0.2,0.8-0.7,1.9-0.4,2c-0.5,1.1-0.4-0.3-0.7,0.9c-0.5,0.9-0.9,0.8-0.8,0.2c-0.6,0.9,0.1,0.2-0.3,1.1c0.2,0,0.5-0.5,0.9-0.5
				c0.2-0.5,0.1-0.6,0.4-1c0.7-0.9,0.1,0.9,0.1,0.9l-0.2,0.2c0,0.4,0.4-0.2,0.5-0.1c-0.5,1.3-0.4,0-0.8,0.8l-0.2,1
				c0.2,0.2,0.5-1.1,0.7-0.6l-0.2,0.5l0.3-0.2c0.2-0.5,0.5-1.2,0.3-1.2c0.6-1.2,0.2-0.1,0.6-0.3c0.4-0.7-0.1,0,0.1-0.7
				c0.2-0.7,0.4-0.6,0.6-0.7c0.2,0.1-0.2,0.8-0.3,1.3c-0.1,0.1-0.3,0.1-0.1-0.3c-0.6,0.6-0.5,1.5-0.9,2c0,0.5,0.4-0.3,0.6-0.5
				c0-0.1,0.3-0.7,0.4-1c1.2-1.8-0.4,1.5,0.1,1.3c0.5-1.3,1.2-1.5,1.5-3c0.2-0.2,0.4-0.4,0.4-0.3c-0.5,0.8-0.1,0.7-0.6,1.5l0.1,0.1
				l-0.6,0.9c-0.1,0.6-0.1,1.3-0.2,1.7c0.3-0.3,0.3-0.8,0.6-1c-0.3,0.4-0.3,0.8-0.2,0.9c0-0.4,0.5-1.2,0.7-1.3
				c0.2,0.1,0,0.9-0.1,1.1l-0.5,0.6c0.4-0.6-0.1,0.3,0.2,0.1c0.2-0.4,0.7-1.1,1-1.7c0.2-0.1,0,0.5,0.1,0.4l-0.4,0.4
				c0.3-0.1-0.5,1.3-0.1,1.1l0.4-0.6c0,0.1-0.1,0.4-0.3,0.7c0.2-0.4,0.3-0.3,0.5-0.4l-0.2,0.4c0.2-0.2,0.8-1.1,0.5-0.2
				c0.4-1.1-0.1-0.1-0.1-0.6c0.2-0.8,0.5-0.6,0.6-0.7c-0.5,1.1,0.2,0.2,0.3,0.3c-0.1,0.4-0.1,0.6-0.2,0.9l0.4-0.7
				c-0.6,1.4,0.4-0.2,0.3,0.3c-0.3,0.4-0.5,1-0.5,1.2c0.4-1.1,0.8-1.2,1.1-1.9c0.1,0.5-0.7,1.3-1,2.1c0.5-0.8,0,0.7,0.6-0.3
				c0-0.4,0.3-0.7,0.6-1.1c0.2,0.2-0.3,0.4-0.3,0.9c0.2-0.1,0.7-0.8,0.7-1.2c0,0.3,0.7-0.6,0.5,0.1c-0.3,0.7-0.4,0.2-0.6,0.7
				c0.3,0.2,0.9-1.5,1.4-1.6c0-0.4,0.7-1.5,1.1-1.8c0.2,0.5-0.3,0.3-0.6,1.2l0.2-0.1c-0.4,1.2-1.3,1.7-1.6,2.7l0.3-0.3
				c-0.2,0.3-0.5,0.9-0.6,1.2c0.4-0.8,0.4,0,0.5-0.2c0.4-0.7-0.2,0.1,0.1-0.4c0.2-0.1,0.9-1.2,0.9-0.7c-0.4,0.4-0.4,0.9-0.7,1.3
				c0,0.3,0.4-0.8,0.4-0.3l-0.2,0.4c0.5,0.4,1.3,0.7,2.7-0.6c-0.2,0.7-0.1,0.9,0,1.5c0-0.3,0.4-0.7,0.5-0.7l-0.3,0.8
				c-0.1,0.5,0.6-0.1,0.9-0.4l-0.2,0.6c-0.1,0.6,0.4-0.3,0.5-0.5l-0.2,0.6l0.3-0.5c0.3-0.2,0.5,0,0,0.9c0.1-0.1,0.3-0.3,0.4-0.6
				c-0.1,0.6,0.3,0.8,0.8,0.7c0-0.3,0.1-0.5,0.4-1.1c0.5-0.9,0,0.2,0.4-0.3c-0.2,0.3-0.2,0.8-0.5,0.9c-0.3,1.4,0.8,0.7,1.1,1.2
				c0.2-0.1,0.2-0.3,0.4-0.5c-0.2,1.1,0.7,0.3,0.8,0.9c0.1-0.4,0.8-1.4,1-1.4c0.6-0.6-0.5,1.1-0.6,1.6c0.3-0.3,0.5-0.3,0.5-0.2
				l-0.1,0.1c0.3-0.3,0.6-0.5,0.6-0.1l0,0c0.1,0.1-0.1,0.7,0.1,0.7c0.4-0.7,0.5-0.1,0.9-0.7c0,0.1-0.1,0.1-0.1,0.3l0.3-0.6l0,0.5
				c-0.2,0.2-0.3,0.5-0.5,0.6c0,0.5,0.4-0.5,0.7-0.8c0.4-0.3,0.1,0.2,0,0.5c-0.2,0.3,0-0.2-0.1-0.1c-0.4,0.4,0,0.2-0.2,0.6
				c0,0,0.4-0.7,0.5-0.5c0.1,0.1,0.4,0.1,0,0.7c0.3-0.3,0.3-0.2,0.6-0.4c0-0.2-0.1-0.4,0.1-0.8c0.1,0,0.4-0.1,0.2,0.2l-0.2,0.1
				c0.2-0.1,0.3,0.2,0.5-0.5l-0.3,0.9c0.3-0.5,0.5-0.3,0.7-0.4c-0.4,0.7-0.9,1.3-0.7,1.6l0.6-0.6c0.1,0,0.1,0.2-0.1,0.5
				c0.2,0.6,1.4-1.6,1.4-0.8c-0.6,0.7-0.5,0.8-0.5,1.1c0.1-0.1,0.2-0.4,0.3-0.4c0.2-0.4-0.4,0.5-0.2-0.1c0.2-0.5,0.3-0.3,0.5-0.4
				c-0.7,1.8,0.6,0.9,0.6,2c0.5-1,0.3-0.2,0.6-0.5c-0.6,1,0.3,0,0.1,0.6l0.5-1c-0.1,0.7,1.3-1.2,0.8,0c0,0.4-0.5,0.7-0.6,0.8
				c-0.4,1.2,1-0.6,0.5,0.7c0.2-0.4,0.5-1.1,0.9-1.3c-0.1,0.5-0.1,1.2-0.2,1.3c0.2-0.1,0.4-0.4,0.4,0c-0.2,0.2-0.2,0.2-0.3,0.3
				c0.1,0.4,0.5,0,0.9-0.2c-0.3,0.8,0.3,0.6,0.3,1.2c0.6-0.9,0.3,0.6,0.9-0.6l-0.1,0.4c0.3-0.3,0.8-1,0.9-1l-0.4,0.8
				c-0.5,1,0.3,0.4,0,0.9c0.2-0.7,0.1,0.1,0.4-0.5l0.3-0.2c0.3-0.1,0.2-0.4,0.5-0.4c0.2,0-0.4,1-0.4,0.8c-0.1,0.5,0.2,0.3,0.4,0.2
				c0,0,0-0.1,0.1-0.2c0,0.1-0.1,0.2-0.1,0.2c0.1,0,0.2-0.1,0.2-0.1c0,0,0,0,0,0c-0.1,0-0.1,0-0.2,0c0,0.1,0,0.1,0.1,0.1
				c0,0.1,0,0.1,0,0c0,0,0.1,0.1,0,0.2l-0.3,0.6c0.1,0.1,0.7-0.5,0.8-0.8c0,0.1,0,0.1,0.1,0.2c-0.8,0.9-1.8,1.5-2.2,2.9
				c-0.4,0.7-2.1,0.2-2.1,1.4c0.1,0.3,0.4,0.4,0.5,0.6c-0.2,0.1-0.4-0.4-0.6-0.4c0.2,0.8-0.7,0.6-1.1,1c0.2,0.2,0.1,0.4,0.5,0.6
				c-1.2-0.3-0.6,1.3-1.6,1.2c1.3,0.8,0.4,0.8,0.5,1.2c-0.1,0-0.4-0.2-0.6-0.4c-0.1,0.4-0.3,0.6-0.9,0.8c0,0.3,0.6,0.8,0.2,0.9
				c-0.9-0.5-0.4,0.5-0.9,0.4c0.7,0.5,1.1,1.2,0.6,1.2l-0.9-0.8c0.2,1.1-2,1.7-1,2.9l-0.6-0.4c0,1.3-1.3,1.5-0.9,3.2
				c-0.5,0-0.9,0.1-1.1,0.3c0.3,0.7,0.1,0.7,0.7,1.6c0,0.1-0.5-0.2-0.8-0.3c-0.4,0.2-1.5-0.1-0.8,0.9l-0.5-0.4
				c0.3,0.7,0.5,1.6-0.3,1.4c0.4,0.4,0.3,0.9,0.9,1.2c0,0.2-0.9-0.6-0.5,0l-0.6-0.7c-0.7,0.6-0.9,1.4-1.1,2.4
				c-1-0.5-0.4,0.7-1.2,0.7c0.3,0.6-0.7,0.5,0.2,1.5l-0.5-0.4c-0.3,0.2-0.6,0.7-1.2,0.8c-0.3,0.1,0.4,0.7,0.5,1.1l-0.5-0.4
				c0.1,0.4,0.8,1.1,1.3,1.6c-0.5-0.1-0.1,0.2-0.6,0.1c-0.1-0.4-0.6-0.9-1.1-1.6c-0.4,0.1,0.6,1.3-0.2,0.9c-0.4,0.1-0.3,0.4,0.3,0.9
				c-0.2-0.2-0.5-0.2-0.7-0.5c-0.1,0.2-0.1,0.3,0.1,0.6c0,0,0.1,0,0.1-0.1c0.4,0.5,0.3,0.6,1,1.2c-0.1-0.2-0.2-0.3-0.1-0.4
				c0.5,0.5,0.4,0.8-0.1,0.5c-0.6-0.4-0.7-0.9-1.1-1l0.8,1.3c-0.1-0.2,0.3-0.1,0.7,0.3l-0.2-0.4l0.5,0.4c0-0.4,0.7-0.2,0.5-0.8
				l-0.6-0.3c0.1-0.2-0.5-1,0.3-0.6c0.1,0.2,0.4,0.4,0.7,0.6c-0.1-0.1-0.2-0.3-0.1-0.3l0.8,0.8c-1.1-1.1-0.1-0.8-0.2-1.1l0.1,0.2
				c0.6,0.1-0.5-0.4-0.4-0.6c0.3,0,1,0.8,1.5,0.9c0.2-0.3-0.1-1.3,0.8-1c0-0.4-0.1-0.9-0.3-1.4c0.2-0.2,0.9,0.8,0.7,0.2
				c0.3,0.3,0.7,0.5,1,0.8c-0.3-0.3,0.4-0.3-0.6-0.8c0.4-0.2,0.8-0.4,0.9-0.9c0,0.1,0.5,0.7,0.9,0.8c-0.4-0.6-0.6-1.1-0.2-1.3
				c-0.6-0.5-0.7-0.4-1.2-0.9c-0.1-0.1-0.3-0.4-0.2-0.4c0.6,0.5,1.6,1.2,1.8,1c0.9,0.9-0.4,0.3,0.6,1c0.7,0.7,0.4,1.2-0.2,0.9
				c0.6,0.9,0.2-0.1,1,0.6c0.1-0.2-0.3-0.7-0.1-1.1c-0.4-0.3-0.5-0.3-0.8-0.7c-0.6-1,0.9,0.2,1,0.1l0.1,0.3c0.4,0.1-0.1-0.5,0.1-0.6
				c1.1,0.9-0.1,0.4,0.5,1l0.9,0.5c0.3-0.2-0.8-0.8-0.3-0.9l0.4,0.4l-0.1-0.4c-0.4-0.3-1.1-0.8-1.1-0.6c-1-1,0-0.3,0-0.7
				c-0.5-0.6,0,0.2-0.6-0.3c-0.6-0.4-0.4-0.6-0.4-0.8c0.2-0.2,0.7,0.4,1.2,0.7c0.1,0.1,0,0.3-0.3,0c0.4,0.8,1.3,0.9,1.6,1.4
				c0.5,0.1-0.2-0.5-0.3-0.7c-0.1,0-0.6-0.5-0.8-0.7c-1.4-1.7,1.4,0.8,1.3,0.2c-1.1-0.8-1.1-1.6-2.4-2.3c-0.1-0.2-0.3-0.5-0.1-0.5
				c0.6,0.7,0.7,0.3,1.2,1l0.1-0.1l0.7,0.9c0.6,0.3,1.2,0.5,1.6,0.7c-0.2-0.4-0.7-0.5-0.7-0.8c0.3,0.4,0.7,0.5,0.8,0.4
				c-0.4-0.1-1-0.8-1.1-1.1c0.1-0.2,0.9,0.2,1,0.4l0.5,0.7c-0.4-0.6,0.3,0.2,0.2-0.1c-0.4-0.4-0.9-0.9-1.4-1.4
				c-0.1-0.3,0.5,0.1,0.4,0l0.3,0.5c0-0.4,1.1,0.8,1,0.4l-0.5-0.5c0.1,0,0.4,0.2,0.6,0.4c-0.4-0.4-0.2-0.4-0.3-0.6l0.4,0.3
				c-0.2-0.3-0.9-1.1-0.1-0.6c-1-0.6-0.1,0.1-0.6-0.1c-0.7-0.4-0.5-0.7-0.5-0.8c0.9,0.8,0.3-0.2,0.4-0.3c0.4,0.2,0.6,0.3,0.8,0.4
				l-0.6-0.6c1.2,1-0.1-0.5,0.4-0.3c0.3,0.4,0.8,0.8,1.1,0.8c-1-0.6-1-1.1-1.6-1.6c0.5,0,1.1,1,1.8,1.4c-0.6-0.7,0.7,0.1-0.2-0.7
				c-0.4-0.1-0.6-0.5-0.9-0.9c0.2-0.2,0.4,0.4,0.8,0.5c-0.1-0.2-0.6-0.9-1-1c0.3,0-0.4-0.8,0.2-0.5c0.6,0.4,0,0.5,0.5,0.7
				c0.3-0.3-1.3-1.3-1.2-1.7c-0.4-0.1-1.3-1.1-1.5-1.5c0.5-0.1,0.2,0.4,1,0.9l0-0.2c1.1,0.6,1.3,1.7,2.3,2.2l-0.2-0.4
				c0.3,0.3,0.7,0.7,1,0.9c-0.7-0.6,0.1-0.4-0.1-0.6c-0.6-0.5,0.1,0.2-0.4-0.1c0-0.3-1-1.1-0.4-1c0.3,0.5,0.8,0.6,1.1,0.9
				c0.4,0-0.9-0.3,0-0.8c0,0.2,0.5-0.1,0.1,0.6c1-1.1,1.1-1.3,0.1-3.1c0.7,0.4,0.9,0.2,1.5,0.3c-0.3,0-0.6-0.5-0.6-0.6l0.8,0.4
				c0.5,0.2,0-0.6-0.2-1l0.5,0.4c0.6,0.2-0.3-0.5-0.4-0.6l0.6,0.3l-0.4-0.4c-0.2-0.4,0.1-0.4,0.9,0.2c-0.1-0.2-0.2-0.3-0.5-0.5
				c0.6,0.2,0.9-0.1,0.8-0.6c-0.3,0-0.5-0.2-1-0.6c-0.8-0.7,0.2,0.1-0.2-0.4c0.3,0.2,0.7,0.4,0.8,0.7c1.3,0.5,0.9-0.6,1.4-0.9
				c0-0.2-0.2-0.3-0.4-0.5c1,0.4,0.5-0.6,1.1-0.6c-0.4-0.2-1.2-1.1-1.1-1.3c-0.5-0.7,0.9,0.7,1.5,0.9c-0.2-0.3-0.2-0.6-0.1-0.6
				l0.1,0.1c-0.3-0.4-0.3-0.7,0.1-0.6l0,0.1c0.1,0,0.6,0.2,0.7,0.1c-0.5-0.6,0-0.5-0.4-1c0.1,0.1,0.1,0.1,0.2,0.2l-0.5-0.5l0.5,0.1
				c0.2,0.2,0.4,0.4,0.4,0.6c0.5,0.1-0.4-0.5-0.6-0.9c-0.2-0.5,0.3,0,0.5,0.1c0.2,0.3-0.2,0-0.2,0.1c0.3,0.5,0.2,0.1,0.5,0.3
				c0,0-0.5-0.6-0.3-0.6c0.1,0,0.2-0.4,0.7,0.2c-0.2-0.3-0.1-0.4-0.2-0.7c-0.2,0-0.4,0-0.8-0.3c0-0.1,0-0.4,0.2-0.2l0.1,0.2
				c-0.1-0.2,0.3-0.2-0.3-0.6l0.8,0.5c-0.4-0.4-0.2-0.6-0.2-0.8c0.5,0.5,1.1,1.2,1.4,1.1l-0.4-0.7c0-0.1,0.2,0,0.5,0.3
				c0.6,0-1.2-1.8-0.4-1.6c0.5,0.7,0.7,0.7,1,0.8c-0.1-0.1-0.3-0.3-0.3-0.4c-0.3-0.3,0.4,0.5-0.1,0.2c-0.4-0.4-0.2-0.4-0.2-0.5
				c1.6,1.2,1.1-0.4,2.1-0.1c-0.8-0.7-0.1-0.4-0.3-0.7c0.8,0.8,0.1-0.3,0.6,0l-0.8-0.7c0.7,0.2-0.8-1.6,0.3-0.7
				c0.4,0.1,0.5,0.6,0.6,0.8c1,0.7-0.2-1.2,0.9-0.3c-0.3-0.3-0.9-0.8-1-1.2c0.5,0.2,1.1,0.4,1.2,0.6c-0.1-0.3-0.3-0.5,0.1-0.4
				c0.2,0.2,0.2,0.3,0.2,0.4c0.3,0,0.2-0.4,0.1-0.8c0.3,0,0.4,0.3,0.7,0.3c0,0-0.1,0.1-0.1,0.2c0.4-0.2,0.7,0.4,1.4-0.4
				c-0.1,0.2-0.2,0.4-0.4,0.5c0.1,0.5,0.8-1.2,0.8-0.4l-0.4,0.4c0.5-0.3,0.1,0.7,0.8,0.1c-0.2,0.3-0.3,0.3-0.4,0.4
				c0.3-0.1,0.5,0.2,1.1-0.4c-0.2,0.3-0.4,0.6-0.6,0.8c0,0.5,0.7-0.7,0.7-0.3c0,0.1-0.1,0.5-0.2,0.5c0.4-0.4,0.6-0.2,0.8-0.3
				c-0.2,0.3-0.2,0.5-0.3,0.9c1,0.6,1.9,1.4,3.4,1.2c-0.5,1.1-0.6,0.4-1,1.2c0.5-0.8,0.3-0.1,0.8-0.2l-0.1,0.1
				c0.2-0.1,0,0.5,0.3,0.3l0.1-0.2c0.5-0.4-0.4,1.3,0.4,0.3l-0.3,0.6c0.8-0.8,0,0.4,0.7-0.2l-0.1,0.1c-0.1,0.6,1.2-0.6,0.7,0.1
				c0.3,0,0.6,0,1.2-0.7c-0.1,0.3-0.5,0.7-0.7,0.9c1,0.2,1.7,1,3,0.5L229.6,143.5z M207.8,133.7c0,0-0.1,0-0.1,0
				C207.8,133.7,207.8,133.7,207.8,133.7z"/>
			<path class="st3" d="M176.5,116.3c-0.1,0.2-0.2,0.4-0.2,0.4c0,0.3,0.1-0.1,0.2-0.1C176.5,116.5,176.5,116.1,176.5,116.3z"/>
			<path class="st3" d="M176.9,117.6c0.2,0,0.5-0.2,0.7-0.7L176.9,117.6z"/>
			<path class="st3" d="M178,119.1c-0.1,0.2-0.2,0.3-0.3,0.5C177.8,119.7,177.9,119.5,178,119.1z"/>
			<path class="st3" d="M178.4,118.2c-0.2,0.6,0,0.3,0,0.4C178.5,118.4,178.5,118.2,178.4,118.2z"/>
			<path class="st3" d="M178.4,118.6c0,0,0,0.1,0,0.1C178.4,118.6,178.4,118.6,178.4,118.6z"/>
			<path class="st3" d="M180.2,120.3c-0.3,0.6,0.3-0.2,0.2,0.2C180.6,120,180.3,120.3,180.2,120.3z"/>
			<path class="st3" d="M181.6,120.1l-0.2,0.5C181.5,120.7,181.7,120.4,181.6,120.1C181.6,120.3,181.6,120.2,181.6,120.1z"/>
			<polygon class="st3" points="202.1,128.7 201.9,129.1 202.1,128.9 			"/>
			<path class="st3" d="M188.3,160.5c-0.3-0.1-0.1,0.1,0.1,0.4C189,160.9,188.3,160.8,188.3,160.5z"/>
			<path class="st3" d="M196.8,159.9c0-0.1-0.1-0.2-0.1-0.3C196.6,159.5,196.6,159.6,196.8,159.9z"/>
			<path class="st3" d="M200.4,156.6c0,0,0,0.1,0,0.1C200.4,156.7,200.4,156.7,200.4,156.6z"/>
			<path class="st3" d="M201.3,139.6c0,0,0.1,0.1,0.1,0.1c0-0.1,0-0.1,0.1-0.2L201.3,139.6z"/>
			<path class="st3" d="M189.5,159.7c0,0,0-0.1-0.1-0.1C189.4,159.6,189.5,159.6,189.5,159.7z"/>
			<path class="st3" d="M196.7,159.5c0.2,0,0.7,0.4,0.4,0c0.2,0.1,0.5,0.5,0.6,0.5c-0.3-0.4-1.1-0.9-1.5-0.9c-0.1,0-0.1-0.1-0.1-0.1
				C196.4,159.2,196.5,159.4,196.7,159.5z"/>
			<path class="st3" d="M196.1,159.1c0,0-0.1-0.1-0.1-0.1C196,159,196.1,159,196.1,159.1z"/>
			<path class="st3" d="M190.2,161.1c0,0,0,0.1,0.1,0.2L190.2,161.1z"/>
			<path class="st3" d="M189.6,161c-0.4-0.5-0.8-0.6-1.2-0.8C188.8,160.4,189.3,160.7,189.6,161z"/>
			<path class="st3" d="M195.9,159.2c0.1,0.2,0.3,0.3,0.3,0.4c0.2,0.1,0-0.2,0-0.3C196.1,159.3,195.8,159.1,195.9,159.2z"/>
			<path class="st3" d="M197.4,159.2c0.1-0.2,0-0.6-0.3-0.9L197.4,159.2z"/>
			<path class="st3" d="M199.3,158.5c0.1,0.2,0.2,0.3,0.4,0.4C199.8,158.8,199.6,158.6,199.3,158.5z"/>
			<path class="st3" d="M199,157.9c0,0,0.1,0,0.1,0.1C199,157.9,199,157.9,199,157.9z"/>
			<path class="st3" d="M198.5,157.8c0.5,0.4,0.3,0.1,0.4,0.1C198.8,157.8,198.6,157.7,198.5,157.8z"/>
			<path class="st3" d="M201.6,156.2c-0.4-0.3-0.2,0.1-0.2,0.2C201.8,156.9,201.3,156.1,201.6,156.2z"/>
			<path class="st3" d="M202.1,155.3c0-0.1-0.2-0.3-0.4-0.4c0.1,0.1,0,0.1-0.1,0.1L202.1,155.3z"/>
			<polygon class="st3" points="215.8,136.3 215.7,136.1 215.5,136 			"/>
			<path class="st3" d="M223.1,128.2c0.1-0.2,0.4,0.3,0.5,0.2C223.5,128.4,223,127.9,223.1,128.2z"/>
			<polygon class="st3" points="225,122.4 224.3,121.8 224.9,122.4 			"/>
			<path class="st3" d="M334,101.7C334,101.7,334,101.7,334,101.7c0.1,0,0.1,0,0.2-0.1C334.2,101.6,334.1,101.6,334,101.7z"/>
			<path class="st3" d="M309.5,92.5l0.4-0.6c0.2,0.1,0.9-0.5,0.5,0.3c-0.2,0.1-0.4,0.4-0.6,0.7c0.1-0.1,0.3-0.2,0.3-0.1l-0.8,0.8
				c1.1-1.1,0.8,0,1.1-0.2l-0.2,0.2c0,0.6,0.3-0.6,0.5-0.5c0,0.2-0.7,1.1-0.8,1.6c0.3,0.2,1.2-0.3,1,0.7c0.3,0,0.8-0.2,1.3-0.6
				c0.2,0.1-0.6,1-0.2,0.7c-0.2,0.3-0.4,0.7-0.6,1.1c0.3-0.4,0.3,0.3,0.7-0.7c0.2,0.4,0.5,0.6,0.9,0.6c-0.1,0-0.5,0.6-0.6,1
				c0.5-0.6,0.9-0.8,1.1-0.5c0.4-0.7,0.3-0.7,0.7-1.3c0.1-0.1,0.3-0.3,0.4-0.3c-0.4,0.7-1,1.7-0.8,1.9c-0.7,1-0.3-0.3-0.8,0.8
				c-0.6,0.8-1,0.6-0.8,0.1c-0.7,0.8,0.1,0.2-0.5,1.1c0.2,0,0.6-0.4,0.9-0.4c0.3-0.5,0.2-0.6,0.6-0.9c0.8-0.8-0.2,0.8-0.1,0.9
				l-0.2,0.2c-0.1,0.4,0.3-0.2,0.4-0.1c-0.8,1.2-0.3,0-0.8,0.7l-0.5,0.9c0,0.2,0.7-0.9,0.6-0.6l-0.3,0.4l0.3-0.2
				c0.3-0.4,0.8-1.1,0.6-1.1c0.2-0.2,0.3-0.3,0.4-0.4c0,0.1,0.1,0.3,0.6,0.5c0.8-0.4-0.7-0.3-0.1-0.9c0.3-0.6,1.1-0.1,1-0.4
				c0.2,0.1-0.3,0.8-0.5,1.3c-0.1,0.1-0.3,0.1-0.1-0.3c-0.6,0.6-0.7,1.5-1.1,1.9c0,0.5,0.4-0.3,0.6-0.5c0-0.1,0.4-0.7,0.5-0.9
				c1.4-1.7-0.5,1.5,0,1.3c0.6-1.2,1.3-1.4,1.8-2.8c0.2-0.2,0.4-0.4,0.4-0.2c-0.5,0.8-0.2,0.7-0.8,1.4l0.1,0.1l-0.7,0.9
				c-0.2,0.6-0.3,1.3-0.4,1.7c0.4-0.3,0.4-0.8,0.7-0.9c-0.3,0.4-0.4,0.8-0.3,0.8c0-0.4,0.6-1.1,0.8-1.3c0.2,0.1-0.1,0.9-0.2,1.1
				l-0.5,0.6c0.5-0.5-0.1,0.3,0.1,0.2c0.3-0.4,0.7-1.1,1.1-1.6c0.2-0.1,0,0.5,0.1,0.4l-0.4,0.4c0.3-0.1-0.6,1.3-0.2,1.1l0.4-0.6
				c0,0.1-0.1,0.4-0.3,0.6c0.3-0.4,0.4-0.3,0.5-0.4l-0.2,0.4c0.2-0.2,0.9-1.1,0.5-0.2c0.5-1-0.1-0.1,0-0.6c0.3-0.8,0.5-0.6,0.6-0.7
				c-0.6,1.1,0.2,0.2,0.3,0.3c-0.1,0.4-0.2,0.6-0.3,0.9l0.4-0.7c-0.7,1.4,0.4-0.2,0.3,0.3c-0.3,0.4-0.6,0.9-0.6,1.2
				c0.4-1.1,0.9-1.2,1.3-1.9c0,0.5-0.8,1.3-1.1,2c0.6-0.7,0,0.7,0.6-0.3c0-0.4,0.4-0.6,0.7-1.1c0.2,0.2-0.3,0.4-0.3,0.9
				c0.2-0.1,0.7-0.8,0.7-1.2c0,0.3,0.7-0.6,0.5,0.1c-0.3,0.7-0.4,0.1-0.6,0.6c0.3,0.2,1-1.5,1.4-1.6c0.1-0.4,0.8-1.5,1.2-1.8
				c0.1,0.4-0.3,0.3-0.7,1.2l0.2-0.1c-0.5,1.2-1.4,1.6-1.7,2.6l0.3-0.3c-0.2,0.3-0.6,0.8-0.7,1.2c0.5-0.8,0.4,0,0.5-0.2
				c0.4-0.6-0.2,0.1,0.1-0.4c0.2-0.1,0.9-1.2,0.9-0.6c-0.4,0.4-0.5,0.9-0.7,1.3c0,0.3,0.5-0.8,0.4-0.3l-0.2,0.4
				c0.5,0.4,1.2,0.7,2.6-0.6c-0.3,0.7-0.1,0.9-0.1,1.5c0-0.3,0.4-0.7,0.5-0.7l-0.3,0.8c-0.1,0.5,0.5-0.1,0.9-0.4l-0.3,0.6
				c-0.1,0.6,0.4-0.3,0.5-0.5l-0.2,0.6l0.3-0.5c0.3-0.2,0.4,0-0.1,0.9c0.1-0.1,0.3-0.3,0.4-0.5c-0.1,0.6,0.2,0.8,0.6,0.7
				c0-0.3,0.2-0.5,0.5-1.1c0.6-0.9,0,0.2,0.4-0.3c-0.2,0.3-0.3,0.7-0.5,0.9c-0.3,1.4,0.7,0.7,0.9,1.2c0.2-0.1,0.2-0.3,0.4-0.5
				c-0.3,1.1,0.6,0.3,0.7,0.9c0.2-0.4,0.9-1.4,1.1-1.3c0.6-0.6-0.5,1.1-0.7,1.6c0.3-0.3,0.5-0.3,0.5-0.2l-0.1,0.1
				c0.3-0.3,0.6-0.5,0.5-0.1l0,0c0.1,0.1-0.1,0.6,0,0.6c0.5-0.7,0.4-0.1,0.9-0.7c0,0.1-0.1,0.1-0.1,0.3l0.4-0.6l0,0.4
				c-0.2,0.2-0.3,0.5-0.5,0.6c0,0.5,0.4-0.5,0.7-0.7c0.4-0.3,0,0.2,0,0.5c-0.2,0.3,0-0.2-0.1-0.1c-0.4,0.4,0,0.2-0.2,0.6
				c0,0,0.5-0.7,0.5-0.5c0.1,0.1,0.4,0.1,0,0.7c0.3-0.3,0.3-0.2,0.6-0.4c0-0.2,0-0.4,0.2-0.8c0.1,0,0.4-0.1,0.2,0.2l-0.2,0.1
				c0.2-0.1,0.2,0.2,0.5-0.5l-0.4,0.9c0.4-0.4,0.5-0.3,0.7-0.4c-0.4,0.6-1,1.3-0.8,1.6l0.6-0.5c0.1,0,0.1,0.2-0.2,0.5
				c0.1,0.6,1.5-1.5,1.4-0.8c-0.6,0.7-0.6,0.8-0.6,1.1c0.1-0.1,0.3-0.4,0.3-0.4c0.2-0.4-0.4,0.5-0.2-0.1c0.3-0.5,0.3-0.2,0.5-0.4
				c-0.7,1.8,0.3,0.7,0.6,2c0.5-1,0.3-0.2,0.6-0.5c-0.6,1,0.3,0,0.1,0.6l0.5-1c-0.1,0.7,1.2-1.2,0.7,0c0,0.4-0.4,0.7-0.6,0.8
				c-0.4,1.2,1-0.6,0.5,0.7c0.2-0.4,0.5-1.1,0.9-1.3c-0.1,0.5-0.2,1.2-0.3,1.3c0.2-0.1,0.4-0.4,0.3,0c-0.2,0.2-0.2,0.3-0.3,0.3
				c0,0.4,0.4,0,0.8-0.2c-0.3,0.8,0.2,0.6,0.2,1.1c0.6-0.8,0.1,0.6,0.8-0.6l-0.2,0.4c0.3-0.3,0.8-1,0.9-1l-0.5,0.7
				c-0.6,1,0.2,0.4-0.1,0.9c0.3-0.7,0.1,0.1,0.5-0.5l0.3-0.2c0.3-0.1,0.2-0.4,0.5-0.3c0.2,0-0.5,0.9-0.5,0.8
				c-0.1,0.5,0.1,0.3,0.3,0.2c0,0,0-0.1,0.1-0.2c-0.1,0.1-0.1,0.2-0.1,0.2c0.1,0,0.2-0.1,0.2,0c0,0,0,0,0,0c-0.1,0-0.1,0-0.2,0
				c0,0.1,0,0.1,0.1,0.1c0,0.1,0,0.1,0,0c0,0,0,0.1,0,0.2l-0.4,0.6c0,0,0.3-0.1,0.5-0.3c-0.3,0.6-1.2,1-0.5,2.2l-0.7-0.3
				c0.3,1.2-0.9,1.5-0.1,2.9c-0.5,0-0.8,0.2-1,0.4c0.4,0.6,0.3,0.6,1,1.3c0,0.1-0.5-0.1-0.8-0.2c-0.4,0.2-1.4,0-0.6,0.9l-0.5-0.3
				c0.4,0.6,0.8,1.3,0.1,1.3c0.4,0.4,0.4,0.8,1.2,1c0,0.2-1-0.4-0.5,0l-0.7-0.6c-0.6,0.5-0.5,1.4-0.4,2.3c-1-0.3-0.2,0.7-0.9,0.8
				c0.4,0.5-0.5,0.5,0.5,1.3l-0.6-0.3c-0.2,0.3-0.4,0.7-0.9,0.9c-0.3,0.1,0.5,0.6,0.7,0.9L334,127c0.2,0.4,1.1,0.9,1.6,1.2
				c-0.5,0-0.1,0.2-0.5,0.1c-0.2-0.3-0.8-0.7-1.5-1.2c-0.4,0.1,0.9,1.1,0,0.8c-0.3,0.1-0.2,0.4,0.6,0.8c-0.2-0.2-0.5-0.1-0.8-0.4
				c-0.1,0.2,0,0.3,0.2,0.5c0,0,0.1,0,0.1-0.1c0.5,0.4,0.4,0.5,1.3,0.9c-0.2-0.2-0.3-0.3-0.2-0.3c0.6,0.3,0.6,0.7,0,0.5
				c-0.6-0.2-0.9-0.7-1.3-0.7l1.1,1c-0.1-0.2,0.3-0.1,0.7,0.2l-0.3-0.3l0.6,0.3c-0.1-0.4,0.6-0.3,0.3-0.8l-0.7-0.2
				c0.1-0.2-0.7-0.8,0.1-0.5c0.2,0.2,0.5,0.3,0.9,0.5c-0.1-0.1-0.3-0.3-0.2-0.3l1,0.6c-1.3-0.8-0.3-0.7-0.5-0.9l0.2,0.1
				c0.6,0-0.6-0.3-0.5-0.4c0.2-0.1,1.2,0.5,1.7,0.6c0.1-0.3-0.5-1.1,0.5-0.9c-0.1-0.3-0.3-0.7-0.7-1.2c0.1-0.2,1.1,0.6,0.7,0.1
				c0.4,0.2,0.8,0.4,1.1,0.6c-0.4-0.2,0.2-0.3-0.8-0.7c0.3-0.2,0.6-0.4,0.6-0.8c0,0.1,0.7,0.5,1,0.6c-0.6-0.5-0.8-0.9-0.5-1.1
				c-0.7-0.4-0.7-0.3-1.4-0.7c-0.1-0.1-0.4-0.3-0.3-0.4c0.7,0.3,1.8,0.9,1.9,0.7c1.1,0.7-0.3,0.3,0.8,0.8c0.8,0.6,0.7,1,0.1,0.8
				c0.8,0.7,0.2-0.1,1.1,0.4c0-0.2-0.4-0.6-0.4-0.9c-0.5-0.3-0.6-0.2-0.9-0.5c-0.8-0.8,0.8,0.1,0.9,0l0.2,0.3c0.4,0-0.2-0.4-0.1-0.5
				c1.3,0.6,0,0.4,0.7,0.8l1,0.4c0.3-0.2-1-0.6-0.5-0.7l0.4,0.3l-0.2-0.3c-0.5-0.3-1.2-0.6-1.2-0.4c-1.1-0.8-0.1-0.2-0.2-0.6
				c-0.6-0.5,0,0.1-0.7-0.2c-0.6-0.3-0.6-0.5-0.6-0.7c0.1-0.2,0.8,0.3,1.3,0.5c0.1,0.1,0.1,0.3-0.3,0.1c0.6,0.6,1.5,0.7,1.9,1.1
				c0.5,0.1-0.3-0.4-0.5-0.6c-0.1,0-0.7-0.4-0.9-0.5c-1.7-1.3,1.5,0.6,1.3,0.1c-1.2-0.6-1.4-1.3-2.8-1.8c-0.2-0.2-0.4-0.4-0.2-0.4
				c0.8,0.5,0.7,0.2,1.4,0.8l0.1-0.1l0.9,0.7c0.6,0.2,1.3,0.3,1.7,0.5c-0.3-0.4-0.8-0.4-0.9-0.7c0.4,0.3,0.8,0.4,0.8,0.3
				c-0.4,0-1.1-0.6-1.3-0.9c0.1-0.2,0.9,0.1,1.1,0.3l0.6,0.5c-0.5-0.4,0.3,0.1,0.2-0.1c-0.4-0.3-1.1-0.8-1.6-1.1
				c-0.1-0.2,0.5,0.1,0.4,0l0.4,0.4c-0.1-0.3,1.2,0.7,1.1,0.3l-0.6-0.4c0.1,0,0.4,0.2,0.6,0.3c-0.4-0.3-0.3-0.4-0.4-0.5l0.4,0.2
				c-0.2-0.2-1.1-0.9-0.2-0.5c-1-0.5-0.1,0.1-0.6,0c-0.8-0.3-0.6-0.5-0.7-0.6c1,0.6,0.2-0.2,0.3-0.3c0.4,0.2,0.6,0.2,0.9,0.3
				l-0.7-0.5c1.4,0.8-0.2-0.4,0.3-0.3c0.4,0.3,0.9,0.6,1.2,0.6c-1.1-0.5-1.1-0.9-1.8-1.3c0.5,0,1.2,0.8,2,1.2
				c-0.7-0.6,0.6,0.1-0.3-0.6c-0.4,0-0.6-0.4-1-0.7c0.2-0.2,0.4,0.3,0.9,0.4c-0.1-0.2-0.8-0.7-1.2-0.8c0.3,0-0.6-0.7,0.1-0.5
				c0.7,0.3,0.1,0.4,0.6,0.6c0.2-0.2-1.5-1.1-1.5-1.4c-0.4-0.1-1.4-0.9-1.7-1.2c0.4-0.1,0.3,0.4,1.2,0.7l0-0.2
				c1.2,0.5,1.6,1.4,2.6,1.8l-0.3-0.3c0.3,0.2,0.8,0.6,1.2,0.7c-0.7-0.5,0-0.4-0.2-0.5c-0.6-0.4,0.1,0.2-0.4-0.1
				c-0.1-0.2-1.1-0.9-0.6-0.9c0.4,0.4,0.9,0.5,1.2,0.8c0.3,0.1-0.7-0.5-0.3-0.4l0.4,0.2c0.4-0.5,0.7-1.1-0.5-2.5
				c0.7,0.3,0.9,0.2,1.5,0.2c-0.3,0-0.7-0.4-0.7-0.5l0.8,0.3c0.5,0.1-0.1-0.5-0.4-0.9l0.6,0.3c0.6,0.2-0.3-0.4-0.5-0.6l0.6,0.2
				l-0.5-0.3c0-0.1,0-0.1,0-0.1c0,0,0-0.1,0.1-0.1c0.1,0,0.4,0.1,0.8,0.4c-0.1-0.1-0.2-0.2-0.4-0.3l0-0.1c0.1,0,0.2,0,0.2,0
				c0,0,0,0.1,0,0.1c0.5-0.2,0.6,0.2,0.9,0.3c0,0-0.1,0.1-0.1,0.2c0.4-0.2,0.6,0.4,1.4-0.4c-0.1,0.2-0.2,0.4-0.4,0.5
				c0,0.5,0.8-1.2,0.7-0.4l-0.4,0.4c0.5-0.4,0.1,0.6,0.7,0c-0.2,0.3-0.3,0.3-0.4,0.4c0.3-0.1,0.5,0.1,1-0.4
				c-0.2,0.3-0.4,0.6-0.6,0.7c0,0.5,0.7-0.7,0.7-0.3c0,0.1-0.1,0.5-0.2,0.5c0.4-0.4,0.6-0.2,0.8-0.3c-0.2,0.3-0.2,0.5-0.3,0.9
				c0.9,0.6,1.8,1.3,3.2,1c-0.5,1.1-0.6,0.5-0.9,1.2c0.5-0.8,0.3-0.1,0.8-0.2l-0.1,0.1c0.2-0.1,0,0.5,0.3,0.3l0.1-0.2
				c0.5-0.5-0.4,1.3,0.4,0.2l-0.3,0.7c0.7-0.9,0,0.4,0.7-0.3l-0.1,0.2c0,0.6,1.1-0.7,0.7,0.1c0.3,0,0.6-0.1,1.1-0.8
				c-0.1,0.3-0.4,0.7-0.6,1c0.9,0.1,1.6,0.8,2.9,0.1l-0.3,0.4c0.9-0.6,0.3,1.4,1.6-0.1l0.5-0.6c-0.1,0.3-0.4,0.8-0.4,1.1
				c0.4-0.4,0.4,0.1,0.9-0.5c-0.1,0.3-0.2,0.4-0.4,0.6c0.1,0.3,0.9-0.6,1-0.3l-0.2,0.3c0.2,1.7,0.8,3.4,2.5,2.2
				c0.4-0.1-0.4,1-0.3,0.9c1.5-0.8,1.3,1.8,3.1,0.2c0.8-0.2,2.3-2.4,2.3-2.4c-1.8,0-2.4-1.6-3-3.5c-0.5-0.1-1.3-0.1-1.5-0.7
				c-1.8-0.8-2.5-3.5-4.6-3.9c-0.1,0.3-0.4,0.7-0.6,0.8l0.1-0.3l-0.5,0.5c-0.2,0,0.3-0.7,0.5-0.7c-0.7-0.4-1.4-0.6-2-1.2
				c-0.5,0.8-0.4-0.2-0.9,0.7c0.1-0.2,0.1-0.2,0.2-0.4c-0.7,0.1-0.8,0.1-0.6-1.2c-1.4-1.8-3.5-2.3-5.1-3.7c-0.3-0.2-0.6-0.3-0.9-0.4
				l-0.3-0.3c0-0.1,0.2-0.1,0.5,0.2c0.6-0.1-1.5-1.5-0.8-1.4c0.7,0.6,0.8,0.6,1.1,0.6c-0.1-0.1-0.4-0.3-0.4-0.3
				c-0.4-0.2,0.5,0.4-0.1,0.2c-0.5-0.3-0.2-0.3-0.3-0.5c1.7,0.9,0.9-0.5,1.9-0.3c-0.9-0.6-0.1-0.3-0.4-0.6c0.9,0.7,0-0.3,0.6,0
				l-0.9-0.6c0.7,0.2-1.1-1.3,0.1-0.7c0.4,0.1,0.6,0.5,0.7,0.7c1.1,0.5-0.5-1,0.7-0.4c-0.4-0.3-1-0.7-1.2-1c0.5,0.2,1.1,0.3,1.3,0.4
				c-0.1-0.2-0.4-0.5,0-0.3c0.2,0.2,0.2,0.2,0.3,0.4c0.4,0,0.1-0.4-0.2-0.8c0.7,0.4,0.6-0.1,1.1-0.1c-0.8-0.7,0.6,0-0.5-0.9l0.3,0.2
				c-0.3-0.3-0.9-0.9-0.9-1l0.7,0.6c0.9,0.7,0.4-0.1,0.8,0.2c-0.7-0.4,0.1-0.1-0.5-0.5l-0.1-0.3c-0.1-0.3-0.3-0.3-0.3-0.6
				c0.1-0.1,0.9,0.6,0.7,0.6c0.5,0.2,0.3-0.1,0.2-0.3c0,0-0.1,0-0.2-0.1c0.1,0.1,0.2,0.1,0.2,0.1c0-0.1,0-0.2,0-0.2c0,0,0,0,0,0
				c0,0.1,0,0.1,0,0.2c0.1,0,0.1,0,0.2,0c0,0,0,0,0,0c0,0,0.1,0,0.2,0l0.5,0.4c0.1,0-0.4-0.7-0.6-0.9c0.7,0.1,0.7-0.7,0.5-1.1
				c0.1,0.1,0.3,0.3,0.1,0.1c0-0.2-0.4-0.7-0.1-0.4c-0.1-0.3,0.5,0.2,0.6,0.1c0.1,0.1-0.3-0.3-0.4-0.3c0.9,0.3-0.1-0.9,0.6-0.8
				c0,0.1,0.3,0.3,0.5,0.5c-0.1-0.4-0.2-0.8-0.6-1.6c0.2,0.2,0.5,0.4,0.6,0.6c0.1-0.1,0.1-0.3-0.1-0.7c0,0,0,0,0,0
				c-0.6-0.3-0.9-0.9-0.7-0.9l0.1,0.1c0.1-0.2-0.2-0.4-0.1-0.6c0.4,0.2,0.1,0.2,0.4,0.4c0.9,0.7,0.8,0.1,1,0.2
				c-0.2-0.2-0.3-0.4-0.5-0.5c-0.1-0.3,0.5,0.4,0.6,0.2l-1.4-1.7c0.1,0.2,0.9,0.5,1.1,0.9c0.1-0.3-0.8-1.3-1.2-1.9
				c0.2,0,0.1-0.5,0.1-0.6c0.5,0.3-0.1,0,0.2,0.4l0.6,0.3c-0.1,0.2,0.8,0.7,1.1,1c-0.2-0.4,0.4-0.4,0.7-0.5
				c-1.1-0.7-0.2-0.7-1.1-1.4c0-0.4,0.8,0.5,1.1,0.6c-0.1-0.5,0.3-0.5,0.4-0.8c0,0,0.1,0.1,0.2,0.2c-0.1-0.4,0.4-0.5-0.2-1.4
				c0.2,0.2,0.3,0.3,0.4,0.5c0.5,0.1-1.1-1-0.3-0.8l0.4,0.4c-0.3-0.5,0.6,0,0.1-0.7c0.2,0.2,0.3,0.3,0.4,0.4c0-0.3,0.2-0.4-0.3-1.1
				c0.3,0.2,0.5,0.4,0.7,0.7c0.5,0.1-0.6-0.8-0.2-0.7c0.1,0,0.5,0.2,0.5,0.3c-0.3-0.4-0.1-0.6-0.2-0.8c0.3,0.2,0.4,0.2,0.8,0.4
				c0.7-0.8,1.5-1.5,1.5-2.9c1,0.6,0.4,0.7,1.1,1.1c-0.7-0.6-0.1-0.3-0.1-0.8l0.1,0.1c-0.1-0.2,0.5,0.1,0.3-0.2l-0.2-0.2
				c-0.4-0.5,1.2,0.6,0.3-0.3l0.6,0.4c-0.7-0.8,0.4,0-0.2-0.7l0.1,0.1c0.5,0.1-0.6-1.2,0.2-0.7c0-0.3,0-0.6-0.6-1.2
				c0.3,0.2,0.7,0.5,0.9,0.8c0.2-0.9,0.9-1.5,0.4-2.8l0.4,0.3c-0.5-1,1.4-0.1,0.1-1.5l-0.6-0.6c0.3,0.1,0.8,0.5,1,0.6
				c-0.4-0.4,0.1-0.4-0.4-0.9c0.3,0.2,0.3,0.3,0.5,0.4c0.3-0.1-0.5-1-0.2-1l0.2,0.3c1.7,0,3.4-0.2,2.6-2.1c-0.1-0.4,0.9,0.6,0.8,0.5
				c-0.5-1.7,1.9-0.6,1-3c0.1-0.9-1.2-3.2-1.2-3.2c-0.8,2-2.9,2.2-4.9,2.7c-0.2,0.6-0.4,1.4-1.1,1.6c-1.1,1.8-3.8,2.1-4.2,3.9
				c0.3,0.1,0.6,0.5,0.7,0.7l-0.2-0.2l0.4,0.5c0,0.1-0.6-0.4-0.6-0.6c-0.6,0.7-0.8,1.3-1.4,1.8c0.7,0.7-0.2,0.3,0.5,1
				c-0.2-0.1-0.2-0.1-0.3-0.3c0,0.7,0,0.8-1.2,0.3c-2,1-2.8,3-4.3,4.3c-1.2,1.7-1.9,4-3.1,5.8c1,1.2,0.1,1.1,0.9,2.2l-0.4-0.3
				c0.3,0.7-0.4,0.2-1.1,0.2c0.4,0.3,0,0.2,0.8,0.7c0.5,0.6-1.2-0.6-1-0.1c-0.2-0.2,0.4,0.3,0.2,0.2c0.5,1.1-0.3-0.4-1.5-0.4
				c-0.4,1-0.3,2.3-1.2,2.7c0-0.1,0.6,0.3,0.5,0.4c-1.2-0.8,0.1,0.5-0.4,0.3c-0.2-0.2-0.3-0.3-0.3-0.4c-0.7,0-0.2,0.8-1,0.8
				c0.3,0.7-1,0.3-0.5,0.9c-0.4-0.4-0.4-0.1-0.7-0.2c1.2,1.2-0.9,0.3-0.2,1.2l-0.2-0.2c-0.5,0.9-1.5,1.6-1.4,2.9
				c-0.1,0.2-0.2,0.3-0.5,0.4c0.1-0.2,0.1-0.4,0.1-0.7c-1-0.2-2.4,0-2.9-0.9c0.1,0-0.3,0.6-0.3,0.6c0.6-1.3-0.5,0.2-0.3-0.4
				c0.2-0.3,0.3-0.3,0.4-0.4c-0.1-0.7-0.8-0.2-0.9-0.9c-0.6,0.3-0.4-1-1-0.5c0.3-0.5,0.1-0.5,0.1-0.8c-1.2,1.3,0.3-0.5-0.9,0.1
				l0.2-0.2c-1-0.4-1.8-1.4-3.2-1.3c-0.6-0.2-0.5-1.8-1.5-1.6c-0.2,0.1-0.3,0.5-0.5,0.6c-0.1-0.1,0.3-0.5,0.3-0.7
				c-0.7,0.4-0.6-0.5-1-0.7c-0.2,0.2-0.3,0.2-0.5,0.6c0.2-1.2-1.2-0.2-1.2-1.2c-0.6,1.4-0.6,0.5-1,0.8c0-0.1,0.1-0.5,0.3-0.7
				c-0.4,0-0.6-0.1-0.8-0.7c-0.3,0-0.7,0.7-0.8,0.4c0.4-1-0.4-0.3-0.4-0.7c-0.4,0.8-1,1.3-1,0.8l0.7-1.1c-1,0.3-1.3-1.4-2.8-0.5
				l0.3-0.7c-1.2,0.3-1.5-0.9-3-0.1c0-0.5-0.2-0.8-0.4-1c-0.6,0.4-0.6,0.3-1.3,1.1c-0.1,0,0.1-0.5,0.2-0.8c-0.2-0.4-0.1-1.4-0.9-0.6
				l0.3-0.5c-0.6,0.4-1.3,0.9-1.3,0.1c-0.4,0.4-0.8,0.5-1,1.2c-0.2,0,0.4-1,0-0.4l0.6-0.7c0-0.2-1.5-0.7-2.2-0.5
				c0.3-1-0.7-0.3-0.8-1c-0.5,0.4-0.5-0.6-1.3,0.5l0.3-0.5c-0.2-0.2-0.6-0.5-0.8-0.9c-0.1-0.3-0.6,0.5-0.9,0.6l0.4-0.5
				c-0.4,0.2-1,0.9-1.4,1.4c0.1-0.4-0.2-0.1,0-0.5c0.3-0.2,0.8-0.6,1.4-1.2c0-0.3-1.2,0.7-0.7-0.1c0-0.3-0.3-0.2-0.9,0.4
				c0.2-0.2,0.2-0.4,0.6-0.6c-0.1-0.1-0.2-0.1-0.5,0.1c0,0,0,0.1,0,0.1c-0.5,0.4-0.6,0.2-1.3,0.8c0.2-0.1,0.4-0.2,0.4,0
				c-0.5,0.4-0.9,0.2-0.5-0.2c0.5-0.4,1-0.5,1.2-0.8c-0.5,0.2-1.1,0.4-1.7,0.5c0.5-0.1,0.3,0.2-0.3,0.5l0.5,0l-0.6,0.4
				C309.1,91.9,308.8,92.7,309.5,92.5z M355.6,101.4c0,0,0,0.1,0,0.1C355.6,101.4,355.5,101.4,355.6,101.4z M346.9,113.7
				c0.1,0,0.1,0.1,0.2,0.1c0,0-0.1,0.1-0.1,0.2C346.5,113.6,347.3,114.1,346.9,113.7z M339.6,112.1c0,0-0.1,0-0.1,0
				C339.5,112.1,339.6,112.1,339.6,112.1C339.6,112.1,339.6,112.1,339.6,112.1z M339.6,112.5c0,0,0,0.1,0,0.1L339.6,112.5
				C339.6,112.5,339.6,112.5,339.6,112.5z M340.3,113.1l-0.1-0.1c0.1,0,0.2,0,0.3,0C340.5,113.1,340.4,113.1,340.3,113.1z
				 M347.6,115.3c0,0-0.1,0-0.1-0.1C347.6,115.2,347.6,115.2,347.6,115.3L347.6,115.3z M348.2,114.7c0,0,0-0.1,0-0.1
				c0,0-0.1,0-0.1,0l0-0.1l0,0.1c0,0-0.1,0-0.1,0c0,0,0.1-0.1,0.2-0.2c0.1,0,0.2,0,0.2,0C348.3,114.5,348.3,114.6,348.2,114.7z
				 M350.3,108.4c-0.1,0-0.2-0.1-0.2-0.1c0,0,0-0.1,0-0.1C350.1,108.3,350.2,108.4,350.3,108.4z"/>
			<path class="st3" d="M309,98.8c0,0-0.1,0-0.1,0C308.9,98.9,308.9,98.9,309,98.8z"/>
			<path class="st3" d="M324.4,95.9c0,0-0.1,0.1-0.1,0.1c0,0,0.1,0,0.1,0L324.4,95.9z"/>
			<path class="st3" d="M334,110.8C334,110.8,334,110.8,334,110.8C334,110.8,334,110.7,334,110.8C334,110.7,334,110.7,334,110.8z"/>
			<polygon class="st3" points="329.5,108.3 329.3,108.6 329.5,108.5 			"/>
			<path class="st3" d="M352.5,96.4C352.5,96.4,352.5,96.4,352.5,96.4S352.5,96.4,352.5,96.4z"/>
			<path class="st3" d="M352.5,96.4c-0.1-0.1-0.1-0.2-0.2-0.3C352,96,352.5,96.3,352.5,96.4z"/>
			<path class="st3" d="M341.7,99.3C341.7,99.3,341.7,99.3,341.7,99.3c0-0.1,0-0.1-0.1-0.2C341.6,99.2,341.6,99.2,341.7,99.3z"/>
			<path class="st3" d="M350.6,100.5C350.6,100.5,350.6,100.5,350.6,100.5C350.6,100.5,350.6,100.5,350.6,100.5
				C350.6,100.5,350.6,100.5,350.6,100.5z"/>
			<path class="st3" d="M338,123.6c0,0,0,0.1,0,0.1C338.1,123.7,338.1,123.7,338,123.6z"/>
			<path class="st3" d="M334.6,126.1c0,0,0.1,0,0.2,0.1C334.7,126.1,334.6,126.1,334.6,126.1z"/>
			<path class="st3" d="M352.8,98C352.8,98.1,352.8,98.1,352.8,98C352.9,98.2,352.9,98.1,352.8,98z"/>
			<path class="st3" d="M335.7,126.5c0.2,0.1,0.6,0.4,0.7,0.3c-0.4-0.3-1.3-0.6-1.6-0.6c-0.1,0-0.1,0-0.1-0.1
				c0.3,0.1,0.5,0.2,0.6,0.4C335.5,126.5,336.1,126.8,335.7,126.5z"/>
			<path class="st3" d="M335.5,126.8c0-0.1-0.1-0.2-0.2-0.2C335.2,126.5,335.3,126.6,335.5,126.8z"/>
			<path class="st3" d="M334.8,126.4c-0.1,0-0.4-0.1-0.3-0.1c0.2,0.1,0.4,0.2,0.4,0.3C335.2,126.7,334.8,126.4,334.8,126.4z"/>
			<path class="st3" d="M335.9,126.2c0-0.2-0.2-0.5-0.6-0.8L335.9,126.2z"/>
			<path class="st3" d="M337.9,125.7c0.1-0.1-0.1-0.2-0.5-0.3C337.6,125.5,337.7,125.6,337.9,125.7z"/>
			<path class="st3" d="M336.6,124.8c0.5,0.3,0.3,0.1,0.4,0C336.8,124.8,336.6,124.7,336.6,124.8z"/>
			<path class="st3" d="M337,124.8c0,0,0.1,0,0.1,0C337,124.8,337,124.8,337,124.8z"/>
			<path class="st3" d="M339,123.2c-0.5-0.2-0.2,0.1-0.2,0.2C339.4,123.8,338.7,123.1,339,123.2z"/>
			<path class="st3" d="M339.3,122.4c0-0.1-0.3-0.3-0.5-0.3c0.1,0.1,0,0.1,0,0.1L339.3,122.4z"/>
			<polygon class="st3" points="348.1,104.8 348,104.5 347.8,104.5 			"/>
			<path class="st3" d="M353.3,97.7c0-0.1,0.4,0.3,0.4,0.2C353.7,97.9,353.1,97.4,353.3,97.7z"/>
			<polygon class="st3" points="354.5,92.6 353.8,92.1 354.5,92.7 			"/>
			<path class="st3" d="M224.9,238.4c-0.4,0.1-0.3,0.4,0,0.7C225.8,238.4,224.6,239.3,224.9,238.4z"/>
			<path class="st3" d="M278.1,197.3C278.2,197.3,278.2,197.3,278.1,197.3L278.1,197.3z"/>
			<path class="st3" d="M264.9,214.2c0,0,0.1,0.1,0.1,0.1c0-0.2,0-0.3,0.1-0.5L264.9,214.2z"/>
			<path class="st3" d="M227.5,234.8c0-0.1,0-0.1,0-0.2C227.4,234.7,227.4,234.7,227.5,234.8z"/>
			<path class="st3" d="M227.6,237.8l-0.1-0.3C227.5,237.6,227.6,237.7,227.6,237.8z"/>
			<path class="st3" d="M239.4,224.8c0-0.2,0-0.4-0.1-0.5C239.2,224.3,239.1,224.5,239.4,224.8z"/>
			<path class="st3" d="M369.4,193.9c-0.5-0.3-1-0.6-1.5-1c-0.7-0.5-0.7-0.7-2.3-1.7c0.7,0.4-0.7-0.6-0.9-0.9
				c-1.9-1.8-3.6-3.9-4.7-6c-0.7-0.5-1.4-1-1.9-1.6l-0.8-0.9l-0.2-0.2l0-0.1l0,0l0,0l0,0c-18.7,0.5-5.2,0.1-9.4,0.3l0,0l0,0l0,0
				l-0.1,0.2l-0.5,0.6c-3.9,6.9-7.8,14-10.2,19.9c0.5-0.2,0.7,0.4,0.7,0.8l-0.3-0.1c0,0,0,0,0,0c-1.1-1.1-2.2-2.1-3.4-3.1
				c-0.4-0.3-1.4-1.2-1.6-1.4c-0.6-0.6-1.1-1.2-1.7-2c-2.5-2.8-5.2-6.1-9.3-9.2l-1.8-1l-0.4-0.3l-0.2-0.1l-0.1-0.1l0,0
				c-18.1,7.5-5,2.1-9,3.8l0,0l0,0l0,0l-0.2,0.7l-0.7,2.8l-1.4,5.6c-0.9,3.7-1.9,7.4-3.3,11c1,1.7-0.3,2.9,0.3,4.7l-0.4-0.3
				c0.1,1.4-0.8,1.3-1.9,2.4c0.5,0.3-0.1,0.6,0.8,0.8c0.4,0.8-1.5,0.3-1.5,1.1c-0.3-0.1,0.5,0.2,0.2,0.2c0,0.6,0,0.9-0.1,1.1
				c-0.5-0.6-1.1-1.3-1.5-2.1c0.2,0.1-0.3,0.7-0.6,0.4c0.9-1.2-1-0.7-1.1-1.6c0.3-0.1,0.6,0.1,0.8,0.1c-0.8-2-2.7-2.4-3.2-3.8
				c-1.4-0.6-1.8-2.6-2.9-2.7c0.6-0.3-0.1-0.7-0.1-1.1c-1.9,0.5-1.5-2.3-3-2.4l0.2-0.2c-1-1.3-2.4-2.6-3.2-4.1l-1.4-2.1l-0.2-0.3
				l-0.1-0.1l-0.1-0.1l0,0c0.8,0.3,1.3,0.5,1.3,0.5c-0.4-0.1-8.6-3.4-7.5-3l0,0l0,0l0,0l-0.1,0l-1.2,0.7c-0.8,0.5-1.6,1.1-1.9,1.7
				c-2.3,2.3-5,3.8-5.8,6.6c-0.1,0.5,0.5,0.4,0.4,0.8c-0.4,0.6-0.5-0.3-0.8-0.1c-0.1,1.5-1.6,2.6-2.3,4.1c0.2,0.3,0,0.7,0.5,0.8
				c-0.8,0.4-1.4,1.9-1.4,2.1c-0.5,1.2-0.9,2.3-1.6,3.1c1.7-0.1,0.2,1.4,0.4,2.2c-0.2,0.3-0.6,0.2-0.8,0c-0.3,1.5-0.5,2.2-1.3,3.6
				c0,0.7,0.7,1.1,0.3,1.9c-0.6,0.1-0.7,0.6-0.8,1.1c-0.5-0.2-1.1-0.4-1.7-0.4l0.2-0.7c-2.9-1.1-4.6-3.6-7.6-4.8
				c-0.3-0.8-1-1.9-1.5-2.5c-1.2-0.4-1.4-0.7-2.6-0.7c-0.3-0.3,0-0.8,0.1-1.1c-0.2-0.3-0.3-0.6-0.4-1c0.6,0,0.5,0,0,0
				c-0.3-1-0.6-1.9-1.8-2.1l0.5-0.4c-0.5-0.3-1.2-0.6-1.7-1.1c-0.3-0.2-0.5-0.5-0.6-0.8l-0.1-0.1l0,0l0,0l0,0
				c-1.9-0.1,4.2,0.2-4.2-0.2l0,0l0,0l0,0l0,0.1l-0.2,0.2l-0.4,0.3c0.2,0.6-0.3,1.8,0.6,1.8c-0.2,0.5-1-0.3-0.8,0.5l-0.5-0.9
				c-1.8,2.3-2.9,4.6-4,7.2c-1.3,0.1-1.3,2.3-2.6,3.4c0,1.1-1.5,2-0.8,3.3l-0.6-0.3c-0.7,1-1.6,2.4-2.7,3.6c-0.6,0.7,0.1,1.2,0,2
				l-0.5-0.3c-0.1,0.9,0.6,1.6,1,2.2c-0.7,0.3-0.4,0.6-1,0.9c0-0.7-0.3-1.5-0.8-2.3c-0.7,0.7,0.1,2.4-1.1,2.4
				c-0.6,0.5-0.8,1.2-0.3,1.7c-0.2-0.1-0.6,0.2-0.7-0.3c-0.3,0.5-0.5,0.9-0.4,1.4c0.1-0.1,0.2-0.2,0.3-0.3c0.4,0.6,0,1.1,0.8,1.5
				c0-0.4-0.1-0.5,0.2-0.8c0.4,0.5,0,1.5-0.6,1.4c-0.7-0.1-0.5-1.2-1.1-1l0.3,2.1c0-0.4,0.6-0.5,0.9-0.1l0.1-0.8l0.5,0.4
				c0.4-1.1,1.5-1.4,1.7-2.7l-0.8,0c0.4-0.6,0-1.7,1-1.8c0,0.4,0.5,0.4,0.8,0.6c0-0.2-0.1-0.5,0.1-0.6l0.8,0.9
				c-1.1-1.1,0.5-1.9,0.5-2.3l0.1,0.2c1-0.6-0.6-0.2-0.3-0.8c0.5-0.4,1.2,0.5,1.9,0.3c0.5-0.9,0.7-2.9,2.1-3.5c0.3-0.9,0.5-2,0.5-3
				c0.4-0.7,1,0.7,1-0.3c0.3,0.3,0.7,0.4,1.1,0.6c-0.3-0.3,0.9-1.3-0.4-1.3c0.8-0.9,1.6-2,2.1-3.2c-0.2,0.4,0.4,0.9,0.9,0.8
				c-0.3-0.9-0.1-2,0.6-2.8c-0.7-0.4-0.8-0.1-1.4-0.6c0-0.2-0.2-0.6,0-0.8c0.8,0.3,1.7,1,2.3,0.2c0.1,0.1,0.1,0.1,0.1,0.2l0,0
				c0,0,0,0,0.1,0c0.1,0.2,0.1,0.4,0,0.5l-0.1,0c0.1,0,0.1,0,0.1,0c-0.2,0.4-0.8,0.6,0.1,0.8c0.6,0.9-0.2,2.4-1,2.4
				c0.5,1.3,0.5-0.5,1.3,0.2c0.3-0.7,0-1.3,0.6-2.4c-0.4-0.2-0.6-0.1-0.7-0.4c0,0,0.1,0.1,0.1,0.1c0.5-0.2,1.3-0.4,2-0.6
				c0,0,0,0,0,0c0,0.1,0,0.1,0.1,0.2l0.1,0c0.1,0.3,0,0.7,0.2,0.8l-0.9-0.3c0.3,0.3,0.2,0.5,0.1,0.7c-0.1,0-0.1,0-0.2,0
				c0,0,0,0.1,0.1,0.1c-0.2,0.3-0.4,0.5,0.1,0.8l0.7-0.2c0,0.2-0.1,0.5-0.5,0.5c0.5-0.2,0.8,0.3,1.1,0.4l-0.3,0.4
				c0.5,0.1,1.7-0.1,1.3,0.9c0.6-1.1-0.3-0.4-0.4-1.3c0.3-0.9,1.1,0,1.3,0.1c-1,0.8,0.6,0.9,1,1.3c-0.1,0.5-0.1,0.8-0.1,1.2l0.7-0.4
				c-1,1.2,1,0.5,1,1.3c-0.5,0.1-1,0.6-0.8,1.1c0.4-1.2,1.7-0.4,2.1-1.1c0.5,1-1.2,0.9-1.5,1.7c1-0.3,0.5,1.2,1.6,0.6
				c-0.3-0.8,0.6-0.5,1-0.7c0.7,0.7-0.5,0.3-0.2,1c0.4,0.1,1.4-0.2,1.1-0.8c0.3,0.6,1.4,0.1,1.5,1.1c-0.3,0.7-1.1-0.5-1.2,0.1
				c1,0.9,1.7-1,2.8-0.4c-0.2-0.6,1-1.3,1.7-1.4c0.8,1-0.7,0-0.9,1l0.5,0.2c-0.2,1.5-2.5,0.7-2.6,2l0.7,0c-0.3,0.2-0.9,0.6-0.9,1
				c0.7-0.6,1.3,0.7,1.5,0.6c0.5-0.5-0.5-0.1-0.1-0.5c0.6,0.2,1.6-0.6,2.1,0.3c-0.7,0.1-0.4,1-0.8,1.2c0.3,0.5,0.6-0.7,1,0.1
				l-0.3,0.3c1.1,0.8,2.3,1.6,3.8,2l1.1,0.3l0.5,0.1l0.3,0l0.1,0l0.1,0l0,0l0,0c11.2-4.3,3.1-1.2,5.6-2.2v0l0,0v0
				c0-0.7,0-1.5-0.2-2.2c0.9-0.1,1.2-0.9,2.1-2c-0.4,0.5-0.7-0.2-0.7-0.5l1-0.3c0.7-0.6,0.2-1.7-0.2-2.4c0.2-0.1,0.4,0,0.7,0
				c0.7-0.4-0.3-0.7-0.4-1l0.7-0.2l-0.6-0.2c-0.2-0.6,0.2-1.4,1.1-1c-0.1-0.3-0.2-0.5-0.6-0.3c0.7-0.4,1.1-1.8,1.2-2.7
				c-0.4,0.3-0.7,0.2-1.3,0c-0.9-0.5,0.3-0.1-0.1-0.7c0.4,0.1,0.9-0.1,1,0.4c1.5-0.4,1.7-2.8,2.7-4.4c0-0.4-0.2-0.4-0.4-0.6
				c1.4-0.5,1.1-2.2,2-3.1c-0.5,0-1.4-0.9-1.1-1.5c-0.4-1.1,1.2,0.3,1.9,0.1c-0.2-0.5,0-1.1,0.2-1.2l0.1,0.1
				c-0.2-0.6-0.1-1.2,0.5-1.4l0,0.1c0.3-0.3,0.9-0.3,1.1-0.6c-0.3-0.3-0.2-0.6,0-0.9l0.7,0.2c0.3,0.4,0.2,0.6-0.2,0.8
				c0.6,1.5,2.7,0,2.9,1.3c-1,0.2-0.8,0.6-0.6,1.1c0.1-0.1,0.4-0.2,0.6-0.1c0.2-0.4-0.7,0.2-0.5-0.6c0.3-0.5,0.6,0.1,0.9,0.2
				c-0.8,2.2,2,3,2.6,4.8c0.7-0.8,0.8,0.3,1.3,0.3c-0.9,0.7,0.8,0.6,0.7,1.4l0.6-1c0.3,1.2,2.4-0.1,1.9,1.3c0.2,0.6-0.7,0.4-1,0.4
				c-0.3,1.4,2.2,0.7,1.7,2.1c0.4-0.3,0.7-1,1.5-0.8c0.3,0.9,0.1,1.6,0,1.8c0.4,0.2,0.8,0,0.7,0.6c-0.3,0.1-0.4,0-0.6,0
				c0.2,0.7,1,0.9,1.7,1.2c-0.4,0.9,0.8,1.7,1.2,2.9c1.1-0.3,1,1.7,2.1,0.7c-0.1,0.1-0.1,0.3-0.1,0.4c0.6,0,1.4-0.5,2-0.2l-0.6,0.7
				c-0.4,0.4,0.1,0.8,0.7,1c2.3,0.5,2.1-0.1,2.6,0.3c-1-0.6,1.2-0.2,1-0.9c0.3-0.2,0.6-0.3,0.8-0.7c1-1.2-0.1-0.5,1.1-1.9
				c0.4-0.7,1.1,0.2,0.8,0.5c0.8-0.4,0.9-1.2,0.9-1.8c-0.1,0.1-0.1,0.1-0.3,0c0.1,0,0.2,0,0.3-0.1c0-0.2,0-0.4,0.1-0.6c0,0,0,0,0,0
				c0,0.2,0,0.4-0.1,0.5c0.1-0.1,0.2-0.3,0.3-0.4c0.1,0,0.1,0,0.1-0.1c0.1-0.1,0.2-0.2,0.3-0.3l0.6,0.4c0.1-0.2-0.4-1-0.6-1.4
				c1.1-1,1.7-3.3,1.8-4.3c0.1,0.2,0.3,0.3,0.1,0.1c0.1-0.5-0.2-1.2,0.2-1.1c-0.1-0.5,0.6-0.2,1-0.8c0.1,0-0.3-0.2-0.5-0.2
				c1.4-0.7,0.4-2.8,1.5-3.8c0,0.1,0.3,0.4,0.5,0.6c0.1-1.2,0.2-2.3-0.2-3.5c0.3,0.2,0.5,0.3,0.6,0.6c0.3-0.7,0.4-1.6-0.1-2.2
				c-0.5,0.4,0.3,0.2,0.2,0.5c-0.8,0.3-1-0.8-0.7-1.2l0.1,0c0.2-0.7-0.1-0.9,0.1-1.6c0.5-0.3,0.1,0.4,0.5,0.4
				c1.1,0.2,1.2-1.4,1.4-1.5c-0.2-0.3-0.3-0.6-0.6-0.6c-0.1-0.7,0.7,0,0.8-0.5l-1.4-2.2c0.3,0.2,1.1-0.2,1.3,0.4
				c0.3-1.2-0.8-2.3-1.2-3.2c0.3-0.3,0.2-1.6,0.3-2c0.6,0-0.1,0.3,0.3,0.5l0.8-0.4c-0.2,0.8,1,0.2,1.3,0.8c-0.2-0.7,0.7-2.1,1.2-3
				c-0.9,0.2-0.8-0.4-0.8-0.9c1.1,0.2,1.7,1.1,2.6,1.6c0,0-0.1,0.1-0.2,0.2c1,0.4,1.9,1.7,3.3,1.7c-0.2,0.1-0.3,0.3-0.6,0.3
				c0.4,1,1.2-0.9,1.6,0.5l-0.6,0.2c0.9,0.2,0.6,1.4,1.8,1.5c-0.2,0.2-0.4,0.1-0.6,0.2c0.7,0.4,1.2,1.2,2.2,1.2
				c-0.2,0.3-0.5,0.4-0.9,0.4c0.2,0.9,1.3,0,1.5,0.8c0.1,0.2,0,0.8-0.1,0.7c0.6-0.1,1.3,0.8,1.8,0.9c-0.2,0.3-0.1,0.7,0,1.2
				c3.1,2.5,6.1,5.2,9.8,7.1c-0.2,1.3-1.2-0.1-1.4,0.8c0.6-0.8,0.7,0.2,1.8,0.7l-0.1,0.1c1.2,0-1.2,1.1,2.4,0.7l-0.2-0.1
				c-0.2-0.9,1.9-0.6,1-1.5l0.8-0.2c-0.8-1,0.7-0.8,0.1-1.8l0.2,0.1c0.3-0.3,0.3-0.7,0.2-1.1c2.5-0.5,4.2-0.8,1.1-0.2l0,0l0,0l0,0
				l0,0l0,0l-0.1,0l-0.8-0.8c-0.1,0.1-0.2,0.1-0.3,0.1c0-0.1,0.1-0.2,0.3-0.2c0.1-0.8,0.2-1.7-0.4-2.2c0.4,0,0.8,0.3,1,0.6
				c1.1-2.9,2.8-6,2.6-8.9c0.2-0.1,0.3,0.1,0.5,0.3c-0.3-2,2.3-2.8,1-4.8l-0.6-0.7c0.5-0.2,1,0,1.4-0.2c-0.4-0.5,0.5-1.5-0.1-2
				c0.4,0,0.4,0.3,0.6,0.4c0.5-0.6-0.2-2,0.4-2.6l0.2,0.4l2.3-2.3c0.4-0.4,0.7-0.9,1.1-1.1l0.8,1.4c1.1,1.9,2.9,3.2,4.5,3.6
				c0.9,0.3-0.4,1,0,1.2c3.4,1.1,5.3,5,9.1,5.1c0.6,0.5,1.7,0.1,2,0c0.2-0.7,0.5-1.3,0.9-1.6C369.7,194,369.6,194.1,369.4,193.9z
				 M245.9,214.7c0.1,0,0.3,0.1,0.4,0.1c-0.4,0-0.7,0-1.1-0.1C245.2,214.6,245.5,214.6,245.9,214.7z M246.2,216.2
				c0-0.1,0-0.2,0.1-0.3C246.3,216.1,246.3,216.2,246.2,216.2z M241.8,213.8c0.4,0.2,0.9,0.3,0.9,0.7c-0.2,0-0.3,0.1-0.4,0.2
				c-0.5,0-1-0.1-1.5-0.1C241.2,214.5,241.5,214.4,241.8,213.8z M239.3,214.5c0.2,0,0.3,0,0.5,0
				C239.6,214.5,239.4,214.5,239.3,214.5z M241.4,220.5C241.4,220.5,241.4,220.5,241.4,220.5c0-0.2,0-0.3,0-0.4
				C241.7,220.2,241.5,220.3,241.4,220.5z M242.2,220.2l-0.8-0.1c0-0.2,0.1-0.4,0.2-0.5c0.1,0,0.1,0,0.2-0.1c0.2-0.1,0.5,0,0.8,0
				C242.5,219.9,242.4,220.2,242.2,220.2z M279.3,206.3C279.4,206.3,279.4,206.3,279.3,206.3C279.4,206.3,279.4,206.3,279.3,206.3
				L279.3,206.3z M280.1,205.8c0-0.1,0-0.1,0-0.2c0.1,0.1,0.1,0.2,0.2,0.2c-0.1,0-0.1,0.1-0.2,0.1
				C280.1,205.9,280.1,205.8,280.1,205.8z M281.5,204.7L281.5,204.7L281.5,204.7C281.5,204.7,281.5,204.7,281.5,204.7L281.5,204.7z
				 M278.6,203.1L278.6,203.1L278.6,203.1L278.6,203.1z M277.5,203.7L277.5,203.7C277.4,203.6,277.4,203.6,277.5,203.7z
				 M278.1,203.9l-0.1-0.5v0l0,0l0,0v0l0,0c0.2,0.1,0.2,0.1,0.3,0.1c-0.2-0.1-1.5-0.6,0.5,0.2c0,0,0,0,0,0l-0.3-0.1
				c0.3,0.1,0.6,1,0.9,0.3c0,0,0,0,0,0l-0.2,0.5C278.8,204.2,278.4,204.1,278.1,203.9z M281.7,205.4L281.7,205.4
				C283.2,206,282.8,205.8,281.7,205.4z M301.3,222.7c0,0.1,0.1,0.1,0.1,0.2C301.3,222.8,301.3,222.8,301.3,222.7z M302.5,220.8
				C302.5,220.8,302.5,220.8,302.5,220.8C302.5,220.8,302.5,220.8,302.5,220.8C302.6,220.7,302.6,221,302.5,220.8z M306.9,222.2
				c0,0,0,0.1,0,0.2C306.8,222.3,306.8,222.2,306.9,222.2z M315.5,192c0.6-0.7,0.5-0.4,0.4,0l0,0l0,0c0,0.1,0,0.1-0.1,0.2
				C315.7,192.1,315.6,192,315.5,192z"/>
			<path class="st3" d="M238.5,223.8c0,0,0.1,0.1,0.2,0.1C238.7,223.8,238.6,223.8,238.5,223.8z"/>
			<path class="st3" d="M307.9,215.5c0,0,0-0.1,0-0.1C308,215.3,307.9,215.4,307.9,215.5C307.9,215.4,307.9,215.4,307.9,215.5z"/>
			<path class="st3" d="M239.3,224.3c0.3-0.2,0.9-0.1,0.7-0.6c0.3,0,0.5,0.6,0.8,0.2c-0.3-0.6-1.3-0.5-1.9,0c0,0-0.1,0-0.1,0
				C239,223.9,239.2,224,239.3,224.3z"/>
			<path class="st3" d="M312.4,203.6c0,0,0,0.1,0,0.1C312.5,203.8,312.5,203.8,312.4,203.6z"/>
			<path class="st3" d="M225.4,237.4c0.3,0.3,1,0.3,1.4,0.5C226.5,237,225.9,237.5,225.4,237.4z"/>
			<path class="st3" d="M238.3,224.5c0.1,0.2,0.4,0.3,0.3,0.5c0.3,0,0-0.4,0.1-0.6C238.6,224.4,238.1,224.4,238.3,224.5z"/>
			<path class="st3" d="M240.6,220.7l0,1.8C240.8,222,240.9,221,240.6,220.7z"/>
			<path class="st3" d="M243.4,217.2c0.5,0.4,0.5-0.2,0.6-0.3C243.7,216.9,243.5,217,243.4,217.2z"/>
			<path class="st3" d="M244,216.9c0,0,0.1,0,0.1,0C244.1,216.8,244,216.9,244,216.9z"/>
			<polygon class="st3" points="288.9,210.1 289.4,210.2 289.3,209.8 			"/>
			<path class="st3" d="M313.3,201.4c0.1-0.5,0.5,0.2,0.6-0.2C313.7,201.2,313.1,200.9,313.3,201.4z"/>
		</g>
	</g>
	<g>
		<g>
			<path class="st6" d="M548.8,95.6c0.3,0.1,0.8-0.5,0.4,0C548.8,95.7,548.5,95.7,548.8,95.6z"/>
			<path class="st6" d="M526.1,42.1c2.8-0.5,0.6,1.5,2.5,1.5c0.1,0-1.4,0.6-1,0.6c2.3-0.2,1.5,1.4,0.4,2.9l-0.4,0.1
				c-0.2,0.3,1.2-0.1,1.1,0.2c-0.3,0.1-0.4,0.1-0.7,0.3c0.8-0.3,0.5,0.1,1.1,0c-0.3,0.2-0.9,0.5-1.2,0.7l0.9-0.3
				c2.2-0.7,0.1,0.7,1.4,0.6c-0.2,0.1-0.4,0.1-0.6,0.2c1.5,0,1.6,0.9,2.4,1.3c-0.3,0.1-0.9,0.3-1.2,0.5c0.9-0.4,1.3-0.3,1.5-0.2
				c-0.9,0.5,1-0.1,0.6,0.4l-0.2,0.1c1.1-0.3-0.5,0.5,0.8,0.1l-0.7,0.4c1.4-0.5-0.6,0.5,0.1,0.3l0.3-0.1c0.4,0-0.3,0.3,0,0.3
				l-0.2,0.1c0.5,0.1-0.2,0.6,0.8,0.1c-0.8,0.5-0.5-0.1-1.7,0.6c1.5,0.4,1.6,1.3,2,2.2c-0.4,0.3-0.5,0.4-0.9,0.6
				c0.3,0,0.3,0.2,0.9,0.1c0,0-0.5,0.3-0.5,0.4c-0.3,0.3,1.2-0.3,0.8,0c-0.3,0.1-0.7,0.2-1,0.4c0.9-0.2,0.8,0,1.2,0.1
				c-0.2,0.1-0.3,0.1-0.6,0.2c1-0.2,0,0.4,0.6,0.3l-0.6,0.2c-0.6,0.6,1.3-0.5,1-0.1c-0.2,0-0.4,0.2-0.7,0.3c1.2-0.3,1,0.2,1.5,0.3
				c-0.1,0-0.3,0.1-0.3,0.1c0.2,0.2,0,0.6,0.6,0.6c-0.2,0.2-1.5,0.6-1.2,0.8c1.2-0.5,0.7,0.2,2-0.6c-0.1,0.3-0.4,0.8,0,0.8
				c-0.5,0.1-1.5,0.8-1.6,0.6l-0.7,0.5c-0.5,0.2,0.1-0.2-0.5,0.1c0.1,0.1,0.7,0.1,0.5,0.3c0.8-0.2,2.3-0.6,2.6-0.4
				c-0.5,0.1-1.3,0.7-1.6,0.7l2.5-0.7c0.1,0.1-1,0.4-0.6,0.4c0.3-0.1,0.5-0.2,0.8-0.3c-0.1,0.1,0.5,0.2-0.7,0.8
				c-0.5,0.2-0.3,0-0.7,0.3c0.1,0.2,0.5,0,0.6,0.1l-0.2,0.1c-0.1,0.2,0.6,0.1,1.3-0.3c0-0.1-0.7,0.3-0.4,0.1c0.7-0.2,1-0.1,1.1,0
				c-0.2,0-0.5,0.2-0.9,0.3c1-0.2,1.4-0.1,1.9,0c0.6-0.2-1.1,0.4-0.8,0.2c-0.7,0.7,1.4,0.1,0.4,0.9c-0.1,0,0.8-0.4,0.6-0.3
				c0,0.2-0.8,0.5-0.5,0.5c-0.5,0.2,0.2,0.1,0.4,0.1c0.4-0.1-0.2,0.1-0.3,0.1c0.5,0,1.5,0.2,0.9,0.8c0.3-0.1,1.3-0.3,1.3-0.2
				l-0.8,0.3c-0.4,0.3,0.2,0.2-0.5,0.5c1-0.2-1-0.3-0.2-0.4c-0.6,0.3,1.3-0.2,0.3,0.2c0.1,0.1,1-0.1,0.4,0.4c0.1-0.1-1.1,0.3-1,0.4
				c0.2,0.2,0.4-0.1,0.7,0l0.4,0c0.7-0.3,0,0.2,0.8-0.2c-0.6,0.3,0.5,0.1-0.7,0.7l-1,0.4c0.1,0.1,1.1-0.3,1.5-0.4
				c-0.1,0-0.3,0.2-0.4,0.2c1.5-0.6,0,0.3,1.2-0.1c-0.4,0.4,0.2,0.5-0.7,1c0.5,0,1.1-0.1,0.9,0.2c-0.2,0-0.2,0-0.5,0.1
				c-0.4,0.3,0,0.1,0.3,0.1c-0.2,0.1-0.8,0.6-1.2,0.9c0.5,0,1.3-0.4,1.8-0.6c-1.4,0.8,1.1,0-0.1,0.7c-0.2,0-0.8,0.1-1.1,0.4
				c-1.4,0.8,1.2-0.2,0.6,0.3l1.2-0.6c-0.7,0.4,0.8,0-0.4,0.5c0.5-0.1-0.3,0.4,0.9-0.1c-0.8,0.8,1,0.6-1,1.7c0.2,0,0.1,0.2,0.7-0.1
				c0.6-0.4-0.5,0.1-0.1-0.1c0.1,0,0.4-0.1,0.5-0.2c-0.2,0.2-0.3,0.3-1.3,0.7c-0.6,0.6,2.1-0.6,1.8-0.1c-0.5,0.2-0.7,0.3-0.5,0.4
				l0.9-0.2c-0.1,0.3-1.1,0.6-1.9,1c0.2,0,0.2,0.2,0.8,0l-1,0.6c0.7-0.4,0.5-0.1,0.8-0.2l-0.2,0c-0.3,0.2-0.1,0.2,0.1,0.2
				c0.5-0.2,0.7-0.5,0.8-0.6c0.4-0.1,0.3,0,0.8-0.1c-0.8,0.3-0.5,0.4-0.5,0.5c-0.1,0.2,0.8-0.2,0.8-0.2c-0.4,0.2,0,0.2-0.6,0.4
				c-0.2,0,0.4-0.3,0-0.1c-0.3,0.2-1,0.5-0.4,0.4c0.4-0.1,1.6-0.7,1.2-0.3c-0.2,0-0.5,0.2-0.9,0.3l-0.3,0.4l0.7-0.3
				c-0.2,0.1-0.2,0.1-0.3,0.2c0.8-0.3,0.4,0.2,1.2-0.2c0.1,0.1-0.4,0.4-0.5,0.5l-0.1,0c-0.4,0.3,0,0.3,0.5,0.2l-0.2,0.1
				c0,0.1,0.1,0.2,0.6,0.1c-0.5,0.4-2.8,1.3-1.8,1c0.1,0.1,1.4-0.4,1.9-0.6c-0.4,0.5,0.9,0.3-0.1,1c0.3-0.1,0.5-0.2,0.7-0.2
				c-0.1,0.5,1.2,0.4-0.1,1.4c-0.4,0-0.7,0.3-1.2,0.5c0.7-0.2-0.6,0.4,0.5,0c0.7-0.3,1-0.4,1.2-0.7c0.5,0.1,0.6,0.4,0,0.8
				c0.3-0.2,0.5-0.2,0.7-0.3c-1.1,0.4-1.2,0.7-0.7,0.7l0.7-0.3l-0.6,0.4c0.2,0,1.4-0.5,0.8-0.1c-0.2,0.1-0.5,0.2-0.7,0.3
				c0.6-0.1,1.6-0.3,1.1,0.1l-0.9,0.5c0.1,0,0.7-0.1,1-0.4c-0.5,0.5-0.5,0.7-1.2,1.1c2.2-0.4,2.5,0.1,2.6,0.7l-0.5,0.2
				c-0.4,0.3,0.9-0.3,0.6-0.1c-0.5,0.2-1,0.5-1.6,0.7c-0.4,0.4,0.9-0.1,1.2-0.1c0.6-0.3-0.4,0.1,0.4-0.2c0.2-0.1-0.4,0.5,0.6,0.1
				c-0.4,0.2-1.1,0.5-1.5,0.6l0.5-0.1c-1.1,0.6-2.1,0.5-3.5,1.3l0.2,0c-1,0.5-1.3,0.2-1.5,0.6c0.5-0.1,2-0.6,2.3-0.9
				c0.4,0.1,2.3-0.9,2.4-0.6c-0.5,0.3-0.2-0.2-1,0.2c-0.7,0.5,0.5,0.1,0.3,0.3c0.3-0.3,1.3-0.6,1.5-0.6c-0.4,0.3-0.9,0.3-1,0.5
				c0.6-0.2,1.1-0.2,1.4-0.5c1.3-0.5-0.3,0.3,0.8,0c-0.9,0.4-2.1,0.7-2.5,1.1c0.8-0.4,1.3-0.2,2.5-0.9c-0.2,0.2-0.9,0.5-1.4,0.7
				c-0.5,0.3,1.7-0.4,0,0.4l0.9-0.3c-0.3,0.2-0.5,0.3-0.9,0.6c0,0.1,1.3-0.2,0,0.4c0.2,0,0.2,0.2,1.1-0.3c0.5-0.4-0.7,0.1,0.5-0.5
				c-1,0.5,0.2,0.2,0.6,0.1l-0.5,0.2c0.2,0,0.2,0.1,0.7-0.1c-0.3,0.1-0.6,0.3-0.8,0.4l0.8-0.3c0.5,0-1.3,0.6-1,0.7l-0.7,0.1
				c0.1,0-0.6,0.4-0.3,0.3c0.7-0.3,1.6-0.6,2.2-0.8c0.4,0-0.8,0.4,0,0.2l-0.9,0.2c-0.2,0.1-1.1,0.6-1,0.7c0.3,0,1.4-0.3,1.7-0.6
				c0,0.1-0.3,0.4-0.9,0.5c0.3,0.1,0.8-0.4,1.3-0.4c-0.4,0.3-1,0.7-1.7,1.2l-1.2,0.4l0,0.1c-1,0.3-0.7,0.4-1.7,0.7
				c-0.1,0.1,0.2,0.1,0.5,0c1.5-0.9,2.3-0.7,3.7-1.4c0.5,0.1-3.5,1.7-1.1,1c0.4-0.2,1.5-0.6,1-0.6c-0.1,0.2,1.5-0.5,1-0.1
				c-0.7,0.1-1.4,0.8-2.4,1c0.5-0.2,0.3-0.3,0.2-0.3c-0.5,0.3-1.5,0.6-1.4,0.8c0.2,0,0.3,0.2,1-0.2c0.8-0.4-0.2-0.1,0.7-0.4
				c0.4,0.1-0.9,0.7,0.7,0.1c-0.2-0.1,0.7-0.5,1.2-0.7l0.4,0l-0.6,0.2c-0.3,0.4,1-0.4,1-0.1l-1,0.6c-1,0.4,0.3-0.5-1.3,0.2
				c0,0.2,0.8-0.1,0.5,0.2l-0.4,0c0,0.1-2,1-0.7,0.7c0.5-0.1,0.6-0.2,1.1-0.5c0.3,0.2,0.9,0,1.1,0.1c-1.1,0.5,0,0.3-1.2,0.7
				c0.6-0.4,0.4-0.7-0.7-0.3c-1.3,0.7,0.1-0.3-1.3,0.2c0.1,0.2-1.3,0.8-2.1,1.2c0,0.1,0.4,0,0.5,0c0.8-0.3,0.8-0.4,1.6-0.8
				c-0.1,0.3,0.4,0.3,1.3,0.1c-0.4,0.2-1.2,0.6-1.3,0.5c0.4,0.2,0.4,0.5,0.2,0.9c1.2-0.7,0.4,0.2,1.5-0.4c0.2-0.3,1.1-0.8,1.7-1
				c0,0.1-0.6,0.2-0.8,0.4c0.8-0.2-1.1,0.7,0.1,0.3c-0.5-0.1-1.6,0.7-2.7,1.1c0.7-0.1-0.7,0.3-0.7,0.5c0.7-0.1,1.2,0,1.5,0.1
				c-0.9,0.7,0.3,0.6,0.4,0.8c-0.5,0.3-1.7,0.8-1.8,1c0.1,0.1,1.2-0.7,0.8-0.2L551,92c0.3,0-0.6,0.7,1.1,0.1l-1.3,0.5
				c-0.1,0.1,0.2,0,0.4,0c-0.4,0.2-0.8,0.4-1.1,0.4c-0.8,0.5,0.3,0.2,0.4,0.4l0.7-0.4c0.7,0,0,0.5,0.4,0.6l-0.7,0.3l0.5,0
				c-0.7,0.3-1.1,0.6-0.5,0.4l-2,0.4c0.4-0.3,0.9-0.3,1.6-0.6c0.6-0.3,0.3-0.5-0.4-0.2c0,0.1,0.1,0.1,0.4,0c-1,0.5-1,0.3-1.7,0.6
				c0.1,0-0.2,0.2,0.1,0.1c-0.5,0.1-0.7,0.1-0.7-0.1c0.4-0.1,0.6-0.3,0.9-0.4c-0.9,0.4-1.2,0.4-1.1,0.1c1-0.6-0.8-0.1-0.6-0.4
				c0.9-0.3,1.7-0.5,2.1-0.5c0.4-0.3-0.1-0.1,0.3-0.5c-0.7,0.2-1.8,0.6-2.3,0.6l0.7-0.3c-0.4,0-1.4,0.4-1.3,0.1c0.2-0.5,0-0.8,0-1.1
				l0.7-0.3c-1.5,0.5-0.7-0.3-1.5-0.2c0.5-0.6-1-0.4,0.1-1.1c-0.8-0.4-1.5-0.7-1.5-1.4l1-0.3c-0.8,0.2,0.5-0.3,0.3-0.4
				c-0.7,0.5-1.1,0.3-1.7,0.5c0.6-0.6-0.3-0.6-1.1-0.5l0.7-0.3c-1.4,0.3-0.4-0.5-0.3-0.9c0.3-0.2,0.9-0.5,0.8-0.5
				c-1.2,0.3-1.1,0.2-1.9,0.2c-0.1-0.2,0.1-0.6,0.4-0.9c-1.8,0-1.1-1.1-2.3-1.4l0.8-0.4c-2,0.1-0.8-1.4-1.9-1.6l1.4-0.5
				c0.3-0.4-0.5-0.3-1.5,0.2c0.3-0.4-0.8-0.2,0.2-0.8c0.2-0.3-0.7,0-1,0c0.3-0.6,0.2-0.7-0.2-0.9l0,0.1c0.3-0.1,0.9-0.3,0.9-0.5
				c-0.4,0,0.2-0.6-1.4,0.2c0.8-0.8-1.1-0.5,0-1.4c-0.4,0.2-0.5,0.2-0.9,0.3c-0.2-0.3,0.6-1-0.3-1c0.2-0.1,0.8-0.2,0.8-0.4
				c-0.2,0-0.6,0.2-0.9,0.3c-1-0.2,0.4-1.4,0-1.8c-1.2-0.5-1.2-1.6-1.7-2.3l0.3-0.1c-1.4,0.3,1-1.2-1-0.6c0.3-0.2,0-0.3,0.7-0.5
				c-1,0.2,0.6-1-0.7-0.8c0,0,0.1,0,0.2,0c0.6-0.6-0.5-0.5,0-1.1c0.2,0,0.3,0,0.6-0.1c0.6-0.4-1.5,0.3,0-0.5c0-0.1-0.8,0.3-0.7,0.3
				c0.3-1-1-1.3-1.7-2c0.7-0.9,2.6-1.2,1.3-1.1c0.3-0.2-0.6,0.2-0.3,0.1c-0.5,0,1.6-1,0.8-0.8c-0.9,0.5-0.6,0.2-1.2,0.4
				c0.5-0.6,1.3-1,0.5-1l0.5-0.2c-1.6,0.3-0.9-0.4-2.7,0.1c-1-1.6-2.7-2.8-3.6-4.4c-0.4-1.8-1.8-3.1-1.7-5.1c1.1-1,1.1-1,0.4-1.2
				c0.2-0.1,0.3-0.1,0.5-0.2c-1.1,0.5-0.2-0.3-1.3,0.2c-0.1-0.7-0.6-1.1-0.9-1.8c0.2,0,1.1-0.3,0.9-0.4l-0.7,0.2l0.3-0.2
				c-0.2,0-0.8,0.1-1.1,0.4c-1.6-1.2-0.1-3.7-1.1-5.1c0.3-0.6-0.4-0.9-0.7-1.2c0.9-1.8,1.6-3.4,0.1-4.2
				C522.4,42.9,525.3,41.9,526.1,42.1z"/>
			<path class="st6" d="M548.5,95.4c0.5-0.3,0.8-0.5,1.5-0.7C549.6,94.8,549,95.2,548.5,95.4z"/>
			<path class="st6" d="M552.5,89.2c-0.2,0.1,0.2-0.1,0.3-0.2c0.1,0,0.5-0.1,0.3,0C553,89,552.7,89.2,552.5,89.2z"/>
			<path class="st6" d="M552.4,88.1c0.5-0.2,1-0.2,1.1-0.1L552.4,88.1z"/>
			<path class="st6" d="M554,86.4c0.4-0.3,0.6-0.3,0.6-0.2C554.4,86.3,554.2,86.3,554,86.4z"/>
			<path class="st6" d="M552.9,86.8c0-0.1,0.2-0.2,0.5-0.4C553,86.6,553.7,86.5,552.9,86.8z"/>
			<path class="st6" d="M553.5,84.3c-0.1,0-0.5,0,0-0.2C553.1,84.3,554.2,84,553.5,84.3z"/>
			<path class="st6" d="M552.3,83.7C552.4,83.7,552.4,83.6,552.3,83.7c0.2-0.2,0.5-0.3,0.6-0.3L552.3,83.7z"/>
			<polygon class="st6" points="543.4,68.4 543.6,68.4 543.2,68.5 			"/>
			<path class="st6" d="M540.2,61.3c-0.3,0,0.4-0.3,0.5-0.3C540.8,61,540.1,61.2,540.2,61.3z"/>
			<polygon class="st6" points="536.2,58.5 536.2,58.5 535.2,58.9 			"/>
		</g>
		<g>
			<path class="st6" d="M613.7,89.3c0.2,0.3,0.9,0.1,0.4,0.2C613.7,89.4,613.4,89.3,613.7,89.3z"/>
			<path class="st6" d="M628.1,35.4c2.5,1.3-0.4,1.5,1.1,2.6c0.1,0.1-1.5-0.4-1.1-0.1c1.9,1.2,0.4,2-1.4,2.4l-0.4-0.2
				c-0.3,0.1,1,0.6,0.7,0.7c-0.3-0.1-0.4-0.2-0.8-0.2c0.8,0.3,0.3,0.4,0.9,0.6c-0.3,0-1-0.2-1.4-0.2l0.9,0.3
				c2.2,0.8-0.3,0.6,0.7,1.3l-0.6-0.2c1.2,0.9,0.8,1.6,1.1,2.4c-0.3-0.1-0.9-0.3-1.3-0.3c1,0.3,1.2,0.6,1.3,0.8
				c-1-0.2,0.8,0.5,0.2,0.6l-0.2-0.1c1,0.4-0.7,0.1,0.6,0.5l-0.8-0.1c1.4,0.4-0.8,0-0.1,0.3l0.3,0.1c0.3,0.2-0.4,0.1-0.2,0.3l-0.2,0
				c0.3,0.4-0.5,0.3,0.6,0.6c-0.9-0.1-0.3-0.4-1.7-0.5c0.9,1.1,0.5,2,0.3,2.8c-0.5,0-0.6,0-1.1-0.1c0.2,0.1,0.1,0.4,0.7,0.6
				c0,0-0.6-0.1-0.7-0.1c-0.5,0,1.2,0.5,0.6,0.5c-0.3-0.1-0.6-0.3-1.1-0.3c0.8,0.4,0.6,0.5,0.9,0.8c-0.2-0.1-0.3-0.1-0.6-0.2
				c0.9,0.4-0.3,0.3,0.3,0.6l-0.6-0.2c-0.9,0.1,1.3,0.4,0.8,0.5c-0.2-0.1-0.4-0.2-0.7-0.2c1.1,0.5,0.6,0.8,1,1.1
				c-0.1,0-0.3-0.1-0.3-0.1c0.1,0.3-0.3,0.4,0.1,0.8c-0.3,0-1.6-0.4-1.4-0.1c1.3,0.3,0.4,0.6,1.9,0.8c-0.3,0.2-0.8,0.4-0.4,0.6
				c-0.5-0.2-1.6-0.3-1.7-0.5l-0.8-0.1c-0.5-0.2,0.2-0.1-0.5-0.2c0,0.1,0.5,0.5,0.2,0.5c0.8,0.4,2.2,0.9,2.3,1.2
				c-0.5-0.3-1.4-0.3-1.6-0.4l2.4,1c0,0.1-1-0.2-0.7,0c0.3,0.1,0.5,0.2,0.8,0.3c-0.2,0,0.2,0.4-1.1,0.2c-0.5-0.1-0.2-0.2-0.7-0.2
				c0,0.2,0.4,0.3,0.4,0.5l-0.2,0c-0.2,0.1,0.5,0.5,1.2,0.5c0.1-0.1-0.8-0.2-0.4-0.2c0.7,0.3,0.9,0.5,0.8,0.7
				c-0.2-0.1-0.5-0.2-0.9-0.3c0.9,0.5,1.2,0.8,1.6,1.1c0.6,0.2-1.1-0.4-0.8-0.3c-0.9,0.1,1,0.9-0.3,0.9c-0.1-0.1,0.9,0.2,0.7,0.2
				c-0.1,0.1-1-0.1-0.7,0.1c-0.5-0.1,0.1,0.2,0.3,0.3c0.4,0.1-0.3,0-0.3-0.1c0.4,0.3,1,1,0.2,1.1c0.3,0.1,1.2,0.5,1.1,0.6l-0.8-0.2
				c-0.5-0.1,0,0.3-0.7,0.1c0.9,0.4-0.7-0.8,0-0.4c-0.7-0.1,1.2,0.6,0.1,0.3c0,0.2,0.9,0.5,0.1,0.5c0.1,0-1.1-0.4-1-0.3
				c0.1,0.2,0.4,0.2,0.6,0.4l0.3,0.2c0.8,0.2-0.2,0.2,0.7,0.3c-0.6-0.1,0.3,0.4-1,0.1l-1-0.3c0.1,0.1,1,0.4,1.5,0.6
				c-0.1,0-0.3,0-0.5-0.1c1.5,0.4-0.2,0.2,1,0.6c-0.6,0.1-0.2,0.5-1.2,0.3c0.4,0.3,1,0.5,0.6,0.6c-0.1-0.1-0.2-0.1-0.5-0.2
				c-0.5,0-0.1,0.1,0.1,0.3c-0.2-0.1-1,0-1.5,0c0.4,0.3,1.3,0.4,1.8,0.6c-1.6-0.3,0.9,0.7-0.6,0.5c-0.2-0.1-0.7-0.4-1.1-0.4
				c-1.6-0.3,1.1,0.6,0.3,0.6l1.3,0.3c-0.8-0.1,0.7,0.5-0.6,0.2c0.4,0.2-0.5,0.1,0.8,0.4c-1.1,0.1,0.4,1-1.9,0.7
				c0.2,0.1,0,0.2,0.6,0.3c0.7,0.1-0.5-0.2,0-0.2c0,0.1,0.4,0.2,0.5,0.2c-0.3,0-0.4,0.1-1.4-0.3c-0.8,0.1,2,0.8,1.5,1
				c-0.5-0.1-0.7-0.2-0.6-0.1l0.8,0.4c-0.3,0.2-1.2-0.2-2.1-0.4c0.1,0.1,0,0.3,0.7,0.5l-1.1-0.1c0.8,0.1,0.5,0.2,0.7,0.3l-0.2-0.1
				c-0.4-0.1-0.2,0.1-0.1,0.2c0.5,0.1,0.8,0,1,0c0.4,0.2,0.3,0.2,0.7,0.4c-0.8-0.2-0.7,0-0.8,0.1c-0.2,0.1,0.7,0.3,0.7,0.3
				c-0.4-0.1-0.1,0.1-0.7-0.1c-0.1-0.1,0.4,0,0.1-0.1c-0.3,0-1.1-0.2-0.6,0.1c0.4,0.2,1.7,0.4,1.1,0.5c-0.2-0.1-0.5-0.2-0.8-0.3
				l-0.5,0.1l0.8,0.2c-0.2,0-0.3-0.1-0.4-0.1c0.8,0.3,0.2,0.3,1.1,0.6c0.1,0.1-0.6,0.1-0.7,0.1l-0.1,0c-0.5,0-0.2,0.2,0.3,0.4
				l-0.2,0c-0.1,0,0,0.2,0.4,0.4c-0.6,0-2.9-0.7-2-0.3c0,0.2,1.4,0.6,1.9,0.7c-0.6,0.1,0.6,0.8-0.7,0.7c0.3,0.1,0.5,0.1,0.7,0.3
				c-0.4,0.3,0.7,1.1-0.9,1c-0.3-0.2-0.8-0.2-1.2-0.3c0.7,0.3-0.8-0.1,0.4,0.3c0.7,0.2,1,0.3,1.4,0.2c0.3,0.3,0.2,0.7-0.5,0.7
				c0.3,0,0.5,0.1,0.7,0.2c-1.1-0.3-1.3-0.2-1,0.1l0.7,0.2l-0.7-0.1c0.2,0.1,1.4,0.4,0.7,0.4c-0.3-0.1-0.5-0.1-0.7-0.1
				c0.5,0.3,1.4,0.7,0.8,0.7l-1-0.1c0.1,0.1,0.7,0.4,1,0.3c-0.7,0.1-0.8,0.2-1.7,0.1c2,1,1.9,1.6,1.6,2.1l-0.5-0.1
				c-0.5,0,0.9,0.3,0.5,0.3c-0.5-0.2-1.1-0.2-1.7-0.4c-0.6,0.1,0.8,0.5,1,0.7c0.7,0.2-0.4-0.2,0.4,0c0.2,0.1-0.6,0.1,0.4,0.4
				c-0.4-0.1-1.1-0.3-1.6-0.4l0.5,0.2c-1.2-0.2-2-0.9-3.5-1.1l0.1,0.1c-1.1-0.2-1.1-0.6-1.6-0.4c0.5,0.2,1.9,0.7,2.4,0.7
				c0.2,0.3,2.4,0.7,2.2,1c-0.6-0.1-0.1-0.2-0.9-0.4c-0.8-0.1,0.4,0.4,0.1,0.4c0.4,0,1.4,0.3,1.6,0.5c-0.5,0-0.9-0.3-1.1-0.2
				c0.6,0.2,1,0.5,1.4,0.4c1.3,0.4-0.4,0.1,0.6,0.5c-1-0.2-2.1-0.7-2.6-0.7c0.9,0.2,1.2,0.6,2.5,0.8c-0.3,0-1-0.2-1.5-0.4
				c-0.6,0,1.6,0.7-0.2,0.3l0.9,0.3c-0.3,0-0.6,0-1.1-0.1c0,0.1,1.2,0.7-0.2,0.3c0.1,0.1,0,0.3,1,0.4c0.6,0-0.7-0.3,0.7-0.1
				c-1.1-0.2,0.1,0.2,0.4,0.4l-0.5-0.1c0.2,0.1,0,0.2,0.6,0.4c-0.3-0.1-0.7-0.2-0.8-0.2l0.8,0.3c0.4,0.3-1.5-0.3-1.3-0.1l-0.6-0.3
				c0.1,0.1-0.7-0.1-0.4,0.1c0.7,0.2,1.6,0.5,2.2,0.7c0.3,0.2-0.9-0.2-0.1,0.1l-0.9-0.4c-0.2-0.1-1.3-0.2-1.3-0.1
				c0.2,0.2,1.3,0.6,1.7,0.5c0,0.1-0.5,0.1-1-0.1c0.2,0.2,0.8,0.2,1.2,0.4c-0.5-0.1-1.3-0.1-2-0.1l-1.2-0.5l0,0.1
				c-1-0.4-0.8-0.1-1.8-0.5c-0.2,0,0.2,0.2,0.4,0.3c1.7,0.2,2.3,0.8,3.8,1.2c0.3,0.4-3.8-0.8-1.5,0.1c0.4,0.1,1.6,0.5,1.2,0.2
				c-0.2,0.1,1.5,0.5,0.8,0.6c-0.6-0.3-1.6-0.2-2.5-0.7c0.5,0.1,0.4,0,0.3-0.1c-0.6-0.1-1.5-0.4-1.6-0.2c0.1,0.1,0.1,0.3,0.9,0.5
				c0.9,0.2-0.1-0.2,0.8,0.1c0.3,0.3-1.1,0,0.4,0.5c-0.1-0.2,0.8,0,1.4,0.2l0.3,0.3l-0.6-0.2c-0.5,0.1,1,0.3,0.8,0.6l-1.2-0.2
				c-1-0.3,0.5-0.2-1.1-0.6c-0.1,0.1,0.7,0.4,0.2,0.5l-0.3-0.2c-0.1,0-2.2-0.4-1,0.1c0.5,0.2,0.6,0.2,1.2,0.3
				c0.1,0.3,0.7,0.5,0.8,0.7c-1.2-0.3-0.2,0.3-1.4-0.2c0.7,0.1,0.7-0.3-0.4-0.7c-1.4-0.3,0.2-0.2-1.2-0.6c-0.1,0.2-1.5-0.2-2.4-0.4
				c-0.1,0,0.3,0.2,0.4,0.3c0.8,0.2,0.9,0.2,1.7,0.4c-0.3,0.2,0.1,0.5,0.9,0.9c-0.4,0-1.3-0.3-1.3-0.4c0.2,0.3,0,0.6-0.3,0.8
				c1.4,0.2,0.3,0.4,1.4,0.6c0.3-0.1,1.4,0.1,2,0.3c-0.1,0.1-0.6-0.2-0.9-0.2c0.7,0.3-1.3-0.1-0.1,0.3c-0.4-0.4-1.7-0.5-2.8-0.8
				c0.6,0.3-0.8-0.2-0.8,0c0.6,0.3,1,0.7,1.2,0.9c-1.1,0-0.2,0.6-0.2,0.9c-0.6,0-1.8-0.4-2-0.3c0,0.2,1.4,0.2,0.7,0.3l-0.2-0.1
				c0.3,0.1-0.9,0.2,0.8,0.7l-1.3-0.4c-0.1,0,0.2,0.1,0.3,0.2c-0.4-0.1-0.8-0.2-1.1-0.3c-1-0.1,0.1,0.3,0.1,0.5l0.8,0.1
				c0.6,0.4-0.3,0.4-0.1,0.7l-0.8-0.2l0.4,0.3c-0.7-0.2-1.3-0.2-0.7,0l-1.8-0.9c0.5,0,0.9,0.4,1.7,0.5c0.7,0.1,0.5-0.2-0.2-0.4
				c-0.1,0.1,0.1,0.1,0.3,0.3c-1.1-0.2-1-0.4-1.7-0.6c0,0.1-0.3,0,0,0.1c-0.5-0.2-0.6-0.3-0.5-0.5c0.4,0.2,0.7,0.1,1,0.2
				c-0.9-0.3-1.2-0.5-0.9-0.6c1.1,0.1-0.6-0.5-0.3-0.7c0.9,0.3,1.7,0.6,2,0.9c0.5,0,0-0.2,0.5-0.2c-0.7-0.2-1.8-0.6-2.2-0.9l0.7,0.2
				c-0.3-0.3-1.4-0.5-1.1-0.7c0.4-0.3,0.5-0.6,0.7-0.9l0.7,0.2c-1.5-0.5-0.4-0.6-1.1-1c0.8-0.2-0.5-0.9,0.8-0.8
				c-0.4-0.7-0.8-1.4-0.4-2l1,0.4c-0.7-0.3,0.6,0.1,0.5-0.1c-0.9-0.1-1-0.4-1.6-0.7c0.9-0.1,0.1-0.6-0.6-1.1l0.7,0.2
				c-1.3-0.6,0-0.6,0.3-0.8c0.3,0,1,0.2,0.9,0c-1.1-0.5-1-0.5-1.7-1c0-0.2,0.4-0.4,0.9-0.5c-1.4-1.1-0.2-1.5-1-2.5l0.8,0.2
				c-1.6-1.1,0.2-1.6-0.5-2.4l1.4,0.4c0.5-0.1-0.3-0.5-1.3-0.7c0.5-0.1-0.6-0.6,0.6-0.4c0.3-0.1-0.6-0.4-0.8-0.6
				c0.6-0.2,0.5-0.4,0.4-0.8l-0.1,0.1c0.3,0.1,0.9,0.3,1,0.2c-0.4-0.2,0.5-0.4-1.2-0.7c1.1-0.1-0.6-1.1,0.8-1.1
				c-0.5-0.1-0.5-0.2-0.8-0.3c0.1-0.3,1.1-0.4,0.4-0.9c0.2,0,0.8,0.3,0.9,0.2c-0.2-0.1-0.6-0.2-0.8-0.3c-0.7-0.8,1.2-0.9,1.1-1.4
				c-0.7-1.1,0-1.9,0.1-2.7l0.3,0.1c-1.2-0.6,1.5-0.3-0.4-1c0.3,0,0.2-0.2,0.9,0c-0.9-0.5,1-0.4-0.1-1c0,0,0,0.1,0.2,0.1
				c0.8-0.1-0.1-0.7,0.6-0.8c0.1,0.1,0.2,0.2,0.6,0.3c0.7,0-1.4-0.7,0.3-0.3c0-0.1-0.8-0.3-0.8-0.2c0.8-0.6,0-1.6-0.2-2.5
				c1.1-0.3,2.8,0.7,1.7-0.1c0.3,0-0.6-0.2-0.3-0.1c-0.4-0.3,1.9,0.2,1.1-0.1c-1-0.2-0.5-0.2-1.2-0.4c0.7-0.2,1.7,0,1-0.5l0.5,0.2
				c-1.4-0.7-0.5-0.9-2.2-1.6c0.1-1.8-0.4-3.7-0.2-5.4c0.8-1.6,0.4-3.4,1.7-4.9c1.5,0,1.5-0.1,1-0.7c0.2,0.1,0.3,0.1,0.5,0.1
				c-1.1-0.3,0-0.3-1.1-0.7c0.4-0.6,0.2-1.2,0.4-1.9c0.1,0.1,1,0.4,1,0.3l-0.7-0.3l0.3,0.1c-0.1-0.1-0.7-0.4-1.1-0.4
				c-0.6-1.9,2.1-2.9,2.2-4.5c0.6-0.3,0.3-0.9,0.1-1.4c1.8-0.8,3.3-1.6,2.6-3.1C624.6,33.8,627.6,34.7,628.1,35.4z"/>
			<path class="st6" d="M613.7,89c0.6,0.1,0.9,0,1.7,0.3C614.8,89.2,614.2,89.2,613.7,89z"/>
			<path class="st6" d="M620.5,86.8c-0.2,0,0.2,0,0.3,0c0,0.1,0.5,0.2,0.2,0.2C621,86.9,620.8,86.8,620.5,86.8z"/>
			<path class="st6" d="M621.1,85.9c0.5,0.1,0.9,0.5,0.9,0.6L621.1,85.9z"/>
			<path class="st6" d="M623.4,85.5c0.4,0,0.7,0.1,0.6,0.2C623.8,85.7,623.7,85.6,623.4,85.5z"/>
			<path class="st6" d="M622.3,85.2c0-0.1,0.3,0,0.6,0C622.5,85.1,623.1,85.4,622.3,85.2z"/>
			<path class="st6" d="M624.3,83.6c0-0.1-0.4-0.3,0.2-0.2C624,83.4,625,83.8,624.3,83.6z"/>
			<path class="st6" d="M623.7,82.5C623.8,82.5,623.9,82.5,623.7,82.5c0.3-0.1,0.6,0.1,0.6,0.1L623.7,82.5z"/>
			<polygon class="st6" points="625.9,65.5 626.1,65.7 625.6,65.5 			"/>
			<path class="st6" d="M627.7,58.3c-0.3-0.2,0.5,0.1,0.6,0.1C628.3,58.5,627.7,58.2,627.7,58.3z"/>
			<polygon class="st6" points="626.2,53.8 626.2,53.8 625.1,53.5 			"/>
		</g>
		<g>
			<path class="st6" d="M681.7,109.5c0,0.3,0.8,0.5,0.2,0.4C681.6,109.6,681.4,109.3,681.7,109.5z"/>
			<path class="st6" d="M721.6,65.4c1.6,2.4-1.1,1.2-0.3,3c0,0.1-1.1-1-1-0.6c1.1,2-0.6,2-2.5,1.6l-0.3-0.3c-0.3-0.1,0.6,1,0.3,1
				c-0.2-0.2-0.3-0.3-0.6-0.5c0.6,0.6,0.1,0.5,0.5,1c-0.3-0.2-0.8-0.6-1.1-0.8l0.7,0.7c1.5,1.7-0.6,0.4,0,1.5l-0.4-0.4
				c0.6,1.4-0.1,1.8-0.2,2.7c-0.2-0.2-0.7-0.7-1-0.9c0.7,0.7,0.8,1,0.8,1.3c-0.8-0.6,0.5,0.9-0.1,0.7l-0.2-0.2
				c0.7,0.9-0.6-0.2,0.3,0.7l-0.7-0.5c1.1,1-0.7-0.3-0.3,0.3l0.2,0.2c0.2,0.3-0.4-0.1-0.3,0.2l-0.1-0.1c0.1,0.5-0.6,0,0.2,0.8
				c-0.8-0.5-0.1-0.5-1.2-1.3c0.3,1.5-0.5,2.1-1.2,2.8c-0.4-0.2-0.6-0.3-0.9-0.5c0.1,0.2-0.1,0.4,0.3,0.9c0,0-0.5-0.3-0.6-0.3
				c-0.4-0.2,0.8,1,0.3,0.8c-0.2-0.3-0.4-0.5-0.8-0.8c0.6,0.7,0.3,0.8,0.4,1.1c-0.1-0.1-0.2-0.3-0.5-0.5c0.6,0.8-0.4,0.1-0.1,0.7
				l-0.5-0.5c-0.8-0.3,1,1,0.5,0.9c-0.1-0.2-0.3-0.3-0.5-0.5c0.7,1,0.2,1,0.3,1.4c-0.1-0.1-0.2-0.2-0.2-0.2
				c-0.1,0.3-0.5,0.2-0.3,0.8c-0.3-0.1-1.2-1.1-1.2-0.7c1,0.9,0.1,0.7,1.3,1.6c-0.3,0-0.9,0-0.7,0.4c-0.3-0.4-1.3-1-1.3-1.2
				l-0.7-0.4c-0.4-0.4,0.2,0-0.3-0.4c0,0.1,0.2,0.7,0,0.6c0.5,0.7,1.5,1.8,1.5,2.1c-0.3-0.4-1.2-0.9-1.3-1.1l1.6,2
				c0,0.1-0.8-0.7-0.6-0.3c0.3,0.2,0.4,0.4,0.6,0.6c-0.1-0.1,0,0.5-1-0.3c-0.4-0.3-0.1-0.3-0.5-0.5c-0.1,0.1,0.2,0.4,0.1,0.6
				l-0.1-0.1c-0.2,0,0.2,0.6,0.8,1c0.1,0-0.6-0.5-0.2-0.3c0.5,0.6,0.5,0.9,0.4,1c-0.1-0.2-0.4-0.4-0.6-0.7c0.6,0.9,0.7,1.3,0.8,1.8
				c0.5,0.4-0.8-0.8-0.5-0.6c-0.9-0.3,0.5,1.3-0.7,0.7c-0.1-0.1,0.7,0.6,0.5,0.5c-0.2,0.1-0.8-0.5-0.7-0.2c-0.4-0.3,0,0.2,0.1,0.4
				c0.2,0.3-0.2-0.2-0.2-0.3c0.2,0.4,0.4,1.4-0.4,1.2c0.3,0.2,0.8,1,0.7,1.1l-0.6-0.6c-0.4-0.3-0.1,0.3-0.7-0.2
				c0.6,0.8-0.2-1.1,0.2-0.4c-0.6-0.4,0.8,1.1,0,0.3c-0.1,0.1,0.5,0.9-0.2,0.5c0.1,0.1-0.8-0.9-0.8-0.7c0,0.3,0.3,0.3,0.3,0.6
				l0.2,0.3c0.6,0.5-0.2,0.1,0.5,0.6c-0.5-0.4,0.1,0.5-0.9-0.4l-0.8-0.7c0,0.1,0.7,0.9,1,1.2c-0.1-0.1-0.3-0.2-0.4-0.3
				c1.2,1.1-0.3,0.1,0.6,1c-0.6-0.2-0.4,0.4-1.2-0.2c0.3,0.4,0.6,0.9,0.2,0.8c-0.1-0.1-0.1-0.2-0.3-0.4c-0.4-0.2-0.1,0.1,0,0.3
				c-0.2-0.2-0.9-0.4-1.4-0.7c0.3,0.4,0.9,1,1.3,1.3c-1.3-0.9,0.5,1-0.7,0.2c-0.1-0.2-0.4-0.7-0.8-0.9c-1.3-0.9,0.7,1-0.1,0.7l1,0.8
				c-0.7-0.5,0.3,0.8-0.6-0.1c0.3,0.4-0.5-0.1,0.5,0.8c-1.1-0.4-0.1,1.1-2-0.2c0.1,0.2-0.1,0.1,0.4,0.6c0.6,0.4-0.3-0.4,0.1-0.1
				c0,0.1,0.3,0.3,0.4,0.4c-0.3-0.1-0.4-0.1-1.2-0.9c-0.8-0.3,1.4,1.7,0.8,1.6c-0.4-0.4-0.6-0.5-0.6-0.3l0.6,0.7
				c-0.3,0-1-0.7-1.7-1.3c0,0.2-0.1,0.3,0.4,0.8l-0.9-0.6c0.7,0.5,0.3,0.4,0.5,0.6l-0.1-0.2c-0.3-0.2-0.2,0-0.2,0.1
				c0.4,0.4,0.7,0.4,0.9,0.4c0.3,0.3,0.1,0.3,0.4,0.7c-0.6-0.6-0.6-0.3-0.7-0.3c-0.2,0,0.5,0.6,0.5,0.6c-0.3-0.3-0.2,0.1-0.6-0.4
				c-0.1-0.1,0.4,0.2,0.1-0.1c-0.3-0.2-0.9-0.7-0.6-0.2c0.3,0.4,1.3,1.1,0.8,0.9c-0.1-0.2-0.4-0.4-0.6-0.7l-0.5-0.2l0.6,0.5
				c-0.2-0.1-0.2-0.2-0.3-0.2c0.6,0.6,0,0.4,0.7,1.1c0,0.1-0.6-0.2-0.7-0.2l0-0.1c-0.4-0.2-0.3,0.1,0,0.5l-0.1-0.1
				c-0.1,0-0.1,0.2,0.2,0.6c-0.6-0.3-2.3-2-1.7-1.2c-0.1,0.1,0.9,1.2,1.4,1.5c-0.6-0.1,0.2,1-1,0.4c0.2,0.2,0.4,0.4,0.5,0.6
				c-0.5,0.1,0.1,1.3-1.3,0.5c-0.2-0.3-0.6-0.5-0.9-0.8c0.5,0.6-0.6-0.4,0.3,0.4c0.5,0.5,0.8,0.7,1.1,0.8c0.1,0.5-0.1,0.7-0.7,0.4
				c0.3,0.2,0.4,0.4,0.6,0.5c-0.9-0.8-1.1-0.8-0.9-0.4l0.5,0.5l-0.6-0.4c0.1,0.2,1.1,1,0.5,0.7c-0.2-0.2-0.4-0.4-0.6-0.5
				c0.3,0.5,0.9,1.3,0.4,1l-0.9-0.6c0,0.1,0.4,0.6,0.7,0.7c-0.6-0.2-0.8-0.1-1.5-0.6c1.3,1.8,0.9,2.4,0.4,2.7l-0.4-0.4
				c-0.5-0.2,0.6,0.7,0.3,0.5c-0.3-0.4-0.9-0.6-1.3-1.1c-0.6-0.2,0.5,0.8,0.6,1.1c0.5,0.5-0.3-0.4,0.4,0.2c0.2,0.2-0.6-0.1,0.2,0.6
				c-0.3-0.2-0.9-0.8-1.2-1.1l0.3,0.4c-1-0.7-1.4-1.7-2.6-2.6l0,0.2c-0.9-0.6-0.7-1.1-1.2-1.1c0.3,0.4,1.4,1.5,1.8,1.8
				c0,0.4,1.8,1.7,1.5,1.9c-0.5-0.3,0-0.3-0.6-0.8c-0.7-0.5,0.2,0.5-0.1,0.4c0.4,0.2,1.1,0.9,1.2,1.1c-0.5-0.2-0.7-0.7-0.9-0.6
				c0.4,0.4,0.6,0.9,1.1,1c1,1-0.4-0.1,0.3,0.7c-0.8-0.6-1.5-1.6-2-1.8c0.7,0.6,0.8,1.1,1.9,1.9c-0.3-0.1-0.8-0.6-1.2-1
				c-0.5-0.3,1.1,1.4-0.3,0.2l0.7,0.7c-0.3-0.2-0.5-0.3-0.9-0.6c-0.1,0.1,0.7,1.1-0.3,0.2c0.1,0.1-0.1,0.3,0.7,0.9
				c0.6,0.3-0.4-0.6,0.6,0.2c-0.9-0.6,0,0.3,0.2,0.6l-0.4-0.4c0.1,0.2-0.1,0.2,0.4,0.6c-0.2-0.2-0.5-0.5-0.6-0.5l0.6,0.6
				c0.2,0.4-1.1-0.9-1.1-0.6l-0.4-0.6c0.1,0.1-0.6-0.3-0.4-0.1c0.5,0.5,1.2,1.2,1.6,1.6c0.2,0.3-0.7-0.5-0.2,0.1l-0.6-0.7
				c-0.2-0.2-1-0.8-1.1-0.6c0.1,0.3,0.9,1.1,1.3,1.3c0,0.1-0.5-0.2-0.9-0.6c0.1,0.3,0.6,0.5,0.9,1c-0.4-0.3-1.1-0.6-1.8-1l-0.9-1
				l-0.1,0.1c-0.7-0.8-0.6-0.5-1.4-1.2c-0.2-0.1,0,0.3,0.2,0.5c1.5,1,1.6,1.8,2.8,2.8c0.1,0.5-3-2.4-1.4-0.5
				c0.3,0.2,1.1,1.2,0.9,0.7c-0.3,0,1.1,1.2,0.5,0.9c-0.4-0.6-1.3-0.9-1.9-1.7c0.4,0.4,0.4,0.2,0.3,0c-0.5-0.3-1.2-1.1-1.3-0.9
				c0,0.2-0.1,0.3,0.6,0.9c0.7,0.6,0-0.2,0.7,0.5c0.1,0.4-1-0.5,0.2,0.6c0-0.2,0.7,0.4,1.2,0.8l0.2,0.4l-0.4-0.4
				c-0.5-0.1,0.8,0.8,0.5,0.9l-1-0.7c-0.7-0.7,0.6,0-0.7-1.1c-0.2,0.1,0.4,0.7,0,0.5l-0.2-0.3c-0.1,0-1.8-1.4-1-0.4
				c0.3,0.4,0.4,0.4,0.9,0.8c0,0.3,0.4,0.8,0.3,1c-0.9-0.8-0.3,0.2-1.1-0.8c0.6,0.4,0.8,0.1,0-0.8c-1.2-0.9,0.3,0-0.8-1.1
				c-0.2,0.1-1.2-0.8-2-1.4c-0.1,0,0.2,0.3,0.2,0.4c0.6,0.6,0.7,0.5,1.4,1.1c-0.3,0-0.1,0.5,0.4,1.2c-0.4-0.2-1-0.8-1-1
				c0,0.4-0.3,0.6-0.7,0.6c1.2,0.8,0,0.5,1,1.2c0.3,0.1,1.2,0.7,1.6,1.2c-0.1,0-0.5-0.4-0.7-0.6c0.5,0.6-1.1-0.7-0.2,0.2
				c-0.2-0.5-1.3-1.2-2.1-2c0.3,0.6-0.6-0.5-0.7-0.4c0.3,0.6,0.5,1.1,0.6,1.4c-1-0.5-0.5,0.5-0.6,0.7c-0.5-0.3-1.4-1.2-1.7-1.2
				c-0.1,0.1,1.1,0.8,0.5,0.6l-0.2-0.2c0.2,0.2-0.9-0.2,0.4,1l-1-1c-0.1,0,0.1,0.2,0.2,0.3c-0.3-0.3-0.7-0.5-0.9-0.8
				c-0.8-0.5-0.1,0.3-0.2,0.5l0.7,0.5c0.3,0.6-0.4,0.2-0.4,0.6l-0.6-0.5l0.3,0.4c-0.6-0.5-1-0.8-0.6-0.3l-1.2-1.6
				c0.4,0.2,0.6,0.7,1.3,1.2c0.6,0.4,0.6,0.1,0-0.5c-0.1,0,0,0.1,0.2,0.4c-0.9-0.7-0.7-0.8-1.2-1.3c0,0.1-0.3-0.1,0,0.1
				c-0.3-0.4-0.3-0.6-0.2-0.7c0.3,0.4,0.6,0.4,0.8,0.7c-0.7-0.7-0.8-1-0.5-0.9c0.9,0.6-0.3-0.8,0.1-0.7c0.7,0.7,1.2,1.3,1.4,1.7
				c0.5,0.2,0.1-0.1,0.6,0.1c-0.5-0.5-1.3-1.3-1.5-1.8l0.6,0.5c-0.2-0.4-1-1.1-0.7-1.1c0.5,0,0.8-0.3,1-0.5l0.6,0.5
				c-1.1-1.2-0.1-0.8-0.4-1.4c0.8,0.2,0-1.1,1.1-0.4c0-0.9,0-1.7,0.6-2l0.7,0.8c-0.5-0.6,0.5,0.3,0.5,0.2c-0.7-0.5-0.7-0.9-1.1-1.3
				c0.8,0.3,0.4-0.6,0-1.3l0.6,0.5c-0.8-1.1,0.3-0.6,0.7-0.7c0.3,0.2,0.8,0.6,0.8,0.5c-0.8-0.9-0.6-0.9-1-1.6c0.1-0.1,0.6-0.2,1,0
				c-0.8-1.7,0.5-1.5,0.3-2.8l0.7,0.5c-0.9-1.8,1-1.4,0.7-2.5l1.1,1c0.5,0.1,0-0.6-0.8-1.2c0.5,0.1-0.2-0.8,0.8-0.1
				c0.3,0-0.3-0.6-0.4-0.9c0.7,0.1,0.7-0.1,0.7-0.6l-0.1,0c0.2,0.2,0.7,0.7,0.8,0.7c-0.2-0.4,0.6-0.1-0.8-1.2c1,0.4,0-1.3,1.3-0.7
				c-0.4-0.3-0.4-0.4-0.6-0.7c0.2-0.3,1.2,0.1,0.8-0.7c0.2,0.1,0.5,0.6,0.7,0.5c-0.1-0.2-0.5-0.4-0.6-0.7c-0.3-1,1.5-0.3,1.7-0.8
				c-0.1-1.3,0.9-1.8,1.4-2.5l0.3,0.2c-0.8-1.1,1.5,0.4,0.1-1.1c0.3,0.2,0.3-0.1,0.8,0.4c-0.5-0.8,1.1,0.1,0.4-1c0,0,0,0.1,0.1,0.2
				c0.8,0.2,0.2-0.7,1-0.5c0.1,0.1,0.1,0.3,0.4,0.5c0.6,0.3-0.9-1.2,0.4-0.2c0-0.1-0.6-0.6-0.6-0.5c1-0.2,0.8-1.5,1.1-2.4
				c1.2,0.2,2.2,1.9,1.5,0.7c0.3,0.2-0.5-0.5-0.2-0.2c-0.2-0.5,1.6,1,1,0.4c-0.8-0.6-0.4-0.5-0.9-0.9c0.8,0.2,1.5,0.7,1.1,0L703,83
				c-0.9-1.3,0-1-1.2-2.4c1-1.6,1.5-3.7,2.6-5.2c1.5-1.1,2.1-3,4-3.8c1.4,0.6,1.4,0.6,1.2-0.2c0.2,0.2,0.2,0.2,0.4,0.3
				c-0.9-0.8,0.1-0.3-0.7-1.1c0.6-0.4,0.8-1.1,1.3-1.6c0,0.2,0.7,0.8,0.7,0.7l-0.5-0.6l0.3,0.2c-0.1-0.2-0.4-0.6-0.8-0.8
				c0.4-2,3.3-1.7,4.3-3.2c0.6,0,0.7-0.7,0.8-1.2c2.1,0,3.8,0,3.9-1.8C719.3,62.4,721.4,64.5,721.6,65.4z"/>
			<path class="st6" d="M681.8,109.2c0.5,0.4,0.8,0.5,1.3,1.1C682.7,109.9,682.2,109.6,681.8,109.2z"/>
			<path class="st6" d="M689.1,110.2c-0.1-0.1,0.2,0.1,0.3,0.2c0,0.1,0.3,0.4,0.1,0.3C689.5,110.5,689.3,110.3,689.1,110.2z"/>
			<path class="st6" d="M690.1,109.6c0.4,0.4,0.5,0.8,0.5,0.9L690.1,109.6z"/>
			<path class="st6" d="M692.3,110.3c0.4,0.2,0.6,0.4,0.5,0.5C692.6,110.6,692.5,110.5,692.3,110.3z"/>
			<path class="st6" d="M691.5,109.5c0-0.1,0.3,0.1,0.6,0.3C691.7,109.4,692.1,110.1,691.5,109.5z"/>
			<path class="st6" d="M694.1,108.9c0-0.1-0.2-0.4,0.2-0.1C693.9,108.5,694.6,109.4,694.1,108.9z"/>
			<path class="st6" d="M694.1,107.6C694.2,107.6,694.2,107.6,694.1,107.6c0.3,0,0.5,0.3,0.5,0.4L694.1,107.6z"/>
			<polygon class="st6" points="704.5,92.6 704.7,92.9 704.3,92.5 			"/>
			<path class="st6" d="M709.8,86.7c-0.2-0.3,0.4,0.3,0.5,0.3C710.2,87.1,709.8,86.5,709.8,86.7z"/>
			<polygon class="st6" points="710.6,81.8 710.6,81.8 709.8,81.1 			"/>
		</g>
	</g>
	<g>
		<g>
			<g>
				<g>
					<g>
						<g>
							<path class="st7" d="M414.4,483.8c0,0-50.5-353.4,233.3-248.1c0,0,90.7,60.7,99.8,241.7C478.1,542.9,414.4,483.8,414.4,483.8
								z"/>
						</g>
					</g>
					<path class="st8" d="M362.3,130c83.1,102.9,128.5,12.5,226.8,11.4c93-1,124.4,77.3,124.4,77.3c121.5-16.6,34,258.6,34,258.6
						s-68.6,12.3-147.8,17.5c-15.5-49.3-28.5-98.2-28.5-98.2c0,0,27.3,17.9,29.3-8.2c2.7-35.9-32.2-10.4-32.2-10.4l-21.1-64.7
						C328,351.2,362.3,130,362.3,130z"/>
				</g>
				<path class="st8" d="M463.2,369c-2.3,8.5-8.1,14.4-13,13.1c-5-1.3-7.1-9.3-4.9-17.8c2.3-8.5,8.1-14.4,13.1-13.1
					C463.3,352.5,465.5,360.4,463.2,369z"/>
			</g>
			<path class="st8" d="M444.6,416.4l-33.4-7.9c-0.6,17.7-0.2,33.6,0.6,46.2l38.6,2.4L444.6,416.4z"/>
			<g>
				<path class="st7" d="M530.5,227.3c-3.4-6.3-5.4-3.5-9.5-2.2c2.7-1.8,4.9-5.8,3.6-8.2c-3.8-7-8.6-1.5-11.3,0
					c2.1-1.3,6.1-4.6,3.6-8.4c-2.3-3.5-6.5-1.7-9.3-1.1c1.6-1.1,3.4-4.9,1.3-8c-3.9-5.5-14.3,0.6-14.3,0.6s-173,78.6-183.3,188.4
					c-3,31.8,11.9,89,47.1,123.9l23.5-39c-21.1-22.5-29.7-58.4-26.2-82c8.3-56.4,85.9-112,164.3-151.8
					C520,239.6,534.6,234.9,530.5,227.3z"/>
				<path class="st9" d="M421.3,542l-4.7-49.1c-14-2.5-25.5-9.8-34.7-19.5l-23.5,39C374.8,528.7,395.7,540.2,421.3,542z"/>
			</g>
		</g>
		<path class="st9" d="M747.9,683.3l-0.5-205.9c0,0-220.2,40-333.1,6.4l22.3,199.5H747.9z"/>
	</g>
</g>
</svg>
