<?xml version="1.0" encoding="utf-8"?>
<!-- Generator: Adobe Illustrator 25.2.3, SVG Export Plug-In . SVG Version: 6.00 Build 0)  -->
<svg version="1.1" id="Layer_1" xmlns="http://www.w3.org/2000/svg" xmlns:xlink="http://www.w3.org/1999/xlink" x="0px" y="0px"
	 viewBox="0 0 4588.6 2185.8" style="enable-background:new 0 0 4588.6 2185.8;" xml:space="preserve">
<style type="text/css">
	.st0{opacity:0.21;fill:#231F20;}
	.st1{fill:#939598;}
	.st2{fill:#585756;}
	.st3{opacity:0.2;fill:#231F20;}
	.st4{fill:#F8B133;}
	.st5{fill:#FFFFFF;}
	.st6{fill:#414042;}
	.st7{opacity:0.49;fill:#231F20;}
</style>
<path class="st0" d="M4587.9,1528c1.6-8.9,0.1-17.9-3.8-25.6c-3.9-7.7-10.3-14.1-18.5-18.1c-29.7-14.4-90.6-26.2-193.6,26.2
	c-13.8,7-29.7,15.6-47.2,25.3l0,0l-76.2-61.4c15.9-6.8,29.4-13.7,38.8-18.9c8.7-4.8,13.8-8,13.8-8l-36-70.8c0,0-5.6,2.2-14.6,6.4
	c-15.7,7.3-41.7,20.8-66.5,39.2l-44.5-35.8c15.3-6.4,28.3-13.1,37.1-18c7.9-4.4,12.5-7.3,12.5-7.3l-16.4-32.2l-16.4-32.2
	c0,0-5.1,2-13.3,5.9c-14.6,6.8-39,19.4-62,36.8l-121.3-97.7c-0.9-0.7-2.1-0.9-3.2-0.3l-43.7,22.3c-1.6,0.8-2.1,2.8-1.1,4.2
	l241.3,369.4c-101.5,62.1-209.4,130.6-282.5,177.4c0.4-0.2,0.7-0.5,1.1-0.7l-9.1-7.1l-124.2-97l-23,11.7l84.3,126.6l5.7,8.5
	c-14.8,9.6-23.2,15-23.3,15.1c0,0,0,0,0,0s-3.7,19.4,5,36.5l0,0c8.7,17.1,26.6,25.5,26.6,25.5s9.3-3.6,25.9-10l3.6,9.6L3896,2076
	l23-11.7l-5.3-157.5l-0.4-11.6c-1,0.4-1.9,0.7-2.9,1.1c80.9-31.6,200.6-78.9,311.2-124.8l3.7,9.8l153.1,402.6
	c0.6,1.6,2.5,2.4,4.1,1.6l43.7-22.3c1-0.5,1.7-1.6,1.6-2.8l-7.6-155.6c27.5-8.4,52-20.7,66.1-28.5c7.9-4.4,12.5-7.3,12.5-7.3
	l-16.4-32.2l-16.4-32.2c0,0-5.1,2-13.3,5.9c-9.1,4.3-22.1,10.8-36.2,19.4l-2.8-57c29.4-9.2,55.5-22.3,70.7-30.7
	c8.7-4.8,13.8-8,13.8-8l-18-35.4l-18-35.4c0,0-5.6,2.2-14.6,6.4c-9.6,4.5-23.2,11.3-37.9,20.2l-4-82.5l-1-15.1
	c-0.4,0.2-0.9,0.4-1.3,0.6c18.7-8.6,35.4-16.7,49.5-23.8C4555.8,1616.7,4582.1,1560.6,4587.9,1528z"/>
<g>
	<g>
		<g>
			<g>
				<g>
					<path class="st1" d="M3948.9,956.9l43.6,85.6c0,0-6.1,3.9-16.7,9.7c-37.1,20.4-128.4,64.5-197.3,45.3l0,0
						c25-67,114.4-114.9,152.7-132.9C3942.1,959.6,3948.9,956.9,3948.9,956.9z"/>
				</g>
				<path class="st2" d="M3948.9,956.9l43.6,85.6c0,0-6.1,3.9-16.7,9.7l-44.6-87.6C3942.1,959.6,3948.9,956.9,3948.9,956.9z"/>
			</g>
			<path class="st3" d="M3970.7,999.7l21.8,42.8c0,0-6.1,3.9-16.7,9.7c-37.1,20.4-128.4,64.5-197.3,45.3l0,0L3970.7,999.7z"/>
		</g>
		<g>
			<g>
				<g>
					<path class="st1" d="M4093.3,1063.1l47.9,94c0,0-6.7,4.3-18.3,10.7c-40.7,22.4-141,70.8-216.6,49.8
						c27.4-73.5,125.6-126.2,167.7-145.9C4085.9,1066,4093.3,1063.1,4093.3,1063.1z"/>
				</g>
				<path class="st2" d="M4093.3,1063.1l47.9,94c0,0-6.7,4.3-18.3,10.7l-49-96.1C4085.9,1066,4093.3,1063.1,4093.3,1063.1z"/>
			</g>
			<path class="st3" d="M4117.3,1110.1l23.9,47c0,0-6.7,4.3-18.3,10.7c-40.7,22.4-141,70.8-216.6,49.8L4117.3,1110.1z"/>
		</g>
		<g>
			<g>
				<g>
					<path class="st1" d="M4403.7,1850l-43.6-85.6c0,0-6.8,2.7-17.6,7.8c-38.3,18-127.7,65.9-152.7,132.9l0,0
						c68.8,19.2,160.2-24.9,197.3-45.3C4397.5,1853.9,4403.7,1850,4403.7,1850z"/>
				</g>
				<path class="st2" d="M4403.7,1850l-43.6-85.6c0,0-6.8,2.7-17.6,7.8l44.6,87.6C4397.5,1853.9,4403.7,1850,4403.7,1850z"/>
			</g>
			<path class="st3" d="M4381.9,1807.1l-21.8-42.8c0,0-6.8,2.7-17.6,7.8c-38.3,18-127.7,65.9-152.7,132.9l0,0L4381.9,1807.1z"/>
		</g>
		<g>
			<g>
				<g>
					<path class="st1" d="M4402.8,1670.7l-47.9-94c0,0-7.4,2.9-19.4,8.5c-42.1,19.7-140.2,72.4-167.7,145.9
						c75.6,21,175.9-27.3,216.6-49.8C4396,1675,4402.8,1670.7,4402.8,1670.7z"/>
				</g>
				<path class="st2" d="M4402.8,1670.7l-47.9-94c0,0-7.4,2.9-19.4,8.5l49,96.1C4396,1675,4402.8,1670.7,4402.8,1670.7z"/>
			</g>
			<path class="st3" d="M4378.8,1623.7l-23.9-47c0,0-7.4,2.9-19.4,8.5c-42.1,19.7-140.2,72.4-167.7,145.9L4378.8,1623.7z"/>
		</g>
	</g>
	<path class="st4" d="M4517,1229.9c5.2,10.2,7.2,22.1,5,34c-7.8,43.2-42.6,117.8-179.4,187.5c-209,106.5-849.1,351.6-849.1,351.6
		s-23.7-11.1-35.3-33.8l0,0c-11.6-22.7-6.6-48.5-6.6-48.5s0,0,0,0c0.5-0.3,574.8-373.5,783.7-480c136.8-69.7,217.7-54,257.2-34.9
		C4503.3,1211.1,4511.8,1219.7,4517,1229.9z"/>
	<path class="st5" d="M3527.8,1789.7l4.7,12.8l70.2,189.4l30.5-15.5l-7.1-209.3l-0.5-15.4C3584.7,1767.7,3551,1780.8,3527.8,1789.7z
		"/>
	<path class="st5" d="M3482.5,1700.7c20.8-13.5,51.2-33,88.2-56.7l-12.1-9.5l-165.1-128.8l-30.5,15.5l111.9,168.2L3482.5,1700.7z"/>
	<path class="st5" d="M4035.4,1587.5l4.9,13l203.4,534.9c0.8,2.2,3.3,3.1,5.4,2.1l58.1-29.6c1.4-0.7,2.2-2.1,2.1-3.7l-29.5-601.9
		l-1.3-20.1C4212,1513,4126,1549.9,4035.4,1587.5z"/>
	<path class="st5" d="M3944.6,1409.2c83.7-51.2,164.1-99.1,228-134.8l-484.9-390.7c-1.2-1-2.8-1.1-4.2-0.4l-58.1,29.6
		c-2.1,1.1-2.8,3.7-1.5,5.6L3944.6,1409.2z"/>
	
		<ellipse transform="matrix(0.2465 -0.9691 0.9691 0.2465 1086.1166 4723.1167)" class="st6" cx="3580.6" cy="1663" rx="12.7" ry="12.7"/>
	
		<ellipse transform="matrix(0.2465 -0.9691 0.9691 0.2465 1131.3685 4740.8594)" class="st6" cx="3614.7" cy="1642.8" rx="12.7" ry="12.7"/>
	
		<ellipse transform="matrix(0.2465 -0.9691 0.9691 0.2465 1176.6205 4758.6025)" class="st6" cx="3648.7" cy="1622.6" rx="12.7" ry="12.7"/>
	
		<ellipse transform="matrix(0.2465 -0.9691 0.9691 0.2465 1221.8724 4776.3457)" class="st6" cx="3682.7" cy="1602.4" rx="12.7" ry="12.7"/>
	
		<ellipse transform="matrix(0.7474 -0.6643 0.6643 0.7474 -112.3552 2868.7048)" class="st6" cx="3716.8" cy="1582.1" rx="12.7" ry="12.7"/>
	
		<ellipse transform="matrix(0.2465 -0.9691 0.9691 0.2465 1312.3763 4811.832)" class="st6" cx="3750.8" cy="1561.9" rx="12.7" ry="12.7"/>
	
		<ellipse transform="matrix(0.2465 -0.9691 0.9691 0.2465 1357.6283 4829.5752)" class="st6" cx="3784.8" cy="1541.7" rx="12.7" ry="12.7"/>
	
		<ellipse transform="matrix(0.2465 -0.9691 0.9691 0.2465 1402.8805 4847.3184)" class="st6" cx="3818.9" cy="1521.4" rx="12.7" ry="12.7"/>
	
		<ellipse transform="matrix(0.2465 -0.9691 0.9691 0.2465 1448.1323 4865.061)" class="st6" cx="3852.9" cy="1501.2" rx="12.7" ry="12.7"/>
	<path class="st6" d="M3897.9,1474.5c3.6,6,1.6,13.8-4.4,17.4c-6,3.6-13.8,1.6-17.4-4.4c-3.6-6-1.6-13.8,4.4-17.4
		C3886.5,1466.5,3894.3,1468.4,3897.9,1474.5z"/>
	
		<ellipse transform="matrix(0.772 -0.6356 0.6356 0.772 -34.4766 2825.3586)" class="st6" cx="3921" cy="1460.7" rx="12.7" ry="12.7"/>
	
		<ellipse transform="matrix(0.2465 -0.9691 0.9691 0.2465 1583.9071 4918.3032)" class="st6" cx="3955" cy="1440.5" rx="12.7" ry="12.7"/>
	
		<ellipse transform="matrix(0.2465 -0.9691 0.9691 0.2465 1629.1404 4936.0337)" class="st6" cx="3989.1" cy="1420.3" rx="12.7" ry="12.7"/>
	<path class="st6" d="M4034,1393.6c3.6,6,1.6,13.8-4.4,17.4c-6,3.6-13.8,1.6-17.4-4.4c-3.6-6-1.6-13.8,4.4-17.4
		C4022.6,1385.5,4030.4,1387.5,4034,1393.6z"/>
	
		<ellipse transform="matrix(0.2465 -0.9691 0.9691 0.2465 1719.6443 4971.5195)" class="st6" cx="4057.1" cy="1379.8" rx="12.7" ry="12.7"/>
	
		<ellipse transform="matrix(0.2465 -0.9691 0.9691 0.2465 1764.8962 4989.2627)" class="st6" cx="4091.2" cy="1359.6" rx="12.7" ry="12.7"/>
	
		<ellipse transform="matrix(0.2465 -0.9691 0.9691 0.2465 1810.1482 5007.0059)" class="st6" cx="4125.2" cy="1339.3" rx="12.7" ry="12.7"/>
	
		<ellipse transform="matrix(0.2465 -0.9691 0.9691 0.2465 1855.4001 5024.749)" class="st6" cx="4159.2" cy="1319.1" rx="12.7" ry="12.7"/>
	
		<ellipse transform="matrix(0.2465 -0.9691 0.9691 0.2465 1900.6522 5042.4922)" class="st6" cx="4193.3" cy="1298.9" rx="12.7" ry="12.7"/>
	
		<ellipse transform="matrix(0.3706 -0.9288 0.9288 0.3706 666.8157 4448.9736)" class="st6" cx="3616" cy="1732.5" rx="12.7" ry="12.7"/>
	
		<ellipse transform="matrix(0.8485 -0.5293 0.5293 0.8485 -355.1859 2193.2271)" class="st6" cx="3652.4" cy="1716.9" rx="12.7" ry="12.7"/>
	<path class="st6" d="M3700.4,1696.2c-2.8-6.4-10.2-9.4-16.7-6.7c-6.4,2.8-9.4,10.2-6.7,16.7c2.8,6.4,10.2,9.4,16.7,6.7
		C3700.2,1710.1,3703.2,1702.7,3700.4,1696.2z"/>
	
		<ellipse transform="matrix(0.8675 -0.4975 0.4975 0.8675 -344.8777 2076.6226)" class="st6" cx="3725.1" cy="1685.6" rx="12.7" ry="12.7"/>
	<path class="st6" d="M3773.2,1665c-2.8-6.4-10.2-9.4-16.7-6.7c-6.4,2.8-9.4,10.2-6.7,16.7c2.8,6.4,10.2,9.4,16.7,6.7
		S3775.9,1671.4,3773.2,1665z"/>
	<circle class="st6" cx="3797.9" cy="1654.3" r="12.7"/>
	
		<ellipse transform="matrix(0.3706 -0.9288 0.9288 0.3706 891.3043 4592.6924)" class="st6" cx="3834.3" cy="1638.7" rx="12.7" ry="12.7"/>
	
		<ellipse transform="matrix(0.2703 -0.9628 0.9628 0.2703 1261.8789 4911.0444)" class="st6" cx="3870.6" cy="1623.1" rx="12.7" ry="12.7"/>
	<path class="st6" d="M3918.7,1602.4c-2.8-6.4-10.2-9.4-16.7-6.7c-6.4,2.8-9.4,10.2-6.7,16.7c2.8,6.4,10.2,9.4,16.7,6.7
		S3921.5,1608.9,3918.7,1602.4z"/>
	
		<ellipse transform="matrix(9.640001e-03 -1 1 9.640001e-03 2313.6399 5519.7114)" class="st6" cx="3943.4" cy="1591.8" rx="12.7" ry="12.7"/>
	<path class="st6" d="M3991.5,1571.2c-2.8-6.4-10.2-9.4-16.7-6.7c-6.4,2.8-9.4,10.2-6.7,16.7c2.8,6.4,10.2,9.4,16.7,6.7
		C3991.2,1585.1,3994.2,1577.6,3991.5,1571.2z"/>
	<path class="st6" d="M4027.8,1555.6c-2.8-6.4-10.2-9.4-16.7-6.7c-6.4,2.8-9.4,10.2-6.7,16.7c2.8,6.4,10.2,9.4,16.7,6.7
		C4027.6,1569.5,4030.6,1562,4027.8,1555.6z"/>
	
		<ellipse transform="matrix(0.9578 -0.2873 0.2873 0.9578 -273.0158 1229.5255)" class="st6" cx="4052.6" cy="1544.9" rx="12.7" ry="12.7"/>
	<path class="st6" d="M4100.6,1524.3c-2.8-6.4-10.2-9.4-16.7-6.7c-6.4,2.8-9.4,10.2-6.7,16.7c2.8,6.4,10.2,9.4,16.7,6.7
		C4100.4,1538.2,4103.4,1530.7,4100.6,1524.3z"/>
	
		<ellipse transform="matrix(0.3706 -0.9288 0.9288 0.3706 1190.6226 4784.3174)" class="st6" cx="4125.3" cy="1513.7" rx="12.7" ry="12.7"/>
	<path class="st6" d="M4173.4,1493c-2.8-6.4-10.2-9.4-16.7-6.7c-6.4,2.8-9.4,10.2-6.7,16.7c2.8,6.4,10.2,9.4,16.7,6.7
		S4176.1,1499.5,4173.4,1493z"/>
	
		<ellipse transform="matrix(0.6895 -0.7243 0.7243 0.6895 229.9244 3501.1392)" class="st6" cx="4198.1" cy="1482.4" rx="12.7" ry="12.7"/>
	<path class="st6" d="M4246.1,1461.8c-2.8-6.4-10.2-9.4-16.7-6.7c-6.4,2.8-9.4,10.2-6.7,16.7c2.8,6.4,10.2,9.4,16.7,6.7
		S4248.9,1468.2,4246.1,1461.8z"/>
	
		<ellipse transform="matrix(0.9983 -5.785390e-02 5.785390e-02 0.9983 -76.8023 249.5152)" class="st6" cx="4270.8" cy="1451.2" rx="12.7" ry="12.7"/>
	<g>
		<path class="st6" d="M4337.8,1247.3l28.4-14.5c-15.4-5.7-32.8-8.7-51.3-8.9l-18.1,9.2C4311.2,1235.4,4325.1,1240.2,4337.8,1247.3z
			"/>
		<path class="st6" d="M4350.7,1255.8c11.3,8.5,21.2,19.1,29.1,31.6l35-17.8c-8.4-12.3-19.7-22.1-33.1-29.5L4350.7,1255.8z"/>
		<path class="st6" d="M4429.4,1333.4c1.9-15.2,0.6-30.2-4.4-44.1l-35,17.8c5.5,13.7,8.2,28,8.4,42.1L4429.4,1333.4z"/>
		<path class="st6" d="M4397.5,1364.6c-1.7,14.5-6,28.5-12.7,41.4l18.1-9.2c10.8-15,18.6-30.8,23-46.7L4397.5,1364.6z"/>
	</g>
	<path class="st3" d="M4517,1229.9c5.2,10.2,7.2,22.1,5,34c-7.8,43.2-42.6,117.8-179.4,187.5c-209,106.5-849.1,351.6-849.1,351.6
		s-23.7-11.1-35.3-33.8L4517,1229.9z"/>
	<path class="st7" d="M4035.4,1587.5l4.9,13c39.5-14.1,118.8-48.4,239.5-98.1l-1.3-20.1C4212,1513,4126,1549.9,4035.4,1587.5z"/>
	<path class="st7" d="M3527.8,1789.7l4.7,12.8l93.6-35.4l-0.5-15.4C3584.7,1767.7,3551,1780.8,3527.8,1789.7z"/>
</g>
<g>
	<path class="st5" d="M1196.5,1334.2c-4.8,0-9.7-1.7-13.5-5.3c-24.5-22.5-47.8-46.9-69.1-72.5c-7.1-8.5-5.9-21.1,2.5-28.2
		c8.5-7.1,21.1-5.9,28.2,2.5c20.2,24.2,42.3,47.3,65.5,68.7c8.1,7.5,8.7,20.1,1.2,28.3C1207.3,1332,1201.9,1334.2,1196.5,1334.2z"/>
	<path class="st5" d="M1038.1,1129.9c-7.1,0-14-3.8-17.6-10.5c-15.9-29.3-30-59.9-41.9-91c-3.9-10.3,1.2-21.9,11.5-25.8
		c10.3-3.9,21.9,1.2,25.8,11.5c11.2,29.4,24.6,58.4,39.6,86.1c5.3,9.7,1.7,21.8-8,27.1C1044.5,1129.1,1041.3,1129.9,1038.1,1129.9z"
		/>
	<path class="st5" d="M2347.6,1107.7c-3,0-6.1-0.7-8.9-2.1c-9.9-4.9-13.9-17-8.9-26.8c14.1-28.3,26.5-57.7,36.7-87.6
		c3.6-10.4,15-16,25.4-12.4c10.4,3.6,16,15,12.4,25.4c-10.8,31.5-23.9,62.6-38.8,92.5C2362,1103.7,2355,1107.7,2347.6,1107.7z"/>
	<path class="st5" d="M959,900.3c-9.6,0-18.1-6.9-19.7-16.7c-5.5-32.8-8.8-66.3-9.9-99.7c-0.4-11,8.3-20.3,19.3-20.7
		c11-0.4,20.3,8.3,20.7,19.3c1.1,31.6,4.2,63.4,9.4,94.4c1.8,10.9-5.5,21.2-16.4,23C961.2,900.2,960.1,900.3,959,900.3z"/>
	<path class="st5" d="M2418.8,875.4c-0.9,0-1.8-0.1-2.6-0.2c-11-1.4-18.7-11.5-17.2-22.4c4.1-31.2,6.2-63,6.2-94.7l0-1.3
		c0-11,8.9-20,20-20c0,0,0,0,0,0c11,0,20,8.9,20,20l0,1.4c0,33.4-2.2,67-6.5,99.9C2437.3,868.1,2428.7,875.4,2418.8,875.4z"/>
	<path class="st5" d="M958.8,657.3c-1.1,0-2.2-0.1-3.3-0.3c-10.9-1.8-18.3-12.1-16.5-23c5.4-32.9,13.1-65.7,22.8-97.6
		c3.2-10.6,14.4-16.5,25-13.3c10.6,3.2,16.5,14.4,13.3,25c-9.2,30.1-16.5,61.2-21.6,92.4C976.9,650.4,968.4,657.3,958.8,657.3z"/>
	<path class="st5" d="M2410.5,631.3c-9.3,0-17.7-6.6-19.6-16c-6.2-30.9-14.6-61.7-24.9-91.6c-3.6-10.4,1.9-21.8,12.4-25.4
		c10.4-3.6,21.8,1.9,25.4,12.4c10.9,31.5,19.7,64,26.3,96.7c2.2,10.8-4.8,21.4-15.6,23.6C2413.2,631.2,2411.8,631.3,2410.5,631.3z"
		/>
	<path class="st5" d="M1037.4,427.5c-3.2,0-6.5-0.8-9.5-2.4c-9.7-5.3-13.3-17.4-8.1-27.1c15.8-29.3,33.8-57.8,53.4-84.8
		c6.5-8.9,19-10.9,27.9-4.4c8.9,6.5,10.9,19,4.4,27.9c-18.6,25.6-35.6,52.6-50.6,80.3C1051.4,423.7,1044.5,427.5,1037.4,427.5z"/>
	<path class="st5" d="M2323.7,404.4c-6.9,0-13.5-3.5-17.3-9.9c-16-27.2-33.9-53.6-53.4-78.4c-6.8-8.7-5.3-21.3,3.4-28.1
		c8.7-6.8,21.3-5.3,28.1,3.4c20.5,26.3,39.5,54.1,56.4,82.8c5.6,9.5,2.4,21.8-7.1,27.4C2330.7,403.5,2327.2,404.4,2323.7,404.4z"/>
	<path class="st5" d="M1186.5,235.6c-5.4,0-10.8-2.2-14.7-6.4c-7.5-8.1-7-20.8,1.1-28.3c24.5-22.6,50.7-43.8,77.9-63
		c9-6.4,21.5-4.2,27.9,4.8c6.4,9,4.2,21.5-4.8,27.9c-25.8,18.2-50.6,38.2-73.8,59.7C1196.2,233.9,1191.4,235.6,1186.5,235.6z"/>
	<path class="st5" d="M2167.9,218.1c-4.6,0-9.3-1.6-13-4.8c-24-20.6-49.5-39.8-75.9-57c-9.3-6-11.9-18.4-5.8-27.7
		c6-9.3,18.4-11.9,27.7-5.8c27.9,18.2,54.8,38.4,80.1,60.2c8.4,7.2,9.3,19.8,2.1,28.2C2179.1,215.7,2173.5,218.1,2167.9,218.1z"/>
	<path class="st5" d="M1389.6,102.4c-7.7,0-15-4.5-18.3-11.9c-4.5-10.1,0.1-21.9,10.2-26.4c30.5-13.4,62.2-25,94.2-34.2
		c10.6-3.1,21.7,3,24.8,13.6c3.1,10.6-3,21.7-13.6,24.8c-30.3,8.8-60.3,19.7-89.2,32.4C1395.1,101.8,1392.3,102.4,1389.6,102.4z"/>
	<path class="st5" d="M1960.1,92.2c-2.5,0-5-0.5-7.4-1.4c-29.3-11.7-59.7-21.5-90.4-29.2c-10.7-2.7-17.2-13.6-14.5-24.3
		c2.7-10.7,13.5-17.2,24.3-14.5c32.3,8.1,64.4,18.5,95.4,30.8c10.3,4.1,15.3,15.7,11.2,26C1975.5,87.4,1968,92.2,1960.1,92.2z"/>
	<path class="st5" d="M1625,42.6c-10.3,0-19-7.9-19.9-18.3c-0.9-11,7.3-20.7,18.3-21.6c21-1.7,42.4-2.6,63.7-2.6
		c12.1,0,24.4,0.3,36.5,0.9c11,0.5,19.6,9.9,19,20.9c-0.5,11-9.9,19.5-20.9,19c-11.4-0.5-23.1-0.8-34.6-0.8
		c-20.1,0-40.4,0.8-60.3,2.5C1626.2,42.5,1625.6,42.6,1625,42.6z"/>
	<path class="st5" d="M2747.3,1879.7l-1.8,0c-11,0-20-9-20-20s9-20,20-20l1.8,0c32.2,0,65-0.6,97.5-1.7c11.1-0.4,20.3,8.2,20.7,19.3
		c0.4,11-8.2,20.3-19.3,20.7C2813.3,1879.2,2780,1879.7,2747.3,1879.7z"/>
	<path class="st5" d="M2595.7,1875.5c-0.4,0-0.8,0-1.1,0c-33.5-1.9-67.3-4.4-100.4-7.6c-11-1-19.1-10.8-18-21.8
		c1-11,10.8-19.1,21.8-18c32.7,3.1,65.9,5.6,98.9,7.5c11,0.6,19.5,10.1,18.8,21.1C2615,1867.3,2606.2,1875.5,2595.7,1875.5z"/>
	<path class="st5" d="M2995.2,1868.8c-10.3,0-19-7.8-19.9-18.3c-1-11,7.2-20.7,18.2-21.7c32.7-2.9,65.9-6.3,98.8-10.3
		c11-1.3,20.9,6.5,22.3,17.4c1.3,11-6.5,20.9-17.4,22.3c-33.3,4-67,7.6-100.1,10.5C2996.4,1868.8,2995.8,1868.8,2995.2,1868.8z"/>
	<path class="st5" d="M2347.2,1849.5c-1,0-2-0.1-3.1-0.2c-33.1-5.1-66.5-11-99.3-17.4c-10.8-2.1-17.9-12.6-15.8-23.5
		c2.1-10.8,12.6-17.9,23.5-15.8c32.2,6.3,65.1,12.1,97.7,17.1c10.9,1.7,18.4,11.9,16.7,22.8
		C2365.4,1842.4,2356.9,1849.5,2347.2,1849.5z"/>
	<path class="st5" d="M3243.1,1836.7c-9.6,0-18-6.9-19.7-16.6c-1.9-10.9,5.5-21.2,16.4-23.1c32.3-5.5,65.2-11.6,97.7-18.2
		c10.8-2.2,21.4,4.8,23.6,15.6c2.2,10.8-4.8,21.4-15.6,23.6c-32.9,6.6-66.2,12.8-98.9,18.4
		C3245.3,1836.6,3244.2,1836.7,3243.1,1836.7z"/>
	<path class="st5" d="M2102.5,1798.9c-1.7,0-3.4-0.2-5.1-0.7c-32.4-8.4-65.1-17.7-97-27.4c-10.6-3.2-16.5-14.4-13.3-25
		c3.2-10.6,14.4-16.5,25-13.3c31.4,9.6,63.5,18.7,95.4,27c10.7,2.8,17.1,13.7,14.3,24.4C2119.5,1792.9,2111.4,1798.9,2102.5,1798.9z
		"/>
	<path class="st5" d="M1864.3,1723.5c-2.3,0-4.7-0.4-7-1.3c-31.4-11.8-62.9-24.4-93.6-37.5c-10.2-4.3-14.9-16.1-10.6-26.2
		c4.3-10.2,16.1-14.9,26.2-10.6c30.2,12.9,61.2,25.2,92.1,36.8c10.3,3.9,15.6,15.4,11.7,25.8
		C1880,1718.5,1872.4,1723.5,1864.3,1723.5z"/>
	<path class="st5" d="M1635.4,1623.2c-3,0-6.1-0.7-9-2.1c-30-15.1-60-31.1-89.1-47.4c-9.6-5.4-13.1-17.6-7.7-27.2
		c5.4-9.6,17.6-13.1,27.2-7.7c28.6,16,58,31.7,87.5,46.6c9.9,5,13.8,17,8.9,26.9C1649.7,1619.1,1642.7,1623.2,1635.4,1623.2z"/>
	<path class="st5" d="M1418.8,1498.3c-3.8,0-7.6-1.1-10.9-3.3c-28.4-18.6-56.3-37.9-83.1-57.4c-8.9-6.5-10.9-19-4.4-27.9
		c6.5-8.9,19-10.9,27.9-4.4c26.3,19.1,53.7,38.1,81.5,56.3c9.2,6.1,11.8,18.5,5.8,27.7C1431.7,1495.1,1425.3,1498.3,1418.8,1498.3z"
		/>
	<path class="st5" d="M614.1,1893.1c-32.7,0-66-0.6-99-1.8c-11-0.4-19.7-9.7-19.3-20.7c0.4-11,9.7-19.7,20.7-19.3
		c32.5,1.1,65.3,1.7,97.5,1.7l1.8,0c11,0,20,9,20,20s-9,20-20,20L614.1,1893.1z"/>
	<path class="st5" d="M765.7,1888.9c-10.5,0-19.4-8.2-20-18.9c-0.6-11,7.8-20.5,18.8-21.1c33-1.9,66.3-4.4,98.9-7.5
		c11-1,20.8,7,21.8,18c1,11-7,20.8-18,21.8c-33.2,3.1-66.9,5.7-100.4,7.6C766.5,1888.8,766.1,1888.9,765.7,1888.9z"/>
	<path class="st5" d="M366.2,1882.1c-0.6,0-1.2,0-1.8-0.1c-33.1-2.9-66.8-6.4-100.1-10.5c-11-1.3-18.8-11.3-17.4-22.3
		c1.3-11,11.3-18.8,22.3-17.4c32.9,4,66.1,7.5,98.8,10.3c11,1,19.1,10.7,18.2,21.7C385.2,1874.3,376.5,1882.1,366.2,1882.1z"/>
	<path class="st5" d="M1014.2,1862.8c-9.7,0-18.2-7.1-19.7-16.9c-1.7-10.9,5.8-21.1,16.7-22.8c32.6-5,65.5-10.8,97.7-17.1
		c10.8-2.1,21.3,4.9,23.5,15.8c2.1,10.8-4.9,21.3-15.8,23.5c-32.7,6.4-66.1,12.3-99.3,17.4
		C1016.2,1862.7,1015.2,1862.8,1014.2,1862.8z"/>
	<path class="st5" d="M118.3,1850.1c-1.1,0-2.2-0.1-3.4-0.3c-32.7-5.6-66-11.8-98.9-18.4c-10.8-2.2-17.8-12.7-15.6-23.6
		c2.2-10.8,12.7-17.8,23.6-15.6c32.5,6.6,65.4,12.7,97.7,18.2c10.9,1.9,18.2,12.2,16.4,23.1C136.4,1843.2,127.9,1850.1,118.3,1850.1
		z"/>
	<path class="st5" d="M1258.9,1812.3c-8.9,0-17-6-19.3-15c-2.8-10.7,3.6-21.6,14.3-24.4c31.9-8.3,64-17.4,95.4-27
		c10.6-3.2,21.7,2.7,25,13.3c3.2,10.6-2.7,21.7-13.3,25c-31.9,9.7-64.6,19-97,27.4C1262.2,1812.1,1260.5,1812.3,1258.9,1812.3z"/>
	<path class="st5" d="M1497.1,1736.8c-8.1,0-15.7-4.9-18.7-13c-3.9-10.3,1.4-21.9,11.7-25.8c30.8-11.6,61.8-24,92.1-36.8
		c10.2-4.3,21.9,0.4,26.2,10.6c4.3,10.2-0.4,21.9-10.6,26.2c-30.8,13.1-62.3,25.7-93.6,37.5
		C1501.8,1736.4,1499.4,1736.8,1497.1,1736.8z"/>
	<path class="st5" d="M1726,1636.5c-7.3,0-14.4-4-17.9-11c-5-9.9-1-21.9,8.9-26.9c29.5-14.9,58.9-30.5,87.5-46.6
		c9.6-5.4,21.8-2,27.2,7.7c5.4,9.6,2,21.8-7.7,27.2c-29.1,16.3-59.1,32.3-89.1,47.4C1732.1,1635.8,1729.1,1636.5,1726,1636.5z"/>
	<path class="st5" d="M1942.6,1511.7c-6.5,0-12.9-3.2-16.7-9c-6.1-9.2-3.5-21.6,5.8-27.7c27.8-18.2,55.3-37.2,81.5-56.3
		c8.9-6.5,21.4-4.5,27.9,4.4c6.5,8.9,4.5,21.4-4.4,27.9c-26.8,19.5-54.8,38.8-83.2,57.4C1950.2,1510.6,1946.4,1511.7,1942.6,1511.7z
		"/>
	<path class="st5" d="M2159.2,1343.5c-5.6,0-11.2-2.3-15.1-6.9c-7.2-8.4-6.3-21,2-28.2c47-40.6,71.3-66.8,71.5-67.1
		c7.5-8.1,20.1-8.6,28.3-1.1c8.1,7.5,8.6,20.1,1.1,28.3c-1,1.1-25.9,27.9-74.7,70.2C2168.5,1341.9,2163.8,1343.5,2159.2,1343.5z"/>
</g>
</svg>
