<?xml version="1.0" encoding="utf-8"?>
<!-- Generator: Adobe Illustrator 25.2.3, SVG Export Plug-In . SVG Version: 6.00 Build 0)  -->
<svg version="1.1" xmlns="http://www.w3.org/2000/svg" xmlns:xlink="http://www.w3.org/1999/xlink" x="0px" y="0px"
	 viewBox="0 0 698.5 565.5" style="enable-background:new 0 0 698.5 565.5;" xml:space="preserve">
<style type="text/css">
	.st0{fill:#EAEAEA;}
	.st1{fill:#FDDCBE;}
	.st2{fill:#F5F5F5;}
	.st3{fill:#E6E7E8;}
	.st4{fill:#533E29;}
	.st5{fill:none;}
	.st6{fill:#EB7D86;}
	.st7{fill:#08C6A4;}
</style>
<g id="Layer_2">
</g>
<g id="Layer_1">
	<g>
		<path class="st0" d="M698.5,243.4c0-39.1-19.3-73.6-48.9-94.6c0.5-4.5,0.8-9.1,0.8-13.8c0-64.1-51.9-116-116-116
			c-18.4,0-35.8,4.3-51.3,12C462.4,11.7,434.7,0,404.3,0c-29,0-55.5,10.6-75.8,28.2c-16.4-8.9-35.2-14-55.2-14
			c-64.1,0-116,51.9-116,116c0,3.4,0.2,6.8,0.5,10.2c-40.3,18.2-68.3,58.7-68.3,105.8c0,53.8,36.6,99,86.3,112.1
			c16.7,43.5,58.9,74.5,108.3,74.5c15.4,0,30.2-3,43.7-8.5c21,21.2,50.1,34.3,82.3,34.3c28.8,0,55.1-10.5,75.3-27.8
			c11,3.5,22.8,5.4,35,5.4c54.5,0,100.2-37.6,112.6-88.3C671.7,329.1,698.5,289.4,698.5,243.4z"/>
	</g>
	<g>
		<g>
			<path class="st1" d="M241.7,476c-1.2-0.2-2.1,0.6-2.6,1.7c-0.2-1.2-0.7-2.4-2-2.6c-1.1-0.2-1.9,0.5-2.5,1.4c-0.2-1.1-0.8-2-2-2.3
				c-1.2-0.2-2.1,0.6-2.6,1.7c-0.2-1.2,4.1-20,0.7-20.6c-2.7-0.5-6.6,23.2-6.7,24.2c0,0-7.4,76.3-22.6,77.5
				c-14.3,1.1-29.5-44.9-29.5-44.9l-11.2,12.7c0,0,6.2,24.8,19.7,40.8h40.7c15.1-27.8,22.6-83.9,22.6-83.9
				C243.9,480.3,244.3,476.5,241.7,476z"/>
		</g>
		<g>
			<path class="st2" d="M171.9,512l-11.2,12.7c0,0,2.8,11.1,8.6,23.3l12.5-12.1C176,524.2,171.9,512,171.9,512z"/>
		</g>
		<path class="st1" d="M172.2,511.2c0,0,2-193.1-109.9-113.1c0,0-22,15.7-33,116.8C87.1,607.3,172.2,511.2,172.2,511.2z"/>
		<g>
			<path class="st3" d="M171.9,512l-11.2,12.7c0,0,6,24.2,19.2,40.2l-6.1-47.8C172.2,513,171.9,512,171.9,512z"/>
		</g>
		<path class="st2" d="M29.3,514.9c0,0,78.7,9.4,142.6-14.8l3.5,65.4H32.7L29.3,514.9z"/>
		<path class="st4" d="M148,319.4c0,0,63.2,95.3-92.4,109.6l1.8,25.6c0,0-14.2-12.8-18.8,3c-4.6,16.2,18.2,9.7,18.2,9.7
			c-2,4.3-11.4,32.7-27.5,47.5c-1.1,1-58.4-119.7-9.8-118c-2.2-27.3,17.4-45.4,45.9-52C109.6,334.8,130.4,379.1,148,319.4z"/>
		<path class="st1" d="M60.4,413.8c-0.1-0.1-0.2-0.1-0.2-0.1S60.3,413.7,60.4,413.8z"/>
		<path class="st3" d="M58.8,565.5c-1.5-12.5-3.7-23.7-4.8-38.4l-19.8,1.8c0.6,11.4,1.9,25.4,3.1,36.6H58.8z"/>
		<path class="st3" d="M136.1,565.5h11.2c2.1-3.7,4.7-7.4,7.6-11l-4.4-25.3l4.2-7.2l-3.4-5.8l-12.4,1.9l-2.5,5l5.5,7.2L136.1,565.5z
			"/>
		<polygon class="st4" points="139.4,565.5 160.2,565.5 150.5,529.2 154.7,522.1 151.3,516.2 138.8,518.2 136.3,523.1 141.8,530.3 
					"/>
		<path class="st5" d="M60.5,409.1c-0.1-0.1-0.2-0.1-0.2-0.1S60.4,409,60.5,409.1z"/>
		<path class="st1" d="M61.8,565.5c-3-13.3-5.2-24.5-8-40.4l-19.5,3.8c1.7,11.7,4.1,25.2,6.5,36.6H61.8z"/>
		<path class="st5" d="M58.4,413.9c-0.1-0.1-0.2-0.2-0.2-0.2S58.2,413.8,58.4,413.9z"/>
		<path class="st4" d="M92.7,453.5c2,6.2,0.9,10.3-1.7,11.1c-2.6,0.8-5.8-1.9-7.8-8.1c-2-6.2-0.9-10.3,1.7-11.1
			C87.5,444.6,90.7,447.3,92.7,453.5z"/>
		<path class="st4" d="M152.4,436.7c2,6.2,0.9,10.3-1.7,11.1c-2.6,0.8-5.8-1.9-7.8-8.1c-2-6.2-0.9-10.3,1.7-11.1
			C147.2,427.8,150.4,430.5,152.4,436.7z"/>
		<path class="st6" d="M146.4,467.8c0,0-29.6,1.9-47.1,9.4c0,0,0.5,26.1,28.2,21.4C154.8,494,146.4,467.8,146.4,467.8z"/>
		<g>
			<path class="st2" d="M53.7,525.1l-19.5,3.8c0.9,6,1.9,12.4,3.1,18.8l19.8-4C56.1,538,55,532,53.7,525.1z"/>
		</g>
	</g>
	<ellipse class="st0" cx="74.3" cy="302.8" rx="12.2" ry="11.1"/>
	<circle class="st0" cx="76.5" cy="330.3" r="3.8"/>
	<path class="st7" d="M372.2,122.9l-13.5,6.6l12.8,26.2l13.5-6.6c3.2,3.7,6.8,6.8,10.8,9.5l-4.9,14.3l27.6,9.4l4.9-14.3
		c4.7,0.3,9.6,0,14.3-0.9l6.6,13.5l26.2-12.8l-6.6-13.5c3.7-3.2,6.8-6.8,9.5-10.8l14.3,4.9l4.7-13.8l4.7-13.8l-14.3-4.9
		c0.3-4.7,0-9.6-0.9-14.3l13.5-6.6l-12.8-26.2l-13.5,6.6c-3.2-3.7-6.8-6.8-10.8-9.5l4.9-14.3l-13.8-4.7l-13.8-4.7l-4.9,14.3
		c-4.7-0.3-9.6,0-14.3,0.9l-6.6-13.5l-26.2,12.8l6.6,13.5c-3.7,3.2-6.8,6.8-9.5,10.8l-14.3-4.9l-4.7,13.8l-4.7,13.8l14.3,4.9
		C371,113.4,371.3,118.2,372.2,122.9z M400.5,109c0.2-1.8,0.6-3.7,1.2-5.4c0.6-1.8,1.4-3.4,2.3-5.1c1.7-2.8,3.8-5.3,6.4-7.3
		c1.4-1.1,3-2.1,4.7-3c1.7-0.8,3.5-1.5,5.2-1.9c3.2-0.8,6.5-1,9.8-0.6c1.8,0.2,3.7,0.6,5.4,1.2c1.8,0.6,3.4,1.4,5,2.3
		c2.8,1.7,5.3,3.8,7.3,6.4c1.1,1.4,2.1,3,3,4.7c0.8,1.7,1.5,3.5,1.9,5.2c0.8,3.2,1,6.5,0.6,9.8c-0.2,1.8-0.6,3.7-1.2,5.4
		c-0.6,1.8-1.4,3.4-2.3,5c-1.7,2.8-3.8,5.3-6.4,7.3c-1.4,1.1-3,2.1-4.7,3c-1.7,0.8-3.5,1.5-5.2,1.9c-3.2,0.8-6.5,1-9.8,0.6
		c-1.8-0.2-3.7-0.6-5.4-1.2c-1.8-0.6-3.4-1.4-5-2.3c-2.8-1.7-5.3-3.8-7.3-6.4c-1.1-1.4-2.1-3-3-4.7c-0.8-1.7-1.5-3.5-1.9-5.2
		C400.3,115.6,400.2,112.3,400.5,109z M442,239.2l18.4-18.4l-35.4-35.4l-18.4,18.4c-7.1-4.1-14.7-7.3-22.8-9.5v-25.9h-50.1v25.9
		c-8.1,2.2-15.7,5.4-22.8,9.5l-18.4-18.4l-17.7,17.7L257,220.8l18.4,18.4c-4.1,7.1-7.3,14.7-9.5,22.8H240v50.1h25.9
		c2.2,8.1,5.4,15.7,9.5,22.8L257,353.3l17.7,17.7l17.7,17.7l18.4-18.4c7.1,4.1,14.7,7.3,22.8,9.5v25.9h50.1v-25.9
		c8.1-2.2,15.7-5.4,22.8-9.5l18.4,18.4l35.4-35.4L442,334.9c4.1-7.1,7.3-14.7,9.5-22.8h25.9V262h-25.9
		C449.3,253.9,446.1,246.3,442,239.2z M403.7,296.6c-1.2,5.6-3.4,10.9-6.5,15.5c-1.8,2.7-3.8,5.2-6,7.4c-2.3,2.3-4.8,4.3-7.4,6
		c-4.7,3-9.9,5.3-15.5,6.5c-3.1,0.7-6.3,1-9.5,1c-3.3,0-6.5-0.3-9.5-1c-5.6-1.2-10.9-3.4-15.5-6.5c-2.7-1.8-5.2-3.8-7.4-6
		c-2.3-2.3-4.3-4.8-6-7.4c-3-4.7-5.3-9.9-6.5-15.5c-0.7-3.1-1-6.3-1-9.5c0-3.3,0.3-6.5,1-9.5c1.2-5.6,3.4-10.9,6.5-15.5
		c1.8-2.7,3.8-5.2,6-7.4c2.3-2.3,4.8-4.3,7.4-6c4.7-3,9.9-5.3,15.5-6.5c3.1-0.7,6.3-1,9.5-1c3.3,0,6.5,0.4,9.5,1
		c5.6,1.2,10.9,3.4,15.5,6.5c2.7,1.8,5.2,3.8,7.4,6c2.3,2.3,4.3,4.8,6,7.4c3,4.7,5.3,9.9,6.5,15.5c0.7,3.1,1,6.3,1,9.5
		C404.7,290.3,404.3,293.5,403.7,296.6z M576.7,219.5c0.4-4.4,0.3-9-0.5-13.5l12.9-5.9l-11.4-24.9l-12.9,5.9
		c-2.9-3.5-6.2-6.6-9.9-9.2l4.9-13.3l-12.8-4.8l-12.8-4.8l-4.9,13.3c-4.4-0.4-9-0.3-13.5,0.5l-5.9-12.9L485,161.4l5.9,12.9
		c-3.5,2.9-6.6,6.2-9.2,9.9l-13.3-4.9l-9.6,25.6l13.3,4.9c-0.4,4.4-0.3,9,0.5,13.5l-12.9,5.9l11.4,24.9l12.9-5.9
		c2.9,3.5,6.2,6.6,9.9,9.2l-4.9,13.3l12.8,4.8l12.8,4.8l4.9-13.3c4.4,0.4,9,0.3,13.5-0.5l5.9,12.9l24.9-11.4L558,255
		c3.5-2.9,6.6-6.2,9.2-9.9l13.3,4.9l9.6-25.6L576.7,219.5z M549.3,218.3c-0.3,1.7-0.7,3.4-1.3,5.1c-0.6,1.6-1.4,3.2-2.3,4.7
		c-1.6,2.6-3.7,4.9-6.2,6.7c-1.4,1-2.9,1.9-4.5,2.7c-1.6,0.7-3.3,1.3-5,1.7c-3.1,0.7-6.2,0.8-9.2,0.3c-1.7-0.3-3.4-0.7-5.1-1.3
		c-1.6-0.6-3.2-1.4-4.7-2.3c-2.6-1.6-4.9-3.7-6.7-6.2c-1-1.4-1.9-2.9-2.7-4.5c-0.7-1.6-1.3-3.3-1.7-5c-0.7-3.1-0.8-6.2-0.3-9.2
		c0.3-1.7,0.7-3.4,1.3-5.1c0.6-1.6,1.4-3.2,2.3-4.7c1.6-2.6,3.7-4.9,6.2-6.7c1.4-1,2.9-1.9,4.5-2.7c1.6-0.7,3.3-1.3,5-1.7
		c3.1-0.7,6.2-0.8,9.2-0.3c1.7,0.3,3.4,0.7,5.1,1.3c1.6,0.6,3.2,1.4,4.7,2.3c2.6,1.6,4.9,3.7,6.7,6.2c1,1.4,1.9,2.9,2.7,4.5
		c0.7,1.6,1.3,3.3,1.7,5C549.6,212.2,549.7,215.3,549.3,218.3z"/>
</g>
</svg>
