<?xml version="1.0" encoding="utf-8"?>
<!-- Generator: Adobe Illustrator 25.2.3, SVG Export Plug-In . SVG Version: 6.00 Build 0)  -->
<svg version="1.1" xmlns="http://www.w3.org/2000/svg" xmlns:xlink="http://www.w3.org/1999/xlink" x="0px" y="0px"
	 viewBox="0 0 660.4 489.2" style="enable-background:new 0 0 660.4 489.2;" xml:space="preserve">
<style type="text/css">
	.st0{fill:#FDDBBB;}
	.st1{fill:#333333;}
	.st2{fill:#534741;}
	.st3{fill:#EB7D86;}
	.st4{fill:#E6E7E8;}
	.st5{fill:#E6E6E6;}
	.st6{fill:#F5F5F5;}
	.st7{fill:#808080;}
	.st8{fill:#3E3E40;}
	.st9{fill:#606061;}
	.st10{fill:#F0F0F0;}
	.st11{fill:#FAFAFA;}
	.st12{fill:#08C6A4;}
	.st13{fill:url(#SVGID_1_);}
	.st14{fill:#FFFFFF;}
</style>
<g id="Layer_1">
	<g>
		<g>
			<path class="st0" d="M182.3,254.4l-9.4,52.8l-2.9,52.6c0,0-19,16.2-25.3,8.8c-7.3-8.4,14.2-14.9,14.2-14.9l-0.4-47.9l1.4-48.6
				L182.3,254.4z"/>
		</g>
		<g>
			<g>
				<path class="st1" d="M170,359.8l-1.5,16l-2.8-0.3l-0.8-7.8c0,0-6.6,7.7-19.9,6.5c-20.8-1.9,1.7-17.8,13.9-20.5
					c0,0-15.5,4.6-10.8,9.9C155.4,371.8,170,359.8,170,359.8z"/>
			</g>
		</g>
	</g>
	<g>
		<g>
			<g>
				<g>
					<g>
						<path class="st0" d="M189.9,57.8c10.3,30.8-2.7,62.9-30.5,72.2c-27.8,9.2-59.8-7.9-70-38.7C79.1,60.4,93.3,27.9,121,18.7
							C169.2,2.7,179.6,27,189.9,57.8z"/>
					</g>
					<g>
						<path class="st2" d="M102.8,55.4c0,0,43.7-3.5,78.9-23.4c-14.9-31.8-51.9-45.2-90.8-15.4c-46.3,35.4,3.6,95.4,21.5,107.6
							c2.8-17.7-0.4-35.9-0.4-35.9s-8.4,8.2-11.4-3.6c-2.1-8.1,9.2-6.2,9.2-6.2L102.8,55.4z"/>
					</g>
					<g>
						<path class="st2" d="M102.2,42.3c0,0-38.2-25.8-58.7,2c-27.1,36.9,41.6,64.4-1,93.9c34.2,11.3,57.9-22.8,35.1-48.8
							C44.4,51.6,85.1,38.7,102.2,42.3z"/>
					</g>
					<g>
						<path class="st2" d="M135.1,76.7c1.5,4.6,0.8,7.6-1.1,8.2c-1.9,0.6-4.3-1.3-5.9-5.9c-1.5-4.6-0.8-7.6,1.1-8.2
							C131.2,70.2,133.6,72.1,135.1,76.7z"/>
					</g>
					<g>
						<path class="st2" d="M176.7,61.3c1.5,4.6,0.8,7.6-1.1,8.2c-1.9,0.6-4.3-1.3-5.9-5.9c-1.5-4.6-0.8-7.6,1.1-8.2
							C172.8,54.7,175.2,56.7,176.7,61.3z"/>
					</g>
				</g>
			</g>
			<path class="st3" d="M147.2,102.7c2.6,7.5,10.8,11.4,18.3,8.8c7.5-2.6,11.4-10.8,8.8-18.3L147.2,102.7z"/>
		</g>
		<g>
			<polygon class="st1" points="242.3,258.6 153.3,281.5 155,247.6 225.6,225.7 			"/>
		</g>
		<g>
			<g>
				<g>
					<polygon class="st0" points="143,121.5 149.5,142.5 168.6,164.3 172,135.5 165.5,114.6 					"/>
				</g>
				<g>
					<polygon class="st1" points="149.5,142.5 125.2,159.4 148.3,217.2 148.2,250.5 231.4,224.8 213.5,197 199.9,136.7 172,135.5 
						168.6,164.3 					"/>
				</g>
				<polygon class="st4" points="154.9,248.5 154.6,255.7 226.9,228.3 226,226.5 				"/>
				<polygon class="st5" points="179.5,274.8 194.8,270.8 194.8,136.5 188.4,136.2 				"/>
				<g>
					<polygon class="st6" points="172,135.5 177.3,135.7 171.9,175 145,145.6 149.5,142.5 168.6,164.3 					"/>
				</g>
				<g>
					<polygon class="st6" points="149.5,142.5 145,145.6 148.8,164.7 154.7,159.1 163,158 					"/>
				</g>
				<g>
					<polygon class="st6" points="172,135.5 177.3,135.7 185.1,153.4 177.2,152.2 169.6,156 					"/>
				</g>
				<g>
					<path class="st7" d="M178,183.3c0.6,1.8-0.5,3.7-2.3,4.3c-1.8,0.6-3.7-0.5-4.3-2.3c-0.6-1.8,0.5-3.7,2.3-4.3
						C175.6,180.5,177.5,181.5,178,183.3z"/>
				</g>
				<g>
					<path class="st7" d="M184.1,203c0.6,1.8-0.5,3.7-2.3,4.3c-1.8,0.6-3.7-0.5-4.3-2.3c-0.6-1.8,0.5-3.7,2.3-4.3
						C181.6,200.1,183.5,201.1,184.1,203z"/>
				</g>
				<g>
					<path class="st7" d="M190.2,222.6c0.6,1.8-0.5,3.7-2.3,4.3c-1.8,0.6-3.7-0.5-4.3-2.3c-0.6-1.8,0.5-3.7,2.3-4.3
						C187.7,219.8,189.6,220.8,190.2,222.6z"/>
				</g>
			</g>
		</g>
	</g>
	<g>
		<rect x="194.8" y="32" class="st8" width="465.7" height="318.3"/>
		<g>
			<polygon class="st9" points="660.4,350.3 194.8,350.3 0,468.8 465.7,468.8 			"/>
			<polygon class="st8" points="200,371.7 176.7,371.7 197,359.4 220.2,359.4 			"/>
			<polygon class="st8" points="231.6,371.7 208.3,371.7 228.6,359.4 251.8,359.4 			"/>
			<polygon class="st8" points="263.1,371.7 239.9,371.7 260.1,359.4 283.4,359.4 			"/>
			<polygon class="st8" points="294.7,371.7 271.5,371.7 291.7,359.4 314.9,359.4 			"/>
			<polygon class="st8" points="326.3,371.7 303,371.7 323.3,359.4 346.5,359.4 			"/>
			<polygon class="st8" points="357.8,371.7 334.6,371.7 354.8,359.4 378.1,359.4 			"/>
			<polygon class="st8" points="389.4,371.7 366.2,371.7 386.4,359.4 409.6,359.4 			"/>
			<polygon class="st8" points="421,371.7 397.7,371.7 418,359.4 441.2,359.4 			"/>
			<polygon class="st8" points="452.5,371.7 429.3,371.7 449.5,359.4 472.8,359.4 			"/>
			<polygon class="st8" points="484.1,371.7 460.9,371.7 481.1,359.4 504.4,359.4 			"/>
			<polygon class="st8" points="515.7,371.7 492.4,371.7 512.7,359.4 535.9,359.4 			"/>
			<polygon class="st8" points="547.3,371.7 524,371.7 544.2,359.4 567.5,359.4 			"/>
			<polygon class="st8" points="578.8,371.7 555.6,371.7 575.8,359.4 599.1,359.4 			"/>
			<polygon class="st8" points="609.5,371.7 586.3,371.7 606.5,359.4 629.8,359.4 			"/>
			<polygon class="st8" points="172.5,388.4 149.2,388.4 169.5,376.1 192.7,376.1 			"/>
			<polygon class="st8" points="204.1,388.4 180.8,388.4 201.1,376.1 224.3,376.1 			"/>
			<polygon class="st8" points="235.6,388.4 212.4,388.4 232.6,376.1 255.9,376.1 			"/>
			<polygon class="st8" points="267.2,388.4 244,388.4 264.2,376.1 287.4,376.1 			"/>
			<polygon class="st8" points="298.8,388.4 275.5,388.4 295.8,376.1 319,376.1 			"/>
			<polygon class="st8" points="330.3,388.4 307.1,388.4 327.3,376.1 350.6,376.1 			"/>
			<polygon class="st8" points="361.9,388.4 338.7,388.4 358.9,376.1 382.1,376.1 			"/>
			<polygon class="st8" points="393.5,388.4 370.2,388.4 390.5,376.1 413.7,376.1 			"/>
			<polygon class="st8" points="425,388.4 401.8,388.4 422,376.1 445.3,376.1 			"/>
			<polygon class="st8" points="456.6,388.4 433.4,388.4 453.6,376.1 476.9,376.1 			"/>
			<polygon class="st8" points="488.2,388.4 464.9,388.4 485.2,376.1 508.4,376.1 			"/>
			<polygon class="st8" points="519.8,388.4 496.5,388.4 516.8,376.1 540,376.1 			"/>
			<polygon class="st8" points="551.3,388.4 528.1,388.4 548.3,376.1 571.6,376.1 			"/>
			<polygon class="st8" points="582,388.4 558.8,388.4 579,376.1 602.3,376.1 			"/>
			<polygon class="st8" points="145,405.1 121.7,405.1 142,392.8 165.2,392.8 			"/>
			<polygon class="st8" points="176.6,405.1 153.3,405.1 173.6,392.8 196.8,392.8 			"/>
			<polygon class="st8" points="208.1,405.1 184.9,405.1 205.1,392.8 228.4,392.8 			"/>
			<polygon class="st8" points="239.7,405.1 216.5,405.1 236.7,392.8 259.9,392.8 			"/>
			<polygon class="st8" points="271.3,405.1 248,405.1 268.3,392.8 291.5,392.8 			"/>
			<polygon class="st8" points="302.8,405.1 279.6,405.1 299.8,392.8 323.1,392.8 			"/>
			<polygon class="st8" points="334.4,405.1 311.2,405.1 331.4,392.8 354.7,392.8 			"/>
			<polygon class="st8" points="366,405.1 342.7,405.1 363,392.8 386.2,392.8 			"/>
			<polygon class="st8" points="397.5,405.1 374.3,405.1 394.5,392.8 417.8,392.8 			"/>
			<polygon class="st8" points="429.1,405.1 405.9,405.1 426.1,392.8 449.4,392.8 			"/>
			<polygon class="st8" points="460.7,405.1 437.4,405.1 457.7,392.8 480.9,392.8 			"/>
			<polygon class="st8" points="492.3,405.1 469,405.1 489.3,392.8 512.5,392.8 			"/>
			<polygon class="st8" points="523.8,405.1 500.6,405.1 520.8,392.8 544.1,392.8 			"/>
			<polygon class="st8" points="554.5,405.1 531.3,405.1 551.5,392.8 574.8,392.8 			"/>
			<polygon class="st8" points="119.8,420.5 96.5,420.5 116.8,408.1 140,408.1 			"/>
			<polygon class="st8" points="151.4,420.5 128.1,420.5 148.4,408.1 171.6,408.1 			"/>
			<polygon class="st8" points="467,420.5 159.7,420.5 179.9,408.1 487.3,408.1 			"/>
			<polygon class="st8" points="498.6,420.5 475.4,420.5 495.6,408.1 518.9,408.1 			"/>
			<polygon class="st8" points="529.3,420.5 506.1,420.5 526.3,408.1 549.6,408.1 			"/>
			<polygon class="st8" points="301.7,463.4 183.7,463.4 248.7,423.9 366.6,423.9 			"/>
		</g>
		<polygon class="st8" points="465.7,468.8 0,468.8 0,489.2 465.7,489.2 660.4,370.8 660.4,350.3 		"/>
	</g>
	<rect x="214.9" y="54.6" class="st10" width="425.5" height="269"/>
	<g>
		<path class="st5" d="M278.5,138.9c-3.3-3.2-24.9,16-27.9,18.6l-0.4-0.6l-1.7,1l-0.4-0.6c0,0-72.3,59.6-107.8,4.4l-10.6,5
			c0,0,36,75.3,128.1,6l-0.3-0.5l1.9-1.2l-0.3-0.5c1.7-0.8,14.3-7.2,7.6-16.5c-0.6-0.8-0.6-0.9-1.2-1.4
			C265.6,152.7,280.9,141.3,278.5,138.9z"/>
		<g>
			<g>
				<path class="st0" d="M259.1,163c0,0,14.5-7.6,6.8-17c-0.6-0.8-0.7-0.8-1.3-1.3c0,0,14.6-12.3,12.1-14.6
					c-3.7-3.3-27.1,20.6-27.1,20.6L259.1,163z"/>
			</g>
			<g>
				<g>
					<g>
						<polygon class="st6" points="246.3,152 249.4,149.8 259.6,163.4 256.4,165.7 						"/>
					</g>
					<g>
						<path class="st1" d="M129.8,166.7c0,0,40.4,73.1,128.2-1.6l-10.6-14.8c0,0-68.6,63.7-107.3,10.8L129.8,166.7z"/>
					</g>
					<g>
						<path class="st7" d="M249.1,169c0.7-0.7,0.7-1.8,0-2.5c-0.7-0.7-1.8-0.7-2.5,0c-0.7,0.7-0.7,1.8,0,2.5
							C247.3,169.7,248.4,169.7,249.1,169z"/>
					</g>
					<g>
						<path class="st7" d="M253.9,165.6c0.7-0.7,0.7-1.8,0-2.5c-0.7-0.7-1.8-0.7-2.5,0c-0.7,0.7-0.7,1.8,0,2.5
							C252.1,166.3,253.2,166.3,253.9,165.6z"/>
					</g>
				</g>
			</g>
		</g>
	</g>
	<g>
		<polygon class="st11" points="214.9,284.4 214.9,323.7 640.4,323.7 640.4,90.7 		"/>
	</g>
</g>
<g id="Layer_2">
	<g>
		<path class="st12" d="M531.9,122.2H315.2c-8.5,0-15.5,6.5-15.5,14.4V224c0,7.9,7,14.4,15.5,14.4h64.7L362.8,260l58.2-21.6h111
			c8.5,0,15.5-6.5,15.5-14.4v-87.4C547.5,128.7,540.5,122.2,531.9,122.2z"/>
		<g>
			<linearGradient id="SVGID_1_" gradientUnits="userSpaceOnUse" x1="324.9805" y1="186.3373" x2="376.7201" y2="186.3373">
				<stop  offset="0" style="stop-color:#F1F92B"/>
				<stop  offset="1" style="stop-color:#D97941"/>
			</linearGradient>
			<rect x="325" y="166.4" class="st13" width="51.7" height="39.8"/>
			<g>
				<path class="st14" d="M342.1,166.4h-7.8v-8.9c0-6.9,6.4-12.5,14.3-12.5h3.8c7.9,0,14.3,5.6,14.3,12.5h-7.8c0-2.9-3-5.3-6.6-5.3
					h-3.8c-3.6,0-6.6,2.4-6.6,5.3V166.4z"/>
			</g>
			<path d="M356,182.7c0-2.7-2.3-4.8-5.2-4.8c-2.9,0-5.2,2.1-5.2,4.8c0,1.8,1,3.3,2.6,4.2v5.2c0,1.5,1.3,2.6,2.8,2.6
				c1.6,0,2.8-1.2,2.8-2.6v-5.5C355.2,185.7,356,184.3,356,182.7z"/>
		</g>
		<path class="st14" d="M513.8,187.1c0,7.9-7,14.4-15.5,14.4h-84.9c-8.5,0-15.5-6.5-15.5-14.4v-14.4c0-7.9,7-14.4,15.5-14.4h84.9
			c8.5,0,15.5,6.5,15.5,14.4V187.1z"/>
		<g>
			<path d="M426.3,189.8l-4.5-5.5l-4.4,5.5l-4.2-2.7l4.4-5.8l-6.8-2l1.5-4.3l6.6,2v-7.2h5.5v7.2l6.6-2l1.7,4.3l-6.9,2l4.4,5.8
				L426.3,189.8z"/>
			<path d="M460.5,189.8l-4.5-5.5l-4.4,5.5l-4.2-2.7l4.4-5.8l-6.8-2l1.5-4.3l6.6,2v-7.2h5.5v7.2l6.6-2l1.7,4.3l-6.9,2l4.4,5.8
				L460.5,189.8z"/>
			<path d="M494.8,189.8l-4.5-5.5l-4.4,5.5l-4.2-2.7l4.4-5.8l-6.8-2l1.5-4.3l6.6,2v-7.2h5.5v7.2l6.6-2l1.7,4.3l-6.9,2l4.4,5.8
				L494.8,189.8z"/>
		</g>
	</g>
</g>
</svg>
