<?xml version="1.0" encoding="utf-8"?>
<!-- Generator: Adobe Illustrator 25.2.3, SVG Export Plug-In . SVG Version: 6.00 Build 0)  -->
<svg version="1.1" xmlns="http://www.w3.org/2000/svg" xmlns:xlink="http://www.w3.org/1999/xlink" x="0px" y="0px"
	 viewBox="0 0 683.2 586.8" style="enable-background:new 0 0 683.2 586.8;" xml:space="preserve">
<style type="text/css">
	.st0{fill:#FDDCBE;}
	.st1{fill:#F5F5F5;}
	.st2{fill:#E6E7E8;}
	.st3{fill:#08C6A4;}
	.st4{fill:#B05033;}
	.st5{fill:#EFA734;}
	.st6{fill:#533E29;}
	.st7{fill:#EB7D86;}
	.st8{fill:#D0D6D3;}
</style>
<g id="Layer_2">
</g>
<g id="Layer_1">
	<g>
		<path class="st0" d="M511.6,72.6c-3.4-3.4-27.8,19.6-30.1,21.9c-1.8,1.8-52.1,47.2-101.3,81.4l9.7,12.5
			c55.4-37.3,104-77.3,106.2-79c2.7-2.2,5.4-4.3,4.8-6.7c-0.4-1.6-2.1-1.8-3.2-1.1c1.2-1.4,2.6-2.5,1.1-4.4
			c-0.7-0.9-2.2-0.9-3.1-0.2c1.7-1.8,2.8-3.7,2-5c-0.8-1.4-3-1.9-4.2-1.1C494.7,89.4,513.9,74.9,511.6,72.6z"/>
		<g>
			<path class="st1" d="M380.1,176l9.7,12.5c5.9-4,11.8-8,17.5-12l-9.4-13.3C392.1,167.5,386.1,171.8,380.1,176z"/>
		</g>
		<g>
			<path class="st2" d="M380.1,176l9.7,12.5c2.5-1.7,4.9-3.3,7.3-5l-3.9-16.9C388.9,169.8,384.5,172.9,380.1,176z"/>
		</g>
		<g>
			<path class="st1" d="M231,451.3l35.2,43.3c3,3.7,7.6,5.9,12.4,5.9c51-0.7,105.4-19.8,151.9-57.6c57.9-47.1,90.1-112.2,92.2-173.6
				c0.4-11.4-7.6-21.2-18.8-23.2c-60.6-10.5-130.8,7.7-188.7,54.8c-46.5,37.8-76.4,87.2-87.4,137C226.7,442.7,227.9,447.6,231,451.3
				z"/>
			<path class="st3" d="M290.1,501.4c17.5,21.5,16.1,52.1-1.9,72c-2.5,2.8-2.7,6.9-0.4,9.8l0.7,0.9c2.2,2.7,6.1,3.6,9.2,1.9
				c8.7-4.5,17-10,24.9-16.4c29.6-24.1,47.5-57.2,53-92.1c-28.4,13.3-57.9,20.9-86.6,22.7C289.4,500.6,289.8,501,290.1,501.4z"/>
			<path class="st3" d="M229.3,426.6c-17.5-21.5-47.7-26.4-70.9-12.9c-3.2,1.9-7.3,1.2-9.7-1.7l-0.7-0.9c-2.2-2.7-2.3-6.7,0-9.4
				c6.2-7.6,13.2-14.6,21.1-21c29.6-24.1,65.6-34.8,101-33.1c-18.8,25.1-32.3,52.4-39.9,80.2C230,427.5,229.6,427,229.3,426.6z"/>
			<path class="st3" d="M504.1,246.2c-26.5-4.6-54.9-3.7-83.2,2.7l82.3,101.2c12.1-26.5,18.7-54.1,19.6-80.9
				C523.1,258,515.2,248.1,504.1,246.2z"/>
			<path class="st2" d="M433.3,257.5c-0.5-0.6-0.8-1.5-0.7-2.3c0.1-0.8,0.5-1.6,1.1-2.1c0.6-0.5,1.5-0.8,2.3-0.7
				c1.6,0.2,2.9,1.8,2.8,3.4c-0.1,0.8-0.5,1.6-1.1,2.1c-0.6,0.5-1.5,0.8-2.3,0.7C434.6,258.6,433.8,258.1,433.3,257.5z"/>
			<path class="st2" d="M444.5,266.4c1.3-1.1,3.3-0.9,4.4,0.5l0,0c1.1,1.3,0.9,3.3-0.5,4.4l0,0c-1.3,1.1-3.3,0.9-4.4-0.5l0,0
				C443,269.4,443.2,267.5,444.5,266.4z"/>
			<path class="st2" d="M487.6,319.5c1.3-1.1,3.3-0.9,4.4,0.5l0,0c1.1,1.3,0.9,3.3-0.5,4.4l0,0c-1.3,1.1-3.3,0.9-4.4-0.5l0,0
				C486.1,322.5,486.3,320.5,487.6,319.5z M476.9,306.2c1.3-1.1,3.3-0.9,4.4,0.5l0,0c1.1,1.3,0.9,3.3-0.5,4.4l0,0
				c-1.3,1.1-3.3,0.9-4.4-0.5l0,0C475.3,309.2,475.5,307.3,476.9,306.2z M466.1,292.9c1.3-1.1,3.3-0.9,4.4,0.5l0,0
				c1.1,1.3,0.9,3.3-0.5,4.4l0,0c-1.3,1.1-3.3,0.9-4.4-0.5l0,0C464.5,296,464.7,294,466.1,292.9z M455.3,279.7
				c1.3-1.1,3.3-0.9,4.4,0.5l0,0c1.1,1.3,0.9,3.3-0.5,4.4l0,0c-1.3,1.1-3.3,0.9-4.4-0.5l0,0C453.8,282.7,454,280.7,455.3,279.7z"/>
			<path class="st2" d="M498,337.1c-0.5-0.6-0.8-1.5-0.7-2.3c0.1-0.8,0.5-1.6,1.1-2.1c0.6-0.5,1.5-0.8,2.3-0.7
				c1.6,0.2,2.9,1.8,2.8,3.4c-0.1,0.8-0.5,1.6-1.1,2.1c-0.6,0.5-1.5,0.8-2.3,0.7C499.3,338.1,498.5,337.7,498,337.1z"/>
			<path class="st2" d="M418.4,249.5l83.7,102.9c0.3-0.7,0.7-1.5,1-2.2l-82.3-101.2C420,249.1,419.2,249.3,418.4,249.5z"/>
			<path class="st2" d="M262.4,347.5c-17.2,23.1-30.2,48-38.5,73.4c1.9,1.8,3.7,3.7,5.4,5.7c0.3,0.4,0.6,0.8,1,1.2
				c7.6-27.7,21-55.1,39.9-80.2C267.6,347.6,265,347.5,262.4,347.5z"/>
			<path class="st2" d="M375.7,477.5c-28.4,13.3-57.9,20.9-86.6,22.7c0.3,0.4,0.7,0.8,1,1.2c1.7,2.1,3.2,4.2,4.5,6.5
				c26.5-3,53.6-10.5,79.7-22.7C374.8,482.6,375.3,480.1,375.7,477.5z"/>
			<g>
				<path class="st4" d="M240.3,538.3c-38.3,31.2-114.5,34.5-114.5,34.5s18.8-73.9,57.2-105.1c19.5-15.8,42.3-8.2,58.2,11.3
					C257,498.6,259.8,522.5,240.3,538.3z"/>
				<path class="st5" d="M237.6,529c-15.6,12.7-48.2,18.1-60.9,2.4c-12.7-15.6-0.8-46.4,14.8-59.1c15.6-12.7,32.9-5.6,45.6,10
					C249.8,498,253.2,516.3,237.6,529z"/>
				<path class="st1" d="M236.1,511c-9.3,7.5-28.7,10.9-36.3,1.6c-7.5-9.3-0.2-27.6,9-35.2c9.3-7.5,17.1-1.4,24.6,7.8
					C241,494.6,245.4,503.5,236.1,511z"/>
			</g>
			<g>
				<g>
					<path class="st3" d="M227.8,438c-1,4.7,0.2,9.6,3.2,13.4l35.2,43.3c3,3.7,7.6,5.9,12.4,5.9c3.5,0,6.9-0.2,10.4-0.4l-58.8-72.3
						C229.4,431.2,228.5,434.6,227.8,438z"/>
				</g>
				<g>
					<path class="st2" d="M235.1,433.8l-7.6,6.2c-0.1,0.7-0.1,1.4,0,2.1l8.7-7.1L235.1,433.8z"/>
					<path class="st2" d="M240.4,440.4l-10.9,8.9c0.3,0.5,0.6,0.9,0.9,1.4l11-9L240.4,440.4z"/>
					
						<rect x="233.7" y="451.3" transform="matrix(0.7757 -0.6311 0.6311 0.7757 -231.3001 253.3437)" class="st2" width="14.3" height="1.6"/>
					
						<rect x="239" y="457.8" transform="matrix(0.7757 -0.6311 0.6311 0.7757 -234.2505 258.1947)" class="st2" width="14.3" height="1.6"/>
					
						<rect x="244.3" y="464.4" transform="matrix(0.7757 -0.6311 0.6311 0.7757 -237.2004 263.0446)" class="st2" width="14.3" height="1.6"/>
					
						<rect x="249.7" y="471" transform="matrix(0.7757 -0.6311 0.6311 0.7757 -240.15 267.8936)" class="st2" width="14.3" height="1.6"/>
					
						<rect x="255" y="477.6" transform="matrix(0.7757 -0.6311 0.6311 0.7757 -243.0946 272.7305)" class="st2" width="14.3" height="1.6"/>
					
						<rect x="260.4" y="484.1" transform="matrix(0.7757 -0.6311 0.6311 0.7757 -246.0437 277.5783)" class="st2" width="14.3" height="1.6"/>
					<path class="st2" d="M277.9,486.4l-11,9c0.4,0.4,0.8,0.8,1.2,1.2l10.9-8.9L277.9,486.4z"/>
					<path class="st2" d="M283.2,493l-8.7,7.1c0.7,0.2,1.4,0.3,2.1,0.4l7.6-6.2L283.2,493z"/>
				</g>
			</g>
			<g>
				<path class="st1" d="M517.7,254.2c1.3,1.6,1.1,4.4-0.7,8c-20,39.4-63.9,90.1-121.8,137.2c-46.5,37.8-93.4,66.2-132.1,81.9
					c-3.7,1.5-6.5,1.5-7.6,0l0,0l10.8,13.3c3,3.7,7.6,5.9,12.4,5.9c51-0.7,105.4-19.8,151.9-57.6c57.9-47.1,90.1-112.2,92.2-173.6
					C523,263.7,521,258.4,517.7,254.2z"/>
			</g>
		</g>
		<path class="st2" d="M316.5,381.1c2.4-24.7-19.4-22.7-19.4-22.7l24.8-28.9l-10.9-25c-4.3,3.6-8.4,7.3-12.3,11.1l8.5,11.8
			l-20.9,33.2C286.2,360.7,314.2,404.5,316.5,381.1z"/>
		<g>
			<g>
				<g>
					<g>
						<path class="st1" d="M252.5,186.6l139.7-11.8c-1,18.8-2.4,43.4,6.6,64.4c-17.6,21.2-85.6,63.1-111.2,64.4
							C270.2,274,257.2,230,252.5,186.6z"/>
					</g>
				</g>
			</g>
			<g>
				<path class="st6" d="M398.8,239.1l-111.2,64.4l14,25.3l-24.7,30.4c0,0,22.5,46.9,27.5,23.9c5.4-24.2-16.6-24.9-16.6-24.9
					l28.1-25.7l-8.2-27.5c0,0,40.3-27.9,82.5-49.6l1.5,1.9c5-1.8,9.9-3.4,14.9-4.9L398.8,239.1z"/>
			</g>
			<g>
				<g>
					<g>
						<path class="st0" d="M392.3,174.8c0,0,9.3-141.8-101.7-108.1c0,0-35.4,41.9-38,120C346.1,210.9,392.3,174.8,392.3,174.8z"/>
					</g>
				</g>
				<g>
					<g>
						<path class="st6" d="M382,0c10.4,39.7,16.2,96-100,102l-1.4,30.1c0,0-13.1-10-15.2,4.2c-2,14.3,14.3,7.3,14.3,7.3
							s-12.9,26.6-27.1,42.9c-0.9,1-61.8-123.9,1.4-130.2c0,0,2.7-31.5,46.8-36.8C341.1,14.8,361.6,51.6,382,0z"/>
					</g>
				</g>
			</g>
			<g>
				<path class="st7" d="M327.4,155.1c0,0,17.6-4.8,41-6.8c0,0,2.8,22.2-16.9,25.5C329.8,177.3,327.4,155.1,327.4,155.1z"/>
			</g>
			<g>
				<path class="st6" d="M319.1,128.2c1.4,5.7,0.4,10.9-2.2,11.6c-2.6,0.6-5.9-3.5-7.3-9.2c-1.4-5.7-0.4-10.9,2.2-11.6
					C314.5,118.3,317.7,122.4,319.1,128.2z"/>
				<path class="st6" d="M375.2,114.5c1.4,5.7,0.4,10.9-2.2,11.6c-2.6,0.6-5.9-3.5-7.3-9.2c-1.4-5.7-0.4-10.9,2.2-11.6
					C370.5,104.6,373.8,108.8,375.2,114.5z"/>
			</g>
			<g>
				<g>
					<g>
						<path class="st2" d="M269.1,203.1c56.9,56.6,104.6,72.2,106.9,72.5c3,0.4,8.9,1.7,8.1,4.5c-0.4,1.4-1.4,1.9-3.3,1.8
							c1.2,0.5,2.4,1.1,2.4,2.4c-0.1,1.2-2.2,2.1-3.5,2.1c-0.1,0-0.2,0-0.4,0c0.1,0,0.2,0,0.4,0c1.1,0.2,2.4,1.4,2.4,2.5
							c-0.1,1.4-2,1.9-3.4,1.7c1.2,0.5,2.1,1.1,2,2.5c-0.2,2.8-4.6,2.4-8.6,2c-6.1-0.2-61.8-15-113.5-80.1L269.1,203.1z"/>
					</g>
				</g>
				<g>
					<g>
						<path class="st0" d="M269,203c57.3,56.2,105.1,71.4,107.4,71.7c3,0.4,8.9,1.7,8.2,4.4c-0.4,1.4-1.4,1.9-3.3,1.8
							c1.2,0.4,2.5,1.1,2.4,2.4c-0.1,1.2-2.2,2.1-3.5,2.1c-0.1,0-0.2,0-0.4,0c0.1,0,0.2,0,0.4,0c1.1,0.2,2.4,1.4,2.4,2.5
							c-0.1,1.4-2,1.9-3.4,1.8c1.2,0.4,2.1,1.1,2,2.4c-0.1,2.8-5.4,1.5-8.5,0.7c-2.5-0.6-52.6-16.3-114.2-77.9L269,203z"/>
					</g>
				</g>
				<g>
					<path class="st1" d="M269,203l-10.5,11.9c4.5,4.5,8.9,8.7,13.3,12.8l10-12.6C277.6,211.3,273.4,207.3,269,203z"/>
				</g>
			</g>
		</g>
		<g>
			<g>
				<path class="st1" d="M381.4,191l4,4.2l-2.1,6.8c0,0,4.7,38.8-41.4,49.2L328.1,241l10.7-12.3c38.8,0.3,37.5-24.1,37.5-24.1
					l-6-4.9l1.2-4.7L381.4,191z"/>
			</g>
			<g>
				<path class="st6" d="M381.4,191l4,4.2l-2.1,6.8c0,0,4.4,35.2-41.7,45.7l-13.9-10.2l10.7-12.3c38.8,0.3,37.8-20.5,37.8-20.5
					l-6-4.9l1.2-4.7L381.4,191z"/>
			</g>
		</g>
	</g>
	<g>
		<path class="st8" d="M111.9,370.1c-0.9,0-1.7,0.1-2.6,0.2c0-0.3,0-0.6,0-0.9c0-11.7-9.5-21.2-21.2-21.2
			c-10.1,0-18.6,7.1-20.7,16.6c-0.2,0-0.3,0-0.5,0c-9.9,0-17.9,8-17.9,17.9c0,9.9,8,17.9,17.9,17.9h45c8.4,0,15.3-6.8,15.3-15.3
			S120.3,370.1,111.9,370.1z"/>
	</g>
	<g>
		<path class="st8" d="M618.6,393.9c-0.8,0-1.5,0.1-2.3,0.2c0-0.3,0-0.5,0-0.8c0-10.4-8.5-18.9-18.9-18.9c-9,0-16.6,6.3-18.5,14.8
			c-0.2,0-0.3,0-0.5,0c-8.8,0-16,7.1-16,16c0,8.8,7.1,16,16,16h40.1c7.5,0,13.6-6.1,13.6-13.6C632.2,400,626.1,393.9,618.6,393.9z"
			/>
	</g>
	<g>
		<path class="st8" d="M672.9,539.5c-0.6,0-1.1,0.1-1.6,0.1c0.1-0.7,0.1-1.4,0.1-2.1c0-9.3-7.5-16.9-16.9-16.9
			c-8.9,0-16.2,6.9-16.8,15.6c-0.9-0.2-1.9-0.4-2.9-0.4c-6.7,0-12.1,5.4-12.1,12.1s5.4,12.1,12.1,12.1h38.1
			c5.7,0,10.3-4.6,10.3-10.3C683.2,544.1,678.6,539.5,672.9,539.5z"/>
	</g>
	<g>
		<path class="st8" d="M47.3,518.8c-0.5,0-1,0.1-1.5,0.1c0.1-0.6,0.1-1.3,0.1-2c0-8.8-7.1-15.9-15.9-15.9c-8.4,0-15.2,6.5-15.8,14.7
			c-0.9-0.2-1.8-0.3-2.7-0.3c-6.3,0-11.4,5.1-11.4,11.4s5.1,11.4,11.4,11.4h35.9c5.4,0,9.7-4.4,9.7-9.7
			C57,523.1,52.7,518.8,47.3,518.8z"/>
	</g>
</g>
</svg>
