<?xml version="1.0" encoding="utf-8"?>
<!-- Generator: Adobe Illustrator 25.2.3, SVG Export Plug-In . SVG Version: 6.00 Build 0)  -->
<svg version="1.1" id="Layer_1" xmlns="http://www.w3.org/2000/svg" xmlns:xlink="http://www.w3.org/1999/xlink" x="0px" y="0px"
	 viewBox="0 0 1575.5 1275.3" style="enable-background:new 0 0 1575.5 1275.3;" xml:space="preserve">
<style type="text/css">
	.st0{fill:#08C6A4;}
	.st1{fill:#E4E4EF;}
	.st2{fill:#FFD3CA;}
	.st3{fill:#333333;}
	.st4{fill:#EDF3FF;}
	.st5{opacity:5.000000e-02;}
	.st6{fill:#553625;}
	.st7{fill:#E87E86;}
	.st8{fill:#002577;}
	.st9{fill:#05826C;}
	.st10{fill:#FFFFFF;}
	.st11{opacity:7.000000e-02;}
	.st12{fill:#BC0808;}
</style>
<g>
	<g>
		<g>
			<path class="st0" d="M1412.3,1046.6c0.5-3.6-4.9-5.1-5.4-1.5c-9.4,67.2-21.3,132.8-33.9,199.5c-22.9-0.2-45.7,1.1-68.5,0
				c0.6-56.8,7.4-103.6,20.2-158.9c5.4-23.4,12.2-47,26.2-66.5c14-19.5,36.6-34.3,60.6-33c32.2,1.7,57,32.1,63.4,63.8
				c6.4,31.6-1.3,64.2-9,95.6c5.9-23.5,37.1-34.1,58.8-23.4c21.7,10.7,32.6,36.8,31.2,60.9c-1.4,24.1-13.2,41.7-27.1,61.4
				c-13.6,0.4-27.1-0.4-40.6,0c3.3-9.6,6.1-19.7,8.8-29.5c2.5-9.4,4.7-18.9,7.8-28.1c2.5-7.3,4.7-12.1,6.5-22.6
				c0.6-3.6-4.8-3.5-5.6,0c-3,13.1-4.6,15.6-6.9,23c-2.7,8.6-4.8,17.4-7.2,26.2c-2.8,10.4-5.7,20.9-9.3,31
				c-34.6,0.9-69.1,0.2-103.5,0C1391.2,1178.4,1402.9,1113.3,1412.3,1046.6z"/>
		</g>
	</g>
	<g>
		<g>
			<g>
				<path class="st1" d="M1436.9,158.6c0.4-2.3,0.6-6.3,0.6-9.7c0-48.3-39.1-87.4-87.4-87.4c-6.1,0-12,0.7-17.8,1.9
					c-19.1-37.6-58-63.4-103.1-63.4c-55.2,0-101.4,38.8-112.8,90.6c-0.5,0-1.1-0.2-1.6-0.2c-39.7,0-72.4,30.9-77,68.1H1436.9z"/>
			</g>
		</g>
	</g>
	<g>
		<g>
			<g>
				<g>
					<g>
						<g>
							<path class="st2" d="M700.3,882.6l54,194.2l-7.9,140.5c0,0,40.7,65.8,62.3,45c24.4-23.5-36.9-55-36.9-55l31-128.9l-20-196.6
								L700.3,882.6z"/>
						</g>
						<g>
							<path class="st3" d="M746.5,1217.3l-3.5,41.4l8.7,1.1l3.9-12.7c0,0,12.8,23,44.1,27.3c63.8,8.8,7.3-51.1-27.6-67.1
								c0,0,47.9,25,30.2,37.7C774.4,1264.9,746.5,1217.3,746.5,1217.3z"/>
						</g>
					</g>
					<g>
						<g>
							<path class="st2" d="M581.3,883.3l37.9,183.3l-96.5,78.3c0,0-22.9,71.7,6.9,76.3c33.4,5.2,19-59.1,17.5-63.9l125.5-72.7
								l-8.6-197.4L581.3,883.3z"/>
						</g>
						<g>
							<path class="st3" d="M522.7,1144.9l-33.7,24.7l4.9,7.2l12.2-5.5c0,0-9,24.7,8.3,51c35.2,53.6,43.5-28.2,32.7-64.9
								c0,0,12.5,52.3-8.8,47.5C505,1197.2,522.7,1144.9,522.7,1144.9z"/>
						</g>
					</g>
					<g>
						<g>
							<polygon class="st2" points="570.5,504.6 583.6,570.5 635.2,643.4 655.1,556.8 642,490.9 							"/>
						</g>
						<g>
							<polygon class="st3" points="583.6,570.5 502.8,611.8 555.5,797.5 550.4,895.6 808.4,845.6 763,757.7 739.7,564.6 
								655.1,556.8 635.2,643.4 							"/>
						</g>
						<g>
							<polygon class="st4" points="655.1,556.8 671.7,558.3 641.9,676.8 568.7,578.5 583.6,570.5 635.2,643.4 							"/>
						</g>
						<g>
							<polygon class="st4" points="583.6,570.5 568.7,578.1 574,637.8 594,623 620.2,622.2 							"/>
						</g>
						<g>
							<polygon class="st4" points="655.1,556.8 671.7,558.3 689.7,615.6 665.6,609.2 641,618.2 							"/>
						</g>
						<g>
							<g>
								<polygon class="st3" points="816.7,942.9 578.8,994.4 566,892.1 790.8,849 								"/>
							</g>
							<g class="st5">
								<polygon points="566.1,892.6 569.5,920.3 793.1,857.5 790.8,849 								"/>
							</g>
						</g>
					</g>
					<g>
						<g>
							<path class="st6" d="M477.4,317.9c0,0-86.7-80.2-154.6-17.9c-89.9,82.4,99.6,220.3-27.2,262c76,72.4,184.3-13.3,111.2-120.2
								C334.2,335.8,397.9,265.9,477.4,317.9z"/>
						</g>
						<g>
							<path class="st2" d="M706.3,338c25,85.1-1.5,166.1-75.5,191.5c-74,25.4-160.5-18.7-189.2-100c-28.7-81.3,8-167.7,82-193.1
								C652.1,192.3,682.1,255.4,706.3,338z"/>
						</g>
						<g>
							<g>
								<path class="st7" d="M660.3,439.7c-14.6,1.8-53.3,12.3-68,17.6c-1.5,0.5-2.3,2.2-1.7,3.8c3.1,8.2,14.8,31.3,45.3,23.8
									c28.3-7,28.5-33.6,27.7-42.5C663.4,440.7,661.9,439.5,660.3,439.7z"/>
							</g>
						</g>
						<path class="st8" d="M562.4,390c2.9,11.5,0.9,22-4.6,23.3c-5.5,1.4-12.3-6.8-15.2-18.3c-2.9-11.5-0.9-22,4.6-23.3
							C552.7,370.3,559.5,378.5,562.4,390z"/>
						<path class="st8" d="M686.7,358.4c2.9,11.5,0.9,22-4.6,23.3c-5.5,1.4-12.3-6.8-15.2-18.3c-2.9-11.5-0.9-22,4.6-23.3
							C677,338.7,683.8,346.9,686.7,358.4z"/>
						<g>
							<path class="st6" d="M476.4,334.2c0,0,125.7-6.7,225.7-53.1c-33.6-94.7-147.2-139.9-258.5-54.8
								c-123.4,94.3-11.5,250.8,61.1,289.8c6.8-46.8-2.1-93.2-2.1-93.2s-26,21.4-30.7-9.1c-3.4-21.9,24.5-16.6,24.5-16.6
								L476.4,334.2z"/>
						</g>
					</g>
				</g>
				<g>
					<path class="st2" d="M554.8,850.5c23.5,3.5,46.3,10.9,37.6,30.3c-8.5,18.9-38.1,1.3-46.2,0.7L554.8,850.5z"/>
					<g>
						<path class="st3" d="M502.8,611.8c-153.3,159-97.8,241.7,44.3,274.8l13.9-38.5c-73.7-23.8-186.6-46.7-27.8-212.3L502.8,611.8z
							"/>
					</g>
				</g>
			</g>
			<path class="st2" d="M878.6,543.2c5.6-23.1,14.9-45.2,33.5-34.8c18.1,10.1-2,38.1-3.3,46.1L878.6,543.2z"/>
			<g>
				<g>
					<path class="st3" d="M714.5,609.4c65.5,151.3,139.4,91.9,199.2-57.1l-37.2-17.1c-26.9,59.4-85.3,199.9-136.9,29.3L714.5,609.4z
						"/>
				</g>
			</g>
		</g>
	</g>
	<g>
		<g>
			<g>
				<g>
					<path class="st1" d="M375,252.6c-1-25.2-21.6-45.3-47.1-45.3c-5.4,0-10.6,1-15.4,2.6c-9.7-23.2-32.6-39.5-59.3-39.5
						c-3.2,0-6.2,0.3-9.3,0.7c0-0.2,0-0.5,0-0.7c0-49.6-40.2-89.9-89.9-89.9c-49.6,0-89.9,40.2-89.9,89.9
						C28.8,170.3,0,199.1,0,234.6c0,6.2,0.9,12.3,2.6,18H375z"/>
				</g>
			</g>
		</g>
	</g>
	<g>
		<g>
			
				<rect x="1013.7" y="349.4" transform="matrix(0.942 -0.3355 0.3355 0.942 -78.8665 365.3118)" class="st1" width="8" height="123.1"/>
		</g>
		<g>
			
				<rect x="970.8" y="376.5" transform="matrix(0.8227 -0.5685 0.5685 0.8227 -76.1805 631.8751)" class="st1" width="8" height="123.1"/>
		</g>
	</g>
	<g>
		<g>
			<path class="st9" d="M1158.4,491.6L1158.4,491.6c-65.2,0-118.1,52.9-118.1,118.1v193.4h236.2V609.7
				C1276.5,544.5,1223.6,491.6,1158.4,491.6z"/>
		</g>
		<g>
			<rect x="916.7" y="791" class="st0" width="359.8" height="12.1"/>
		</g>
		<g>
			<g>
				<rect x="1095.1" y="626.1" class="st1" width="286.9" height="164.8"/>
			</g>
			<g>
				<polyline class="st10" points="1095.1,791 1238.5,673.3 1382,791 				"/>
			</g>
			<g class="st11">
				<polygon points="1095.1,626.1 1238.5,716 1382,626.1 				"/>
			</g>
			<g>
				<polygon class="st10" points="1095.1,626.1 1238.5,708.5 1382,626.1 				"/>
			</g>
		</g>
		<g>
			<g>
				<path class="st0" d="M1457.4,491.6h-299c65.2,0,118.1,52.9,118.1,118.1v193.4h299V609.7C1575.5,544.5,1522.6,491.6,1457.4,491.6
					z"/>
			</g>
		</g>
		<g>
			<g class="st11">
				<path d="M1351.7,491.6l-9.2,113.5c-12.4,5.4-21.5,17.2-22.6,31.6c-1.7,20.8,13.8,39,34.6,40.7c20.8,1.7,39-13.8,40.7-34.6
					c1.2-14.4-5.9-27.5-17.3-34.8l9.4-116.3H1351.7z"/>
			</g>
			<g>
				<path class="st9" d="M1426.3,400.4v-68.9h-54h-35.5v68.9v199.8c-11.9,6.4-20,18.9-20,33.3c0,20.9,16.9,37.8,37.8,37.8
					c20.9,0,37.8-16.9,37.8-37.8c0-14.4-8.1-27-20-33.3V400.4H1426.3z"/>
			</g>
			<g>
				<path class="st1" d="M1370,633.6c0,8.5-6.9,15.4-15.4,15.4c-8.5,0-15.4-6.9-15.4-15.4c0-8.5,6.9-15.4,15.4-15.4
					C1363.1,618.2,1370,625.1,1370,633.6z"/>
			</g>
		</g>
		<g class="st11">
			<rect x="1261.9" y="626.1" width="14.6" height="164.8"/>
		</g>
		<polygon class="st1" points="1253,803.1 1253,1245 1343.8,1245 1343.8,803.1 		"/>
		<g class="st11">
			<polygon points="1253,803.1 1253,819.9 1302.3,819.9 1343.8,844.6 1343.8,803.1 			"/>
		</g>
		<g>
			<g class="st11">
				<ellipse transform="matrix(0.7071 -0.7071 0.7071 0.7071 -124.8862 973.4911)" cx="1112.7" cy="637.5" rx="57" ry="57"/>
			</g>
			<g>
				
					<ellipse transform="matrix(0.7071 -0.7071 0.7071 0.7071 -119.1051 971.0965)" class="st12" cx="1112.7" cy="629.3" rx="57" ry="57"/>
			</g>
			<g>
				<path class="st10" d="M1107.5,615.9H1093v-9.7h1.3c4.9,0,8.8-0.9,11.7-2.8c2.8-1.9,4.6-4.8,5.4-9h10.9v72.8h-14.8V615.9z"/>
			</g>
		</g>
	</g>
</g>
</svg>
