<?xml version="1.0" encoding="utf-8"?>
<!-- Generator: Adobe Illustrator 25.2.3, SVG Export Plug-In . SVG Version: 6.00 Build 0)  -->
<svg version="1.1" xmlns="http://www.w3.org/2000/svg" xmlns:xlink="http://www.w3.org/1999/xlink" x="0px" y="0px"
	 viewBox="0 0 800 600" style="enable-background:new 0 0 800 600;" xml:space="preserve">
<style type="text/css">
	.st0{fill:#F1F2F2;}
	.st1{fill:#FDDCBE;}
	.st2{fill:#E6E7E8;}
	.st3{fill:#F5F5F5;}
	.st4{fill:#3D3429;}
	.st5{fill:#CCCCCC;}
	.st6{fill:#EB7D86;}
	.st7{fill:#F5E47B;}
	.st8{fill:#FFDE17;}
	.st9{fill:#82470C;}
	.st10{fill:#C6D9D0;}
</style>
<g id="Layer_2">
</g>
<g id="Layer_1">
	<g>
		<g>
			<ellipse class="st0" cx="401.7" cy="510" rx="259.8" ry="12"/>
		</g>
	</g>
	<g>
		<g>
			<g>
				<path class="st1" d="M276.9,242.2c69.7-15.4,84.4-68.4,84.9-71.1c0.6-3.5,2.4-10.5,5.6-9.5c1.6,0.5,2.2,1.7,2,4
					c0.6-1.4,1.4-2.9,2.9-2.7c1.4,0.1,2.5,2.7,2.3,4.3c0,0.1-0.1,0.3-0.1,0.4c0-0.1,0-0.3,0.1-0.4c0.3-1.4,1.8-2.8,3.1-2.7
					c1.7,0.1,2.2,2.4,2,4.1c0.6-1.4,1.4-2.4,3-2.3c3.3,0.3,1.6,6.5,0.5,10.2c-0.9,3-23.4,68.1-101.4,84.1L276.9,242.2z"/>
			</g>
		</g>
		<g>
			<g>
				<path class="st2" d="M276.9,242.2l5,18.2c25.6-5.3,45.3-15.8,60.1-27.7c-8.3-1.1-17.7-2.9-25.5-5.8
					C305.8,233.2,292.8,238.7,276.9,242.2z"/>
			</g>
		</g>
		<g>
			<g>
				<g>
					<g>
						<g>
							<path class="st3" d="M200.3,360.5l105-135.1c21.3,16.7,44.4,22.1,54.5,23.7c14.2,29.6,25.9,124,14.6,152.4
								C315.1,409.3,262.4,410.9,200.3,360.5z"/>
						</g>
					</g>
				</g>
				<g>
					<g>
						<path class="st4" d="M374.4,401.4l34.3-2.6l20.7,41.9c0,0,61.9-1.1,39.6-18c-23.6-17.8-35.2,5.6-35.2,5.6L420,385.2l-33.9-4.8
							c0,0,1.9-61.7-12.7-113.9l36.2-9.1l40.9,19.2c0,0,46.9-23.3,20.1-31.4c-21.8-6.6-23.7,21.1-23.7,21.1l-32.6-22.7l-54.4,5.4
							L374.4,401.4z"/>
					</g>
				</g>
				<g>
					<g>
						<path class="st5" d="M374.7,271.4l-72,10.2l-4.6-9.8l-8.1,0l-8.2,16.3l4.2,6.3l12.1-1.7l83.6,15.1
							C380,295.8,377.8,283.5,374.7,271.4z"/>
					</g>
				</g>
				<g>
					<path class="st2" d="M253.2,383.4c6.7,5.6,13.3,10.9,19.7,16c13.8,3.8,27.5,5.6,41.2,6.1c-15.3-10.7-32.3-23.2-49.8-37.3
						c-8.1-6.5-16.2-13.3-24.3-20.4l-6.7,15.7C241.6,370.8,245.2,376.8,253.2,383.4z"/>
				</g>
				<g>
					<g>
						<polygon class="st4" points="290,271.8 298,271.8 302.7,281.6 384.2,261.7 406.9,284 383.5,303 298.1,292.7 286,294.4 
							281.8,288.1 						"/>
					</g>
				</g>
				<g>
					<g>
						<g>
							<path class="st1" d="M305.3,225.3c0,0-129.9-129.4-173.8,19.8c0,0-2.9,56,68.8,115.3C291.4,290,305.3,225.3,305.3,225.3z"/>
						</g>
					</g>
					<g>
						<g>
							<path class="st4" d="M182,97.2c0,0,90.3,74.9-24.1,163l25.5,33.3c0,0-20.5,3-10.6,17c9.9,14,17.4-6.4,17.4-6.4
								s14.5,33.4,10,56.4c1.5,0.3-164.1-78-100.3-118c0,0-18.5-29.1,9.8-66.2C139,137.8,197.2,160.7,182,97.2z"/>
						</g>
					</g>
				</g>
			</g>
			<g>
				<g>
					<polygon class="st4" points="239.9,195.8 239,232.1 268.7,219.1 266.1,211.2 246.1,221.2 247.5,197.8 					"/>
				</g>
			</g>
			<g>
				<g>
					<polygon class="st4" points="222.1,289.7 223.1,253.4 193.4,266.3 195.9,274.2 215.9,264.2 214.5,287.6 					"/>
				</g>
			</g>
			<g>
				<g>
					<path class="st6" d="M275.5,244.5c0,0-9.2,18.3-25.2,39.4c0,0-16.1-12.3-3.9-31.3C259.7,231.8,275.5,244.5,275.5,244.5z"/>
				</g>
			</g>
			<g>
				<g>
					<g>
						<path class="st3" d="M225.8,359.7l14.1-12c6.4,8.6,13,17,19.5,25l-14,12.6C239.1,377.3,232.5,368.7,225.8,359.7z"/>
					</g>
				</g>
				<g>
					<g>
						<path class="st1" d="M259.5,372.8c45,55.4,99,44.8,101.6,43.9c3.4-1,10.5-2.6,11,0.8c0.3,1.7-0.5,2.7-2.6,3.6
							c1.5-0.1,3.2-0.1,3.8,1.4c0.5,1.3-1.3,3.4-2.8,4c-0.1,0-0.3,0.1-0.4,0.1c0.1-0.1,0.3-0.1,0.4-0.1c1.3-0.4,3.3,0.3,3.8,1.5
							c0.6,1.6-1.2,3-2.8,3.6c1.5-0.1,2.8,0.2,3.4,1.7c1.2,3.1-5.1,4.3-8.9,5c-3,0.6-71.3,9.7-120.6-52.8L259.5,372.8z"/>
					</g>
				</g>
			</g>
		</g>
	</g>
	<g>
		<g>
			<g>
				<path class="st7" d="M667.1,336.6c-1.4,4.6-24.3,18.5-45.9,5.5c-16.7-10.1-24.3-0.8-23.9,0.5c0.4,1.3,6.8,12.1,17.6,17
					c10.2,4.6,31.3,12,55.2-4.9L667.1,336.6z"/>
			</g>
			<g>
				<path class="st7" d="M685.1,347.5c-2.8,3.3-2.5,27.7,18,38c15.9,8,12.4,18.3,11.2,18.6c-1.2,0.3-12.6,0.7-21.6-5.3
					c-8.4-5.6-24.4-18.3-23-44.8L685.1,347.5z"/>
			</g>
			<g>
				<g>
					<path class="st0" d="M685.1,347.5l-15.4,6.5c-0.6,10.9,1.8,19.4,5.3,26.1c3.6-3.1,7.8-7.5,11.4-13.2
						C682.9,357.9,683.5,349.4,685.1,347.5z"/>
				</g>
			</g>
			<g>
				<g>
					<path class="st0" d="M663,340.8c-4,11-9.5,18.6-13.8,23.3c6.6-1.4,13.6-4.3,20.9-9.4l-3-18.1
						C666.7,337.6,665.3,339.2,663,340.8z"/>
				</g>
			</g>
			<g>
				<path class="st8" d="M607,404.1c-1.8-3,2.3-16.9,14.3-22.1c12-5.2,35.4-14.9,42-36.3c6.6-21.4,20-25.1,20-25.1l6.6,1.9
					c2.8,4.2,4.5,35.1-23.3,58.4C642.2,401.2,608.7,407.1,607,404.1z"/>
			</g>
			<g>
				<polygon class="st9" points="683.3,320.5 683.7,312 693.8,313.4 689.9,322.4 				"/>
			</g>
			<g>
				<g>
					<path class="st0" d="M686.9,321.6c-8.4,53.8-52.1,72.6-80.2,79.1c-0.2,1.5-0.1,2.7,0.3,3.4c1.8,3,35.2-2.9,59.6-23.3
						c27.8-23.3,26.1-54.2,23.3-58.4L686.9,321.6z"/>
				</g>
			</g>
		</g>
		<g>
			<path class="st10" d="M559.9,404.8c-0.5,0-0.9-0.3-1-0.8c-0.1-0.5,0.2-1.1,0.8-1.2c0.2,0,22.4-5.1,39.8-14.2
				c0.5-0.3,1.1-0.1,1.3,0.4c0.3,0.5,0.1,1.1-0.4,1.3c-17.6,9.2-40,14.3-40.3,14.4C560.1,404.8,560,404.8,559.9,404.8z"/>
		</g>
		<g>
			<path class="st10" d="M539.9,426.7c-0.5,0-0.9-0.4-1-0.9c-0.1-0.5,0.3-1.1,0.9-1.1c0.3,0,31.1-4.4,56.2-15.5
				c0.5-0.2,1.1,0,1.3,0.5c0.2,0.5,0,1.1-0.5,1.3c-25.4,11.2-56.5,15.6-56.8,15.6C540,426.7,540,426.7,539.9,426.7z"/>
		</g>
		<g>
			<path class="st10" d="M589.2,432.8c-0.5,0-0.9-0.3-1-0.8c-0.1-0.5,0.2-1.1,0.8-1.2c0.2,0,22.5-4.6,47.2-19
				c0.5-0.3,1.1-0.1,1.4,0.4c0.3,0.5,0.1,1.1-0.4,1.4c-25.1,14.6-47.6,19.2-47.8,19.3C589.3,432.8,589.3,432.8,589.2,432.8z"/>
		</g>
	</g>
	<g>
		<path class="st10" d="M361.8,230.6c-0.3,0-0.5-0.1-0.7-0.3c-0.4-0.4-0.3-1,0.1-1.4c0.2-0.2,24.2-22,31.9-44.3
			c0.2-0.5,0.7-0.8,1.3-0.6c0.5,0.2,0.8,0.7,0.6,1.3c-7.8,22.8-32.2,44.9-32.4,45.2C362.3,230.5,362,230.6,361.8,230.6z"/>
	</g>
	<g>
		<path class="st10" d="M381.6,226.7c-0.3,0-0.6-0.1-0.7-0.3c-0.4-0.4-0.3-1,0.1-1.4c0.1-0.1,11.4-10.2,19.6-25.4
			c0.3-0.5,0.9-0.7,1.4-0.4c0.5,0.3,0.7,0.9,0.4,1.4c-8.4,15.5-19.9,25.8-20,25.9C382,226.6,381.8,226.7,381.6,226.7z"/>
	</g>
	<g>
		<path class="st10" d="M308.3,465.5C308.3,465.5,308.3,465.5,308.3,465.5c-0.6,0-1-0.5-1-1c0-0.6,0.4-1,1-1c0,0,0,0,0,0
			c1.3,0,66.1-0.2,104.9-18.9c0.5-0.2,1.1,0,1.3,0.5c0.2,0.5,0,1.1-0.5,1.3C374.9,465.3,309.6,465.5,308.3,465.5z"/>
	</g>
	<g>
		<path class="st10" d="M359.6,473.5c-0.5,0-1-0.4-1-0.9c0-0.6,0.4-1,0.9-1.1c0.3,0,25.9-2.1,45.9-9.9c0.5-0.2,1.1,0,1.3,0.6
			c0.2,0.5-0.1,1.1-0.6,1.3C385.8,471.4,359.9,473.5,359.6,473.5C359.6,473.5,359.6,473.5,359.6,473.5z"/>
	</g>
</g>
</svg>
