<?xml version="1.0" encoding="utf-8"?>
<!-- Generator: Adobe Illustrator 25.2.3, SVG Export Plug-In . SVG Version: 6.00 Build 0)  -->
<svg version="1.1" xmlns="http://www.w3.org/2000/svg" xmlns:xlink="http://www.w3.org/1999/xlink" x="0px" y="0px"
	 viewBox="0 0 664.1 536.8" style="enable-background:new 0 0 664.1 536.8;" xml:space="preserve">
<style type="text/css">
	.st0{fill:#BFD6CB;}
	.st1{fill:#FDDCBE;}
	.st2{fill:#E6E7E8;}
	.st3{fill:#F5F5F5;}
	.st4{fill:#3D3429;}
	.st5{fill:#CCCCCC;}
	.st6{fill:#EB7D86;}
	.st7{fill:#FFFFFF;}
	.st8{fill:#3B52AB;}
	.st9{fill:#D1D3D4;}
	.st10{fill:#297770;}
	.st11{fill:#BD872C;}
	.st12{fill:#873E35;}
</style>
<g id="Layer_2">
</g>
<g id="Layer_1">
	<g>
		<g>
			<g>
				<g>
					<path class="st0" d="M645,275.1c-0.5,0-0.9-0.4-0.9-0.9v-8.5c0-0.5,0.4-0.9,0.9-0.9c0.5,0,0.9,0.4,0.9,0.9v8.5
						C645.9,274.7,645.5,275.1,645,275.1z"/>
				</g>
			</g>
			<g>
				<g>
					<path class="st0" d="M637.5,277.6c-0.2,0-0.5-0.1-0.7-0.3l-6-6c-0.4-0.4-0.4-1,0-1.3c0.4-0.4,1-0.4,1.3,0l6,6
						c0.4,0.4,0.4,1,0,1.3C638,277.5,637.8,277.6,637.5,277.6z"/>
				</g>
			</g>
			<g>
				<g>
					<path class="st0" d="M634,284.7h-8.5c-0.5,0-0.9-0.4-0.9-0.9c0-0.5,0.4-0.9,0.9-0.9h8.5c0.5,0,0.9,0.4,0.9,0.9
						C635,284.3,634.6,284.7,634,284.7z"/>
				</g>
			</g>
			<g>
				<g>
					<path class="st0" d="M630.6,298.2c-0.2,0-0.5-0.1-0.7-0.3c-0.4-0.4-0.4-1,0-1.3l6-6c0.4-0.4,1-0.4,1.3,0c0.4,0.4,0.4,1,0,1.3
						l-6,6C631,298.1,630.8,298.2,630.6,298.2z"/>
				</g>
			</g>
			<g>
				<g>
					<path class="st0" d="M643.7,304.2c-0.5,0-0.9-0.4-0.9-0.9v-8.5c0-0.5,0.4-0.9,0.9-0.9c0.5,0,0.9,0.4,0.9,0.9v8.5
						C644.6,303.8,644.2,304.2,643.7,304.2z"/>
				</g>
			</g>
			<g>
				<g>
					<path class="st0" d="M657.2,299.2c-0.2,0-0.5-0.1-0.7-0.3l-6-6c-0.4-0.4-0.4-1,0-1.3c0.4-0.4,1-0.4,1.3,0l6,6
						c0.4,0.4,0.4,1,0,1.3C657.6,299.1,657.4,299.2,657.2,299.2z"/>
				</g>
			</g>
			<g>
				<g>
					<path class="st0" d="M663.2,286.1h-8.5c-0.5,0-0.9-0.4-0.9-0.9c0-0.5,0.4-0.9,0.9-0.9h8.5c0.5,0,0.9,0.4,0.9,0.9
						C664.1,285.6,663.7,286.1,663.2,286.1z"/>
				</g>
			</g>
			<g>
				<g>
					<path class="st0" d="M652.1,278.6c-0.2,0-0.5-0.1-0.7-0.3c-0.4-0.4-0.4-1,0-1.3l6-6c0.4-0.4,1-0.4,1.3,0c0.4,0.4,0.4,1,0,1.3
						l-6,6C652.6,278.5,652.3,278.6,652.1,278.6z"/>
				</g>
			</g>
		</g>
		<g>
			<g>
				<g>
					<path class="st0" d="M48.9,289.8c-0.5,0-0.9-0.4-0.9-0.9v-8.5c0-0.5,0.4-0.9,0.9-0.9s0.9,0.4,0.9,0.9v8.5
						C49.8,289.4,49.4,289.8,48.9,289.8z"/>
				</g>
			</g>
			<g>
				<g>
					<path class="st0" d="M41.4,292.3c-0.2,0-0.5-0.1-0.7-0.3l-6-6c-0.4-0.4-0.4-1,0-1.3c0.4-0.4,1-0.4,1.3,0l6,6
						c0.4,0.4,0.4,1,0,1.3C41.9,292.3,41.7,292.3,41.4,292.3z"/>
				</g>
			</g>
			<g>
				<g>
					<path class="st0" d="M37.9,299.4h-8.5c-0.5,0-0.9-0.4-0.9-0.9c0-0.5,0.4-0.9,0.9-0.9h8.5c0.5,0,0.9,0.4,0.9,0.9
						C38.9,299,38.5,299.4,37.9,299.4z"/>
				</g>
			</g>
			<g>
				<g>
					<path class="st0" d="M34.5,312.9c-0.2,0-0.5-0.1-0.7-0.3c-0.4-0.4-0.4-1,0-1.3l6-6c0.4-0.4,1-0.4,1.3,0c0.4,0.4,0.4,1,0,1.3
						l-6,6C34.9,312.8,34.7,312.9,34.5,312.9z"/>
				</g>
			</g>
			<g>
				<g>
					<path class="st0" d="M47.6,318.9c-0.5,0-0.9-0.4-0.9-0.9v-8.5c0-0.5,0.4-0.9,0.9-0.9s0.9,0.4,0.9,0.9v8.5
						C48.5,318.5,48.1,318.9,47.6,318.9z"/>
				</g>
			</g>
			<g>
				<g>
					<path class="st0" d="M61.1,313.9c-0.2,0-0.5-0.1-0.7-0.3l-6-6c-0.4-0.4-0.4-1,0-1.3c0.4-0.4,1-0.4,1.3,0l6,6
						c0.4,0.4,0.4,1,0,1.3C61.5,313.8,61.3,313.9,61.1,313.9z"/>
				</g>
			</g>
			<g>
				<g>
					<path class="st0" d="M67.1,300.8h-8.5c-0.5,0-0.9-0.4-0.9-0.9s0.4-0.9,0.9-0.9h8.5c0.5,0,0.9,0.4,0.9,0.9
						S67.6,300.8,67.1,300.8z"/>
				</g>
			</g>
			<g>
				<g>
					<path class="st0" d="M56,293.3c-0.2,0-0.5-0.1-0.7-0.3c-0.4-0.4-0.4-1,0-1.3l6-6c0.4-0.4,1-0.4,1.3,0c0.4,0.4,0.4,1,0,1.3l-6,6
						C56.5,293.2,56.2,293.3,56,293.3z"/>
				</g>
			</g>
		</g>
		<g>
			<g>
				<g>
					<path class="st0" d="M604.2,15.5c-0.5,0-0.9-0.4-0.9-0.9V6c0-0.5,0.4-0.9,0.9-0.9c0.5,0,0.9,0.4,0.9,0.9v8.5
						C605.2,15.1,604.8,15.5,604.2,15.5z"/>
				</g>
			</g>
			<g>
				<g>
					<path class="st0" d="M596.8,18c-0.2,0-0.5-0.1-0.7-0.3l-6-6c-0.4-0.4-0.4-1,0-1.3c0.4-0.4,1-0.4,1.3,0l6,6c0.4,0.4,0.4,1,0,1.3
						C597.2,17.9,597,18,596.8,18z"/>
				</g>
			</g>
			<g>
				<g>
					<path class="st0" d="M593.3,25.1h-8.5c-0.5,0-0.9-0.4-0.9-0.9c0-0.5,0.4-0.9,0.9-0.9h8.5c0.5,0,0.9,0.4,0.9,0.9
						C594.2,24.7,593.8,25.1,593.3,25.1z"/>
				</g>
			</g>
			<g>
				<g>
					<path class="st0" d="M589.8,38.6c-0.2,0-0.5-0.1-0.7-0.3c-0.4-0.4-0.4-1,0-1.3l6-6c0.4-0.4,1-0.4,1.3,0c0.4,0.4,0.4,1,0,1.3
						l-6,6C590.3,38.5,590,38.6,589.8,38.6z"/>
				</g>
			</g>
			<g>
				<g>
					<path class="st0" d="M602.9,44.6c-0.5,0-0.9-0.4-0.9-0.9v-8.5c0-0.5,0.4-0.9,0.9-0.9c0.5,0,0.9,0.4,0.9,0.9v8.5
						C603.8,44.2,603.4,44.6,602.9,44.6z"/>
				</g>
			</g>
			<g>
				<g>
					<path class="st0" d="M616.4,39.6c-0.2,0-0.5-0.1-0.7-0.3l-6-6c-0.4-0.4-0.4-1,0-1.3c0.4-0.4,1-0.4,1.3,0l6,6
						c0.4,0.4,0.4,1,0,1.3C616.9,39.5,616.6,39.6,616.4,39.6z"/>
				</g>
			</g>
			<g>
				<g>
					<path class="st0" d="M622.4,26.5h-8.5c-0.5,0-0.9-0.4-0.9-0.9c0-0.5,0.4-0.9,0.9-0.9h8.5c0.5,0,0.9,0.4,0.9,0.9
						C623.3,26,622.9,26.5,622.4,26.5z"/>
				</g>
			</g>
			<g>
				<g>
					<path class="st0" d="M611.3,19c-0.2,0-0.5-0.1-0.7-0.3c-0.4-0.4-0.4-1,0-1.3l6-6c0.4-0.4,1-0.4,1.3,0c0.4,0.4,0.4,1,0,1.3l-6,6
						C611.8,18.9,611.6,19,611.3,19z"/>
				</g>
			</g>
		</g>
		<g>
			<g>
				<g>
					<path class="st0" d="M296.7,79c-0.5,0-0.9-0.4-0.9-0.9V58c0-0.5,0.4-0.9,0.9-0.9c0.5,0,0.9,0.4,0.9,0.9v20.1
						C297.6,78.6,297.2,79,296.7,79z"/>
				</g>
			</g>
			<g>
				<g>
					<path class="st0" d="M306.7,68.9h-20.1c-0.5,0-0.9-0.4-0.9-0.9s0.4-0.9,0.9-0.9h20.1c0.5,0,0.9,0.4,0.9,0.9
						S307.2,68.9,306.7,68.9z"/>
				</g>
			</g>
		</g>
		<g>
			<g>
				<g>
					<path class="st0" d="M629.6,448c-0.5,0-0.9-0.4-0.9-0.9V427c0-0.5,0.4-0.9,0.9-0.9c0.5,0,0.9,0.4,0.9,0.9v20.1
						C630.6,447.6,630.1,448,629.6,448z"/>
				</g>
			</g>
			<g>
				<g>
					<path class="st0" d="M639.7,438h-20.1c-0.5,0-0.9-0.4-0.9-0.9c0-0.5,0.4-0.9,0.9-0.9h20.1c0.5,0,0.9,0.4,0.9,0.9
						C640.6,437.5,640.2,438,639.7,438z"/>
				</g>
			</g>
		</g>
		<g>
			<g>
				<path class="st0" d="M478,195.8c-3.9,0-7-3.1-7-7c0-3.9,3.1-7,7-7c3.9,0,7,3.1,7,7C485,192.7,481.9,195.8,478,195.8z M478,183.7
					c-2.8,0-5.1,2.3-5.1,5.1s2.3,5.1,5.1,5.1s5.1-2.3,5.1-5.1S480.8,183.7,478,183.7z"/>
			</g>
		</g>
		<g>
			<g>
				<path class="st0" d="M12,144.8c-3.9,0-7-3.1-7-7s3.1-7,7-7s7,3.1,7,7S15.9,144.8,12,144.8z M12,132.7c-2.8,0-5.1,2.3-5.1,5.1
					s2.3,5.1,5.1,5.1c2.8,0,5.1-2.3,5.1-5.1S14.8,132.7,12,132.7z"/>
			</g>
		</g>
		<g>
			<g>
				<path class="st0" d="M94.2,24L94.2,24L94.2,24L94.2,24L94.2,24L94.2,24z M92.8,22.6c0-0.8,0.6-1.4,1.4-1.4l0,0
					c0.8,0,1.4,0.6,1.4,1.4l0,0c0,0.8-0.6,1.4-1.4,1.4l0,0C93.4,24,92.8,23.4,92.8,22.6z M85.7,20.5C85.7,20.5,85.7,20.5,85.7,20.5
					L85.7,20.5c-0.6-0.5-0.6-1.4,0-2l0,0c0.6-0.6,1.4-0.6,2,0l0,0c0.6,0.5,0.6,1.4,0,2l0,0c-0.3,0.3-0.6,0.4-1,0.4l0,0
					C86.3,20.9,86,20.8,85.7,20.5z M100.7,20.5c-0.5-0.5-0.5-1.4,0-2l0,0c0.6-0.5,1.4-0.5,2,0l0,0c0.6,0.6,0.6,1.4,0,2l0,0
					c-0.3,0.3-0.6,0.4-1,0.4l0,0C101.3,20.9,101,20.8,100.7,20.5z M82.2,12c0-0.8,0.6-1.4,1.4-1.4l0,0c0.8,0,1.4,0.6,1.4,1.4l0,0
					c0,0.8-0.6,1.4-1.4,1.4l0,0C82.8,13.4,82.2,12.8,82.2,12z M103.4,12L103.4,12C103.4,12,103.4,12,103.4,12L103.4,12
					c0-0.8,0.6-1.4,1.4-1.4l0,0c0.8,0,1.4,0.6,1.4,1.4l0,0c0,0,0,0,0,0l0,0c0,0,0,0,0,0l0,0l0,0l0,0c0,0.8-0.6,1.4-1.4,1.4l0,0
					C104,13.4,103.4,12.8,103.4,12z M85.7,5.5c-0.5-0.5-0.6-1.4,0-2l0,0c0.5-0.6,1.4-0.6,2,0l0,0c0.6,0.5,0.6,1.4,0,2l0,0
					c-0.3,0.3-0.6,0.4-1,0.4l0,0C86.3,5.9,85.9,5.8,85.7,5.5z M100.6,5.5c-0.5-0.6-0.6-1.4,0-2l0,0c0.5-0.5,1.4-0.6,2,0l0,0
					c0.5,0.5,0.6,1.4,0,2l0,0c-0.3,0.3-0.6,0.4-1,0.4l0,0C101.3,5.9,100.9,5.8,100.6,5.5z M92.7,1.4c0-0.8,0.6-1.4,1.4-1.4l0,0
					c0.8,0,1.4,0.6,1.4,1.4l0,0c0,0.8-0.6,1.4-1.4,1.4l0,0C93.4,2.8,92.7,2.2,92.7,1.4z"/>
			</g>
		</g>
		<g>
			<g>
				<path class="st0" d="M581.6,169.4L581.6,169.4L581.6,169.4L581.6,169.4L581.6,169.4L581.6,169.4z M580.2,168
					c0-0.8,0.6-1.4,1.4-1.4l0,0c0.8,0,1.4,0.6,1.4,1.4l0,0c0,0.8-0.6,1.4-1.4,1.4l0,0C580.8,169.4,580.2,168.7,580.2,168z
					 M573.1,165.9C573.1,165.9,573.1,165.9,573.1,165.9L573.1,165.9c-0.6-0.5-0.6-1.4,0-2l0,0c0.6-0.6,1.4-0.6,2,0l0,0
					c0.6,0.5,0.6,1.4,0,2l0,0c-0.3,0.3-0.6,0.4-1,0.4l0,0C573.8,166.3,573.4,166.1,573.1,165.9z M588.1,165.8c-0.5-0.5-0.5-1.4,0-2
					l0,0c0.6-0.5,1.4-0.5,2,0l0,0c0.6,0.6,0.6,1.4,0,2l0,0c-0.3,0.3-0.6,0.4-1,0.4l0,0C588.7,166.2,588.4,166.1,588.1,165.8z
					 M569.6,157.4c0-0.8,0.6-1.4,1.4-1.4l0,0c0.8,0,1.4,0.6,1.4,1.4l0,0c0,0.8-0.6,1.4-1.4,1.4l0,0
					C570.2,158.8,569.6,158.2,569.6,157.4z M590.8,157.4L590.8,157.4C590.8,157.3,590.8,157.3,590.8,157.4L590.8,157.4
					c0-0.8,0.6-1.4,1.4-1.4l0,0c0.8,0,1.4,0.6,1.4,1.4l0,0c0,0,0,0,0,0l0,0c0,0,0,0,0,0l0,0l0,0l0,0c0,0.8-0.6,1.4-1.4,1.4l0,0
					C591.4,158.8,590.8,158.1,590.8,157.4z M573.1,150.9c-0.5-0.5-0.6-1.4,0-2l0,0c0.5-0.6,1.4-0.6,2,0l0,0c0.6,0.5,0.6,1.4,0,2l0,0
					c-0.3,0.3-0.6,0.4-1,0.4l0,0C573.7,151.3,573.4,151.2,573.1,150.9z M588.1,150.8c-0.5-0.6-0.6-1.4,0-2l0,0c0.5-0.5,1.4-0.6,2,0
					l0,0c0.5,0.5,0.6,1.4,0,2l0,0c-0.3,0.3-0.6,0.4-1,0.4l0,0C588.7,151.2,588.4,151.1,588.1,150.8z M580.2,146.8
					c0-0.8,0.6-1.4,1.4-1.4l0,0c0.8,0,1.4,0.6,1.4,1.4l0,0c0,0.8-0.6,1.4-1.4,1.4l0,0C580.8,148.2,580.2,147.5,580.2,146.8z"/>
			</g>
		</g>
		<g>
			<g>
				<path class="st0" d="M12,461.2L12,461.2L12,461.2L12,461.2L12,461.2L12,461.2z M10.6,459.8c0-0.8,0.6-1.4,1.4-1.4l0,0
					c0.8,0,1.4,0.6,1.4,1.4l0,0c0,0.8-0.6,1.4-1.4,1.4l0,0C11.2,461.2,10.6,460.5,10.6,459.8z M3.5,457.7
					C3.5,457.7,3.5,457.7,3.5,457.7L3.5,457.7c-0.6-0.5-0.6-1.4,0-2l0,0c0.6-0.6,1.4-0.6,2,0l0,0c0.6,0.5,0.6,1.4,0,2l0,0
					c-0.3,0.3-0.6,0.4-1,0.4l0,0C4.2,458.1,3.8,457.9,3.5,457.7z M18.5,457.6c-0.5-0.5-0.5-1.4,0-2l0,0c0.6-0.5,1.4-0.5,2,0l0,0
					c0.6,0.6,0.6,1.4,0,2l0,0c-0.3,0.3-0.6,0.4-1,0.4l0,0C19.1,458,18.8,457.9,18.5,457.6z M0,449.2c0-0.8,0.6-1.4,1.4-1.4l0,0
					c0.8,0,1.4,0.6,1.4,1.4l0,0c0,0.8-0.6,1.4-1.4,1.4l0,0C0.6,450.6,0,450,0,449.2z M21.2,449.2L21.2,449.2
					C21.2,449.1,21.2,449.1,21.2,449.2L21.2,449.2c0-0.8,0.6-1.4,1.4-1.4l0,0c0.8,0,1.4,0.6,1.4,1.4l0,0c0,0,0,0,0,0l0,0
					c0,0,0,0,0,0l0,0l0,0l0,0c0,0.8-0.6,1.4-1.4,1.4l0,0C21.8,450.6,21.2,449.9,21.2,449.2z M3.5,442.7c-0.5-0.5-0.6-1.4,0-2l0,0
					c0.5-0.6,1.4-0.6,2,0l0,0c0.6,0.5,0.6,1.4,0,2l0,0c-0.3,0.3-0.6,0.4-1,0.4l0,0C4.1,443.1,3.8,443,3.5,442.7z M18.5,442.6
					c-0.5-0.6-0.6-1.4,0-2l0,0c0.5-0.5,1.4-0.6,2,0l0,0c0.5,0.5,0.6,1.4,0,2l0,0c-0.3,0.3-0.6,0.4-1,0.4l0,0
					C19.1,443,18.8,442.9,18.5,442.6z M10.6,438.6c0-0.8,0.6-1.4,1.4-1.4l0,0c0.8,0,1.4,0.6,1.4,1.4l0,0c0,0.8-0.6,1.4-1.4,1.4l0,0
					C11.2,440,10.6,439.3,10.6,438.6z"/>
			</g>
		</g>
		<g>
			<g>
				<path class="st0" d="M284.7,351.4L284.7,351.4L284.7,351.4L284.7,351.4L284.7,351.4L284.7,351.4z M283.3,350
					c0-0.8,0.6-1.4,1.4-1.4l0,0c0.8,0,1.4,0.6,1.4,1.4l0,0c0,0.8-0.6,1.4-1.4,1.4l0,0C283.9,351.4,283.3,350.7,283.3,350z
					 M276.2,347.9C276.2,347.9,276.2,347.9,276.2,347.9L276.2,347.9c-0.6-0.5-0.6-1.4,0-2l0,0c0.6-0.6,1.4-0.6,2,0l0,0
					c0.6,0.5,0.6,1.4,0,2l0,0c-0.3,0.3-0.6,0.4-1,0.4l0,0C276.8,348.3,276.5,348.1,276.2,347.9z M291.2,347.8c-0.5-0.5-0.5-1.4,0-2
					l0,0c0.6-0.5,1.4-0.5,2,0l0,0c0.6,0.6,0.6,1.4,0,2l0,0c-0.3,0.3-0.6,0.4-1,0.4l0,0C291.8,348.3,291.4,348.1,291.2,347.8z
					 M272.7,339.4c0-0.8,0.6-1.4,1.4-1.4l0,0c0.8,0,1.4,0.6,1.4,1.4l0,0c0,0.8-0.6,1.4-1.4,1.4l0,0
					C273.3,340.8,272.7,340.2,272.7,339.4z M293.9,339.4L293.9,339.4C293.9,339.4,293.9,339.3,293.9,339.4L293.9,339.4
					c0-0.8,0.6-1.4,1.4-1.4l0,0c0.8,0,1.4,0.6,1.4,1.4l0,0c0,0,0,0,0,0l0,0c0,0,0,0,0,0l0,0l0,0l0,0c0,0.8-0.6,1.4-1.4,1.4l0,0
					C294.5,340.8,293.9,340.1,293.9,339.4z M276.2,332.9c-0.5-0.5-0.6-1.4,0-2l0,0c0.5-0.6,1.4-0.6,2,0l0,0c0.6,0.5,0.6,1.4,0,2l0,0
					c-0.3,0.3-0.6,0.4-1,0.4l0,0C276.8,333.3,276.4,333.2,276.2,332.9z M291.1,332.9c-0.5-0.6-0.6-1.4,0-2l0,0c0.5-0.5,1.4-0.6,2,0
					l0,0c0.5,0.5,0.6,1.4,0,2l0,0c-0.3,0.3-0.6,0.4-1,0.4l0,0C291.8,333.3,291.4,333.1,291.1,332.9z M283.2,328.8
					c0-0.8,0.6-1.4,1.4-1.4l0,0c0.8,0,1.4,0.6,1.4,1.4l0,0c0,0.8-0.6,1.4-1.4,1.4l0,0C283.9,330.2,283.2,329.5,283.2,328.8z"/>
			</g>
		</g>
		<g>
			<g>
				<path class="st0" d="M332.4,381.6h-0.1c-3.7,0-7.5-0.1-11.2-0.3c-0.5,0-0.9-0.5-0.9-1c0-0.5,0.5-0.9,1-0.9
					c3.7,0.2,7.4,0.3,11.1,0.3h0.1c0.5,0,0.9,0.4,0.9,0.9C333.3,381.2,332.9,381.6,332.4,381.6z M343.6,381.2
					c-0.5,0-0.9-0.4-0.9-0.9c0-0.5,0.4-1,0.9-1c3.7-0.2,7.5-0.6,11.2-1c0.5-0.1,1,0.3,1,0.8c0.1,0.5-0.3,1-0.8,1
					C351.2,380.7,347.4,381,343.6,381.2C343.7,381.2,343.6,381.2,343.6,381.2z M309.9,380.2c0,0-0.1,0-0.1,0
					c-3.7-0.4-7.5-1-11.2-1.7c-0.5-0.1-0.8-0.6-0.8-1.1c0.1-0.5,0.6-0.8,1.1-0.8c3.7,0.7,7.4,1.2,11.1,1.7c0.5,0.1,0.9,0.5,0.8,1
					C310.7,379.9,310.3,380.2,309.9,380.2z M366,378.5c-0.4,0-0.8-0.3-0.9-0.8c-0.1-0.5,0.2-1,0.8-1.1c3.7-0.7,7.4-1.5,11-2.3
					c0.5-0.1,1,0.2,1.1,0.7c0.1,0.5-0.2,1-0.7,1.1c-3.6,0.9-7.4,1.7-11.1,2.4C366.1,378.5,366,378.5,366,378.5z M287.7,376.2
					c-0.1,0-0.1,0-0.2,0c-3.7-0.9-7.3-1.9-10.9-3c-0.5-0.2-0.8-0.7-0.6-1.2c0.2-0.5,0.7-0.8,1.2-0.6c3.6,1.1,7.2,2.1,10.8,3
					c0.5,0.1,0.8,0.6,0.7,1.1C288.5,375.9,288.1,376.2,287.7,376.2z M387.9,373.1c-0.4,0-0.8-0.3-0.9-0.7c-0.2-0.5,0.1-1,0.6-1.2
					c3.6-1.1,7.1-2.3,10.6-3.7c0.5-0.2,1,0.1,1.2,0.5c0.2,0.5-0.1,1-0.5,1.2c-3.5,1.3-7.1,2.6-10.7,3.7
					C388,373.1,388,373.1,387.9,373.1z M266.2,369.5c-0.1,0-0.2,0-0.3-0.1c-3.5-1.3-7-2.8-10.5-4.3c-0.5-0.2-0.7-0.8-0.5-1.2
					c0.2-0.5,0.8-0.7,1.2-0.5c3.4,1.5,6.9,3,10.4,4.3c0.5,0.2,0.7,0.7,0.5,1.2C266.9,369.3,266.6,369.5,266.2,369.5z M408.9,365.2
					c-0.4,0-0.7-0.2-0.9-0.6c-0.2-0.5,0-1,0.5-1.2c3.4-1.5,6.8-3.2,10.1-4.9c0.5-0.2,1-0.1,1.3,0.4c0.2,0.5,0.1,1-0.4,1.3
					c-3.3,1.7-6.7,3.4-10.2,5C409.2,365.1,409,365.2,408.9,365.2z M245.6,360.3c-0.1,0-0.3,0-0.4-0.1c-3.3-1.7-6.6-3.6-9.9-5.6
					c-0.4-0.3-0.6-0.8-0.3-1.3c0.3-0.4,0.8-0.6,1.3-0.3c3.2,1.9,6.5,3.8,9.8,5.5c0.5,0.2,0.6,0.8,0.4,1.3
					C246.3,360.1,245.9,360.3,245.6,360.3z M428.8,354.7c-0.3,0-0.6-0.2-0.8-0.5c-0.3-0.4-0.1-1,0.3-1.3c3.2-1.9,6.4-4,9.4-6.1
					c0.4-0.3,1-0.2,1.3,0.2c0.3,0.4,0.2,1-0.2,1.3c-3.1,2.1-6.3,4.2-9.5,6.2C429.1,354.6,429,354.7,428.8,354.7z M226.3,348.6
					c-0.2,0-0.4-0.1-0.5-0.2c-3.1-2.1-6.2-4.4-9.1-6.7c-0.4-0.3-0.5-0.9-0.2-1.3c0.3-0.4,0.9-0.5,1.3-0.2c2.9,2.3,6,4.5,9,6.7
					c0.4,0.3,0.5,0.9,0.2,1.3C226.9,348.5,226.6,348.6,226.3,348.6z M447.3,341.9c-0.3,0-0.6-0.1-0.7-0.4c-0.3-0.4-0.2-1,0.2-1.3
					c2.9-2.3,5.8-4.7,8.6-7.2c0.4-0.3,1-0.3,1.3,0.1c0.3,0.4,0.3,1-0.1,1.3c-2.8,2.5-5.7,4.9-8.7,7.3
					C447.7,341.8,447.5,341.9,447.3,341.9z M208.6,334.7c-0.2,0-0.4-0.1-0.6-0.2c-2.8-2.5-5.6-5.1-8.2-7.8c-0.4-0.4-0.4-1,0-1.3
					c0.4-0.4,1-0.4,1.3,0c2.6,2.6,5.4,5.2,8.2,7.7c0.4,0.3,0.4,0.9,0.1,1.3C209.1,334.6,208.8,334.7,208.6,334.7z M464.2,326.9
					c-0.2,0-0.5-0.1-0.7-0.3c-0.4-0.4-0.4-1,0-1.3c2.6-2.6,5.2-5.4,7.7-8.2c0.3-0.4,0.9-0.4,1.3-0.1c0.4,0.3,0.4,0.9,0.1,1.3
					c-2.5,2.8-5.1,5.6-7.8,8.2C464.7,326.8,464.4,326.9,464.2,326.9z M192.6,318.8c-0.3,0-0.5-0.1-0.7-0.3c-2.5-2.8-4.9-5.7-7.3-8.7
					c-0.3-0.4-0.2-1,0.2-1.3c0.4-0.3,1-0.2,1.3,0.2c2.3,2.9,4.7,5.8,7.2,8.6c0.3,0.4,0.3,1-0.1,1.3
					C193.1,318.7,192.9,318.8,192.6,318.8z M479.1,310.1c-0.2,0-0.4-0.1-0.6-0.2c-0.4-0.3-0.5-0.9-0.2-1.3c2.3-2.9,4.5-6,6.7-9
					c0.3-0.4,0.9-0.5,1.3-0.2c0.4,0.3,0.5,0.9,0.2,1.3c-2.1,3.1-4.4,6.2-6.7,9.1C479.7,310,479.4,310.1,479.1,310.1z M178.7,301.1
					c-0.3,0-0.6-0.1-0.8-0.4c-2.1-3.1-4.2-6.3-6.2-9.5c-0.3-0.4-0.1-1,0.3-1.3c0.4-0.3,1-0.1,1.3,0.3c1.9,3.2,4,6.3,6.1,9.4
					c0.3,0.4,0.2,1-0.2,1.3C179.1,301,178.9,301.1,178.7,301.1z M492,291.5c-0.2,0-0.3,0-0.5-0.1c-0.4-0.3-0.6-0.8-0.3-1.3
					c1.9-3.2,3.8-6.5,5.5-9.8c0.2-0.5,0.8-0.6,1.3-0.4c0.5,0.2,0.6,0.8,0.4,1.3c-1.7,3.3-3.6,6.6-5.6,9.9
					C492.6,291.4,492.3,291.5,492,291.5z M167.1,281.8c-0.3,0-0.7-0.2-0.8-0.5c-1.8-3.3-3.4-6.7-5-10.2c-0.2-0.5,0-1,0.5-1.2
					c0.5-0.2,1,0,1.2,0.5c1.5,3.4,3.2,6.8,4.9,10.1c0.2,0.5,0.1,1-0.4,1.3C167.4,281.8,167.2,281.8,167.1,281.8z M502.5,271.6
					c-0.1,0-0.3,0-0.4-0.1c-0.5-0.2-0.7-0.8-0.5-1.2c1.5-3.4,3-6.9,4.3-10.4c0.2-0.5,0.7-0.7,1.2-0.5c0.5,0.2,0.7,0.7,0.5,1.2
					c-1.3,3.5-2.8,7-4.3,10.5C503.2,271.4,502.8,271.6,502.5,271.6z M157.8,261.3c-0.4,0-0.7-0.2-0.9-0.6c-1.3-3.5-2.6-7.1-3.7-10.7
					c-0.2-0.5,0.1-1,0.6-1.2c0.5-0.2,1,0.1,1.2,0.6c1.1,3.6,2.3,7.1,3.7,10.6c0.2,0.5-0.1,1-0.5,1.2
					C158,261.3,157.9,261.3,157.8,261.3z M510.5,250.5c-0.1,0-0.2,0-0.3,0c-0.5-0.2-0.8-0.7-0.6-1.2c1.1-3.6,2.1-7.2,3-10.8
					c0.1-0.5,0.6-0.8,1.1-0.7c0.5,0.1,0.8,0.6,0.7,1.1c-0.9,3.7-1.9,7.3-3,10.9C511.2,250.2,510.9,250.5,510.5,250.5z M151.1,239.8
					c-0.4,0-0.8-0.3-0.9-0.7c-0.9-3.6-1.7-7.4-2.4-11.1c-0.1-0.5,0.2-1,0.8-1.1c0.5-0.1,1,0.2,1.1,0.8c0.7,3.7,1.5,7.3,2.4,11
					c0.1,0.5-0.2,1-0.7,1.1C151.2,239.8,151.2,239.8,151.1,239.8z M515.8,228.6c-0.1,0-0.1,0-0.2,0c-0.5-0.1-0.8-0.6-0.8-1.1
					c0.7-3.7,1.2-7.4,1.7-11.1c0.1-0.5,0.5-0.9,1-0.8c0.5,0.1,0.9,0.5,0.8,1c-0.4,3.7-1,7.5-1.7,11.2
					C516.7,228.3,516.3,228.6,515.8,228.6z M147,217.7c-0.5,0-0.9-0.3-0.9-0.8c-0.5-3.7-0.8-7.5-1-11.3c0-0.5,0.4-1,0.9-1
					c0.5,0,1,0.4,1,0.9c0.2,3.7,0.6,7.5,1,11.2c0.1,0.5-0.3,1-0.8,1C147.1,217.7,147.1,217.7,147,217.7z M518.5,206.2
					C518.5,206.2,518.5,206.2,518.5,206.2c-0.6,0-1-0.5-0.9-1c0.2-3.7,0.3-7.5,0.3-11.2v-0.4c0-0.5,0.4-0.9,0.9-0.9
					c0.5,0,0.9,0.4,0.9,0.9v0.4c0,3.8-0.1,7.6-0.3,11.3C519.4,205.9,519,206.2,518.5,206.2z M145.7,195.2c-0.5,0-0.9-0.4-0.9-0.9
					V194c0-3.7,0.1-7.4,0.3-11.1c0-0.5,0.5-0.9,1-0.9c0.5,0,0.9,0.5,0.9,1c-0.2,3.6-0.3,7.3-0.3,11v0.2
					C146.6,194.8,146.2,195.2,145.7,195.2z M518.5,183.3c-0.5,0-0.9-0.4-0.9-0.9c-0.2-3.7-0.6-7.5-1-11.2c-0.1-0.5,0.3-1,0.8-1
					c0.5-0.1,1,0.3,1,0.8c0.5,3.7,0.8,7.5,1,11.3C519.5,182.8,519.1,183.3,518.5,183.3C518.5,183.3,518.5,183.3,518.5,183.3z
					 M147,172.7c0,0-0.1,0-0.1,0c-0.5-0.1-0.9-0.5-0.8-1c0.4-3.7,1-7.5,1.7-11.2c0.1-0.5,0.6-0.8,1.1-0.8c0.5,0.1,0.8,0.6,0.8,1.1
					c-0.7,3.7-1.2,7.4-1.7,11.1C147.9,172.3,147.4,172.7,147,172.7z M515.8,161c-0.4,0-0.8-0.3-0.9-0.8c-0.7-3.7-1.5-7.3-2.4-11
					c-0.1-0.5,0.2-1,0.7-1.1c0.5-0.1,1,0.2,1.1,0.7c0.9,3.6,1.7,7.4,2.4,11.1c0.1,0.5-0.2,1-0.7,1.1
					C515.9,160.9,515.8,161,515.8,161z M151,150.5c-0.1,0-0.1,0-0.2,0c-0.5-0.1-0.8-0.6-0.7-1.1c0.9-3.7,1.9-7.3,3-10.9
					c0.2-0.5,0.7-0.8,1.2-0.6c0.5,0.2,0.8,0.7,0.6,1.2c-1.1,3.6-2.1,7.2-3,10.8C151.8,150.2,151.4,150.5,151,150.5z M510.3,139.1
					c-0.4,0-0.8-0.3-0.9-0.7c-1.1-3.5-2.3-7.1-3.7-10.6c-0.2-0.5,0.1-1,0.5-1.2c0.5-0.2,1,0.1,1.2,0.5c1.3,3.5,2.6,7.1,3.7,10.7
					c0.2,0.5-0.1,1-0.6,1.2C510.5,139.1,510.4,139.1,510.3,139.1z M157.7,129c-0.1,0-0.2,0-0.3-0.1c-0.5-0.2-0.7-0.7-0.5-1.2
					c1.3-3.5,2.8-7,4.3-10.5c0.2-0.5,0.8-0.7,1.2-0.5c0.5,0.2,0.7,0.8,0.5,1.2c-1.5,3.4-3,6.9-4.3,10.4
					C158.4,128.8,158,129,157.7,129z M502.3,118.1c-0.4,0-0.7-0.2-0.9-0.5c-1.5-3.4-3.2-6.8-4.9-10.1c-0.2-0.5-0.1-1,0.4-1.3
					c0.5-0.2,1-0.1,1.3,0.4c1.8,3.3,3.4,6.7,5,10.2c0.2,0.5,0,1-0.5,1.2C502.6,118,502.4,118.1,502.3,118.1z M166.9,108.4
					c-0.1,0-0.3,0-0.4-0.1c-0.5-0.2-0.6-0.8-0.4-1.3c1.7-3.3,3.6-6.7,5.6-9.9c0.3-0.4,0.8-0.6,1.3-0.3c0.4,0.3,0.6,0.8,0.3,1.3
					c-1.9,3.2-3.8,6.5-5.5,9.8C167.6,108.2,167.2,108.4,166.9,108.4z M491.8,98.2c-0.3,0-0.6-0.2-0.8-0.4c-1.9-3.2-4-6.3-6.1-9.4
					c-0.3-0.4-0.2-1,0.2-1.3c0.4-0.3,1-0.2,1.3,0.2c2.1,3.1,4.2,6.3,6.2,9.5c0.3,0.4,0.1,1-0.3,1.3C492.1,98.1,492,98.2,491.8,98.2z
					 M178.6,89.1c-0.2,0-0.4-0.1-0.5-0.2c-0.4-0.3-0.5-0.9-0.2-1.3c2.1-3.1,4.4-6.2,6.7-9.1c0.3-0.4,0.9-0.5,1.3-0.2
					c0.4,0.3,0.5,0.9,0.2,1.3c-2.3,2.9-4.5,6-6.6,9C179.2,89,178.9,89.1,178.6,89.1z M479,79.7c-0.3,0-0.6-0.1-0.7-0.4
					c-2.3-2.9-4.7-5.8-7.2-8.6c-0.3-0.4-0.3-1,0.1-1.3c0.4-0.3,1-0.3,1.3,0.1c2.5,2.8,4.9,5.7,7.3,8.7c0.3,0.4,0.2,1-0.2,1.3
					C479.4,79.6,479.2,79.7,479,79.7z M192.5,71.4c-0.2,0-0.4-0.1-0.6-0.2c-0.4-0.3-0.4-0.9-0.1-1.3c2.5-2.8,5.1-5.6,7.8-8.3
					c0.4-0.4,1-0.4,1.3,0c0.4,0.4,0.4,1,0,1.3c-2.6,2.6-5.2,5.4-7.7,8.2C193,71.3,192.7,71.4,192.5,71.4z M464,62.8
					c-0.2,0-0.5-0.1-0.7-0.3c-2.6-2.6-5.4-5.2-8.2-7.7c-0.4-0.3-0.4-0.9-0.1-1.3c0.3-0.4,0.9-0.4,1.3-0.1c2.8,2.5,5.6,5.1,8.3,7.8
					c0.4,0.4,0.4,1,0,1.3C464.5,62.7,464.2,62.8,464,62.8z M208.4,55.4c-0.3,0-0.5-0.1-0.7-0.3c-0.3-0.4-0.3-1,0.1-1.3
					c2.8-2.5,5.7-4.9,8.7-7.3c0.4-0.3,1-0.2,1.3,0.2c0.3,0.4,0.2,1-0.2,1.3c-2.9,2.3-5.8,4.7-8.6,7.2
					C208.8,55.3,208.6,55.4,208.4,55.4z M447.1,47.9c-0.2,0-0.4-0.1-0.6-0.2c-2.9-2.3-6-4.5-9-6.6c-0.4-0.3-0.5-0.9-0.2-1.3
					c0.3-0.4,0.9-0.5,1.3-0.2c3.1,2.1,6.2,4.4,9.1,6.7c0.4,0.3,0.5,0.9,0.2,1.3C447.7,47.8,447.4,47.9,447.1,47.9z M226.1,41.5
					c-0.3,0-0.6-0.1-0.8-0.4c-0.3-0.4-0.2-1,0.2-1.3c3.1-2.1,6.3-4.2,9.5-6.2c0.4-0.3,1-0.1,1.3,0.3c0.3,0.4,0.1,1-0.3,1.3
					c-3.2,1.9-6.3,4-9.4,6.1C226.5,41.5,226.3,41.5,226.1,41.5z M428.6,35.1c-0.2,0-0.3,0-0.5-0.1c-3.2-1.9-6.5-3.8-9.8-5.5
					c-0.5-0.2-0.6-0.8-0.4-1.3c0.2-0.5,0.8-0.6,1.3-0.4c3.3,1.7,6.7,3.6,9.9,5.6c0.4,0.3,0.6,0.8,0.3,1.3
					C429.2,35,428.9,35.1,428.6,35.1z M245.3,29.8c-0.3,0-0.7-0.2-0.8-0.5c-0.2-0.5-0.1-1,0.4-1.3c3.3-1.8,6.7-3.4,10.2-5
					c0.5-0.2,1,0,1.2,0.5c0.2,0.5,0,1-0.5,1.2c-3.4,1.5-6.8,3.2-10.1,4.9C245.6,29.8,245.5,29.8,245.3,29.8z M408.6,24.7
					c-0.1,0-0.3,0-0.4-0.1c-3.4-1.5-6.9-3-10.4-4.3c-0.5-0.2-0.7-0.7-0.5-1.2c0.2-0.5,0.7-0.7,1.2-0.5c3.5,1.3,7.1,2.8,10.5,4.3
					c0.5,0.2,0.7,0.8,0.5,1.2C409.3,24.4,408.9,24.7,408.6,24.7z M265.8,20.6c-0.4,0-0.7-0.2-0.9-0.6c-0.2-0.5,0.1-1,0.5-1.2
					c3.5-1.3,7.1-2.6,10.7-3.7c0.5-0.2,1,0.1,1.2,0.6c0.2,0.5-0.1,1-0.6,1.2c-3.6,1.1-7.1,2.3-10.6,3.7
					C266,20.5,265.9,20.6,265.8,20.6z M387.5,16.7c-0.1,0-0.2,0-0.3,0c-3.6-1.1-7.2-2.1-10.8-3c-0.5-0.1-0.8-0.6-0.7-1.1
					c0.1-0.5,0.6-0.8,1.1-0.7c3.6,0.9,7.3,1.9,10.9,3c0.5,0.2,0.8,0.7,0.6,1.2C388.2,16.4,387.9,16.7,387.5,16.7z M287.3,13.8
					c-0.4,0-0.8-0.3-0.9-0.7c-0.1-0.5,0.2-1,0.7-1.1c3.6-0.9,7.4-1.7,11.1-2.4c0.5-0.1,1,0.2,1.1,0.8c0.1,0.5-0.2,1-0.8,1.1
					c-3.7,0.7-7.4,1.5-11,2.4C287.5,13.8,287.4,13.8,287.3,13.8z M365.6,11.3c-0.1,0-0.1,0-0.2,0c-3.7-0.7-7.4-1.2-11.1-1.7
					c-0.5-0.1-0.9-0.5-0.8-1c0.1-0.5,0.5-0.9,1-0.8c3.7,0.4,7.5,1,11.2,1.7c0.5,0.1,0.8,0.6,0.8,1.1C366.4,11,366,11.3,365.6,11.3z
					 M309.5,9.8c-0.5,0-0.9-0.3-0.9-0.8c-0.1-0.5,0.3-1,0.8-1c3.7-0.5,7.5-0.8,11.3-1c0.5,0,1,0.4,1,0.9c0,0.5-0.4,1-0.9,1
					c-3.7,0.2-7.5,0.6-11.2,1C309.6,9.8,309.5,9.8,309.5,9.8z M343.2,8.7C343.2,8.7,343.2,8.7,343.2,8.7c-3.7-0.2-7.3-0.3-11-0.3
					l-0.3,0c-0.5,0-0.9-0.4-0.9-0.9c0-0.5,0.4-0.9,0.9-0.9l0.3,0c3.7,0,7.4,0.1,11,0.3c0.5,0,0.9,0.5,0.9,1
					C344.1,8.3,343.7,8.7,343.2,8.7z"/>
			</g>
		</g>
	</g>
	<g>
		<g>
			<g>
				<g>
					<path class="st1" d="M300.5,151.6c68.2-43.3,63.4-105.3,62.8-108.4c-0.7-4-1.5-12.1,2.3-12.3c1.9-0.1,3,1,3.6,3.4
						c0.1-1.7,0.3-3.6,2.1-4c1.5-0.4,3.6,1.9,4.1,3.6c0,0.2,0.1,0.3,0.1,0.5c-0.1-0.1-0.1-0.3-0.1-0.5c-0.2-1.5,0.8-3.7,2.2-4.1
						c1.9-0.5,3.2,1.7,3.7,3.6c0.1-1.7,0.6-3.1,2.3-3.6c3.6-1,4.2,6.3,4.5,10.7c0.2,3.5,1.4,81.4-75.3,128.6L300.5,151.6z"/>
				</g>
			</g>
			<g>
				<g>
					<path class="st2" d="M300.5,151.6l12.3,17.4c25.2-15.5,42-34.3,53.2-52.7c-9.2,2-19.9,3.7-29.3,3.6
						C327.8,130.9,316.1,141.7,300.5,151.6z"/>
				</g>
			</g>
			<g>
				<g>
					<g>
						<g>
							<g>
								<path class="st3" d="M264.8,306.9l59.4-184.3c29.1,9.5,55.7,6.3,67.1,4.1c26.6,26,75.4,121.9,74.4,156.4
									C405.6,314.5,350.2,336.6,264.8,306.9z"/>
							</g>
						</g>
					</g>
					<g>
						<g>
							<path class="st4" d="M465.7,283.2l35.5-16l38.2,36.5c0,0,65.4-25.1,35.2-34.4c-32-9.9-35.2,19.6-35.2,19.6l-31.5-40.5
								l-37.9,8c0,0-21.8-66.3-57.6-116.2l35-23.6l50.9,4.6c0,0,40.9-42.9,9.2-41.2c-25.7,1.4-17,31.6-17,31.6l-43.4-11.5
								l-55.8,26.7L465.7,283.2z"/>
						</g>
					</g>
					<g>
						<g>
							<path class="st5" d="M415.8,144.9l-72.7,38.7l-8.7-8.7l-8.6,3.2l-2.4,20.4l6.9,5.1l12.2-6.5l94.7-16.3
								C430.9,168.7,423.7,156.5,415.8,144.9z"/>
						</g>
					</g>
					<g>
						<path class="st2" d="M329.8,310.9c9.3,3.4,18.4,6.5,27.1,9.4c16.1-1.3,31.4-4.7,46.1-9.5c-20.4-5.4-43.4-12.2-67.3-20.4
							c-11.1-3.8-22.4-7.9-33.7-12.3l-1.1,19.3C312.7,302,318.8,306.9,329.8,310.9z"/>
					</g>
					<g>
						<g>
							<polygon class="st4" points="325.8,178 334.4,174.9 343.1,183.5 422.1,130.8 454.9,145.8 437.3,175 342.6,197 330.3,203.6 
								323.4,198.5 							"/>
						</g>
					</g>
					<g>
						<g>
							<g>
								<path class="st1" d="M324.2,122.7c0,0-188.2-87.4-177.1,88.2c0,0,18.6,60.6,117.7,96C334.4,196.7,324.2,122.7,324.2,122.7z"
									/>
							</g>
						</g>
						<g>
							<g>
								<path class="st4" d="M143.6,34c0,0,124.9,44.8,37.4,182.6l40,25.6c0,0-20.7,11.1-4.7,22.1c16,11.1,16.1-13.5,16.1-13.5
									s28.4,29.9,32.4,56.1c1.7-0.3-204.7-19.5-152.3-86.8c0,0-30.9-23.8-15.2-74.2C113.5,93.8,184.3,95.6,143.6,34z"/>
							</g>
						</g>
					</g>
				</g>
				<g>
					<g>
						<path class="st6" d="M272.7,196c0,0,4-22.8,14.3-51c0,0,27.2,8.7,20.3,33.2C299.6,205.3,272.7,196,272.7,196z"/>
					</g>
				</g>
				<g>
					<g>
						<g>
							<path class="st3" d="M291.6,296.3l10.4-18.2c10.2,6.7,20.4,13,30.4,19.1l-10,18.8C312.4,309.8,302.2,303.3,291.6,296.3z"/>
						</g>
					</g>
					<g>
						<g>
							<path class="st1" d="M332.4,297.1c69.3,41.5,122.6,9.4,125.1,7.5c3.2-2.4,10.1-6.8,12-3.5c1,1.7,0.5,3.1-1.4,4.8
								c1.6-0.7,3.4-1.3,4.5,0c1.1,1.2-0.1,4.1-1.4,5.3c-0.1,0.1-0.3,0.2-0.4,0.3c0.1-0.1,0.2-0.2,0.4-0.3c1.3-0.9,3.7-0.9,4.7,0.2
								c1.3,1.4-0.1,3.7-1.6,4.9c1.6-0.7,3.1-0.9,4.2,0.5c2.5,2.8-3.8,6.6-7.5,8.8c-3,1.8-72.1,37.8-148.7-9.6L332.4,297.1z"/>
						</g>
					</g>
				</g>
			</g>
		</g>
		<g>
			<path class="st4" d="M240,193.1c7.7,1.8,13.3,6.2,12.5,9.8c-0.8,3.6-7.8,5-15.6,3.1c-7.7-1.8-13.3-6.2-12.5-9.8
				C225.3,192.6,232.2,191.2,240,193.1z"/>
			<path class="st4" d="M257.9,117.4c7.7,1.8,13.3,6.2,12.5,9.8c-0.8,3.6-7.8,5-15.6,3.1c-7.7-1.8-13.3-6.2-12.5-9.8
				C243.2,117,250.2,115.6,257.9,117.4z"/>
		</g>
	</g>
	<g>
		<path class="st1" d="M547.4,509.2c-2.4,9.6-5,13.5-6.3,23.2l-28.9-12.4c2.7-14.1,10.1-30.9,13.9-45.3c3.1-11.7,7.1-26.2,4.7-38.4
			c-1.7-8-7.9-27.7-13.5-35.5c-1.5-2.2-4.8-7.3-3.5-10.3c0.5-2.4,5.2-1.9,7.7,1c5.2,7.8,13.5,15.1,18.2,12.6c4.2-2.2,5.1-9.2,5-13.4
			c0.4-5.1,2.7-17.8,2.4-22.9c-0.2-3-0.2-11.3,3.7-12.2c6.6-1.5,5.4,20.4,5.5,24.1c0.1,2.1-0.9,7.4,1.3,8.7
			c5.9,3.4,11.2-28.4,12.1-32.3c0.8-3,2.9-9.1,7-9.8c5.6-0.9-1.2,24.2-2,26.2c-2,6.4-6.7,16.8-4.1,19.6c1.8,2,6.8-3.4,10.3-9.1
			c3.1-5,6.4-15.4,9.5-18.7c1.6-1.8,6.4-2.5,6.1,1.2c0.1,4.2-6.7,18.9-8.6,22.4c-0.8,2-5.6,11-4.1,13.2c2.1,2.8,6.8-4.6,8.4-6.3
			c3-3.2,8.5-12.6,11.2-10.7c3.5,2.4-1.7,10.6-6.7,16.8c-7.9,9.7-23.5,32.7-26.3,38.2C562.9,454.2,553.4,485.4,547.4,509.2z"/>
		<g>
			<g>
				<polygon class="st7" points="558,481.5 558.9,477.7 523.6,469.7 522.5,473.8 				"/>
				<polygon class="st8" points="548,536.8 560.9,482.2 520.5,473.2 501,536.8 				"/>
				<path class="st9" d="M549.6,488c0,1.9,1.6,3.5,3.5,3.5c1.9,0,3.5-1.6,3.5-3.5c0-1.9-1.6-3.5-3.5-3.5
					C551.2,484.5,549.6,486.1,549.6,488z"/>
				<path class="st9" d="M547,498.1c0,1.9,1.6,3.5,3.5,3.5c1.9,0,3.5-1.6,3.5-3.5c0-1.9-1.6-3.5-3.5-3.5
					C548.5,494.6,547,496.1,547,498.1z"/>
			</g>
		</g>
	</g>
	<g>
		<path class="st1" d="M127.3,507.5c3,9.4,5.8,18.8,8.6,28.2l24.9-22.6c-4.8-13.6-9.6-27.1-14.3-41.2c-3.8-11.5-8.6-25.7-7.1-38
			c1.2-8.1,6.2-28.2,11.3-36.3c1.4-2.3,4.4-7.6,2.9-10.5c-0.6-2.4-5.3-1.6-7.6,1.5c-4.7,8.1-12.6,15.9-17.4,13.7
			c-4.3-1.9-5.6-8.9-5.8-13.1c-0.7-5.1-3.8-17.6-3.8-22.7c0-3-0.5-11.3-4.4-11.9c-6.7-1.1-4.1,20.7-4,24.4c0.1,2.1,1.4,7.3-0.8,8.7
			c-5.7,3.7-12.9-27.7-14.1-31.5c-1-2.9-3.4-8.9-7.6-9.3c-5.6-0.6,2.7,24.1,3.6,26c2.4,6.2,7.7,16.4,5.3,19.4c-1.7,2.1-7-3-10.8-8.5
			c-3.4-4.8-7.3-15-10.6-18.1c-1.7-1.7-6.5-2.1-6,1.6c0.2,4.2,7.8,18.5,9.9,21.8c0.9,1.9,6.3,10.7,4.9,12.9
			c-1.9,2.9-7.1-4.1-8.8-5.7c-3.2-3-9.2-12.1-11.9-10c-3.4,2.6,2.3,10.5,7.8,16.3c8.5,9.2,25.4,31.2,28.6,36.5
			C108.5,453.7,119.9,484.2,127.3,507.5z"/>
		<g>
			<g>
				<polygon class="st7" points="113,478.2 111.7,474.4 146.4,463.8 147.7,467.8 				"/>
				<polygon class="st10" points="127.7,536.8 110.1,479 149.7,467.1 174,536.8 				"/>
				<path class="st9" d="M121.8,484c0.1,1.9-1.3,3.6-3.2,3.7c-1.9,0.1-3.6-1.3-3.7-3.2c-0.1-1.9,1.3-3.6,3.2-3.7
					S121.6,482.1,121.8,484z"/>
				<path class="st9" d="M125.2,493.9c0.1,1.9-1.3,3.6-3.2,3.7c-1.9,0.1-3.6-1.3-3.7-3.2c-0.1-1.9,1.3-3.6,3.2-3.7
					C123.4,490.5,125.1,491.9,125.2,493.9z"/>
			</g>
		</g>
	</g>
	<g>
		<path class="st1" d="M400.7,516.1c-0.2,7-0.4,13.8-0.7,20.7h29.6c0.6-23.2,2.6-50.9,6.1-65.7c1.4-6,11.2-32,16.7-43.3
			c3.5-7.2,6.7-16.4,2.7-17.9c-3.1-1.2-6.2,9.3-8.4,13.1c-1.2,2-4.1,10.3-6.7,8.1c-2-1.7,0.6-11.6,0.9-13.7
			c1.1-3.8,4.2-19.7,3.1-23.8c-0.6-3.7-5.1-1.9-6.2,0.2c-2.3,3.9-3.1,14.9-4.9,20.4c-2.1,6.4-5.7,12.7-7.9,11.2
			c-3.2-2.1-1.1-13.4-0.6-20.1c0.3-2.1,1.1-28.2-4.1-26c-3.8,1.6-4.5,8-4.5,11.1c-0.1,4,2.2,36.1-4.3,34.2c-2.5-0.7-2.7-6.1-3.3-8.1
			c-0.9-3.5-4.8-25.1-10.9-22.1c-3.5,1.7-1.6,9.8-0.8,12.7c1.5,4.9,2.2,17.8,3,22.9c1,4.1,1.8,11.1-1.8,14.2
			c-4,3.5-13.8-1.7-20.7-8.1c-3.2-2.2-7.9-1.7-7.7,0.8c-0.6,3.2,3.8,7.5,5.8,9.2c7.2,6.3,17.9,24,21.4,31.4
			C401.4,489,400.9,504,400.7,516.1z"/>
		<g>
			<g>
				<polygon class="st7" points="397.3,507.5 397.6,503.5 433.7,507.1 433.4,511.4 				"/>
				<polygon class="st11" points="391,536.8 394.4,507.2 435.5,511.4 435.1,536.8 				"/>
				<path class="st9" d="M403.2,516.3c-0.6,1.8-2.6,2.8-4.4,2.2c-1.8-0.6-2.8-2.6-2.2-4.4c0.6-1.8,2.6-2.8,4.4-2.2
					C402.8,512.5,403.8,514.5,403.2,516.3z"/>
				<path class="st9" d="M402.6,526.7c-0.6,1.8-2.6,2.8-4.4,2.2c-1.8-0.6-2.8-2.6-2.2-4.4c0.6-1.8,2.6-2.8,4.4-2.2
					C402.2,522.9,403.2,524.9,402.6,526.7z"/>
			</g>
		</g>
	</g>
	<g>
		<g>
			<path class="st1" d="M316.7,441.7c0.1-2.5-4.6-3.1-7.7-0.9c-6.8,6.3-16.7,11.5-20.7,8c-3.6-3.1-2.8-10.1-1.7-14.2
				c0.8-5.1,1.6-17.9,3.1-22.9c0.9-2.9,2.8-11-0.7-12.7c-6.1-3-10.1,18.6-11,22.1c-0.6,2-0.8,7.4-3.3,8.1
				c-6.6,1.9-4.1-30.3-4.2-34.2c0-3.1-0.7-9.5-4.5-11.1c-5.2-2.2-4.5,23.8-4.2,25.9c0.5,6.7,2.5,17.9-0.7,20.1
				c-2.2,1.5-5.8-4.9-7.8-11.3c-1.8-5.6-2.6-16.5-4.8-20.4c-1.1-2.1-5.6-3.9-6.2-0.2c-1.1,4.1,2,20,3,23.8c0.3,2.1,2.9,12,0.9,13.7
				c-2.7,2.3-5.5-6-6.7-8.1c-2.2-3.8-5.2-14.2-8.4-13.1c-4,1.5-0.9,10.7,2.6,17.9c5.4,11.3,15.1,37.3,16.5,43.3
				c3.2,13.9,5.1,39.1,5.7,61.3h29.5c-0.2-5.3-0.3-10.7-0.4-16.1c-0.2-12.1-0.7-27.1,4.5-38.4c3.5-7.4,14.2-25.1,21.5-31.4
				C312.9,449.1,317.3,444.9,316.7,441.7z"/>
		</g>
		<g>
			<g>
				<polygon class="st7" points="287.5,506.8 287.5,502.8 251.3,504 251.3,508.3 				"/>
				<polygon class="st12" points="292.3,536.8 290.5,506.6 249.2,508.2 249,536.8 				"/>
				<path class="st9" d="M281.1,515.1c0.5,1.9,2.4,3,4.3,2.5c1.9-0.5,3-2.4,2.5-4.3c-0.5-1.9-2.4-3-4.3-2.5
					C281.7,511.4,280.6,513.3,281.1,515.1z"/>
				<path class="st9" d="M281.1,525.6c0.5,1.9,2.4,3,4.3,2.5c1.9-0.5,3-2.4,2.5-4.3c-0.5-1.9-2.4-3-4.3-2.5
					C281.7,521.8,280.6,523.7,281.1,525.6z"/>
			</g>
		</g>
	</g>
</g>
</svg>
